<?xml version="1.0" encoding="utf-8"?>
<!-- Generator: Adobe Illustrator 16.0.0, SVG Export Plug-In . SVG Version: 6.00 Build 0)  -->
<!DOCTYPE svg PUBLIC "-//W3C//DTD SVG 1.1//EN" "http://www.w3.org/Graphics/SVG/1.1/DTD/svg11.dtd">
<svg version="1.1" id="Layer_1" xmlns="http://www.w3.org/2000/svg" xmlns:xlink="http://www.w3.org/1999/xlink" x="0px" y="0px"
	 width="220px" height="180.232px" viewBox="0 0 220 180.232" enable-background="new 0 0 220 180.232" xml:space="preserve">
<polygon fill="#FF4A8C" points="111.904,10.755 111.302,10.755 111.077,10.755 110.474,10.755 107.939,30.415 111.077,30.415 
	111.302,30.415 114.441,30.415 "/>
<path fill="#5E6CC9" d="M124.709,33.566c0,3.299-2.675,5.973-5.973,5.973h-15.094c-3.297,0-5.971-2.674-5.971-5.973l0,0
	c0-3.297,2.674-5.971,5.971-5.971h15.094C122.034,27.595,124.709,30.269,124.709,33.566L124.709,33.566z"/>
<ellipse fill="#C7E660" cx="111.189" cy="150.261" rx="33.179" ry="8.337"/>
<path fill="#5E6CC9" d="M152.714,144.303c0,3.361-2.724,6.085-6.085,6.085H75.751c-3.361,0-6.086-2.724-6.086-6.085l0,0
	c0-3.36,2.725-6.086,6.086-6.086h70.878C149.99,138.217,152.714,140.942,152.714,144.303L152.714,144.303z"/>
<g>
	<g>
		<polygon fill="#5E6CC9" points="50.775,138.217 29.708,173.02 35.727,173.02 71.414,138.217 		"/>
		<g>
			<path fill="#FF4A8C" d="M46.288,166.771H26.51c-3.502,0-6.342,2.84-6.342,6.343H52.63
				C52.63,169.61,49.791,166.771,46.288,166.771z"/>
			<path fill="#6979E0" d="M54.645,174.779c0,0.921-0.746,1.666-1.666,1.666h-33.16c-0.92,0-1.666-0.745-1.666-1.666l0,0
				c0-0.921,0.746-1.666,1.666-1.666h33.16C53.899,173.113,54.645,173.858,54.645,174.779L54.645,174.779z"/>
		</g>
	</g>
	<g>
		<polygon fill="#5E6CC9" points="171.604,138.217 192.673,173.02 186.652,173.02 150.966,138.217 		"/>
		<g>
			<path fill="#FF4A8C" d="M176.091,166.771h19.778c3.502,0,6.343,2.84,6.343,6.343h-32.463
				C169.749,169.61,172.589,166.771,176.091,166.771z"/>
			<path fill="#6979E0" d="M167.734,174.779c0,0.921,0.746,1.666,1.666,1.666h33.16c0.92,0,1.666-0.745,1.666-1.666l0,0
				c0-0.921-0.746-1.666-1.666-1.666H169.4C168.48,173.113,167.734,173.858,167.734,174.779L167.734,174.779z"/>
		</g>
	</g>
</g>
<path fill="#6979E0" d="M132.795,37.604c0,2.196-1.779,3.978-3.977,3.978H93.561c-2.196,0-3.978-1.781-3.978-3.978l0,0
	c0-2.196,1.781-3.977,3.978-3.977h35.257C131.016,33.626,132.795,35.406,132.795,37.604L132.795,37.604z"/>
<polygon fill="#5E6CC9" points="158.93,76.084 111.189,76.084 63.451,76.084 16.636,138.193 111.189,138.193 205.742,138.193 "/>
<polygon fill="#5E6CC9" points="133.038,40.207 111.189,40.207 89.342,40.207 67.917,76.813 111.189,76.813 154.463,76.813 "/>
<polygon fill="#6979E0" points="124.078,40.207 111.189,40.207 98.302,40.207 85.662,76.813 111.189,76.813 136.717,76.813 "/>
<polygon fill="#5E6CC9" points="116.158,40.207 111.189,40.207 106.222,40.207 101.35,76.813 111.189,76.813 121.029,76.813 "/>
<polygon fill="#6979E0" points="147.215,76.084 111.189,76.084 75.164,76.084 39.837,138.193 111.189,138.193 182.542,138.193 "/>
<polygon fill="#5E6CC9" points="135.591,76.084 111.189,76.084 86.788,76.084 62.859,138.193 111.189,138.193 159.52,138.193 "/>
<polygon fill="#6979E0" points="120.113,76.084 111.189,76.084 102.266,76.084 93.514,138.193 111.189,138.193 128.866,138.193 "/>
<path fill="#FF4A8C" d="M214.771,132.693c0,6.374-2.692,11.54-6.017,11.54H13.625c-3.323,0-6.016-5.166-6.016-11.54l0,0
	c0-6.371,2.693-11.539,6.016-11.539h195.13C212.078,121.154,214.771,126.322,214.771,132.693L214.771,132.693z"/>
<path fill="#FF4A8C" d="M166.742,76.685c0,1.955-1.585,3.539-3.54,3.539H59.177c-1.954,0-3.539-1.584-3.539-3.539l0,0
	c0-1.955,1.584-3.54,3.539-3.54h104.025C165.157,73.145,166.742,74.73,166.742,76.685L166.742,76.685z"/>
<path fill="#FF4A8C" d="M136.777,40.26c0,1.273-1.032,2.306-2.307,2.306H87.908c-1.274,0-2.306-1.031-2.306-2.306l0,0
	c0-1.273,1.032-2.306,2.306-2.306h46.564C135.745,37.955,136.777,38.987,136.777,40.26L136.777,40.26z"/>
<g>
	<g>
		<g>
			<circle fill="#FF4A8C" cx="61.049" cy="107.826" r="12.144"/>
			<circle fill="#C7E660" cx="61.049" cy="107.826" r="7.507"/>
		</g>
		<circle fill="#FFFFFF" cx="59.532" cy="106.517" r="2.984"/>
	</g>
	<g>
		<g>
			<circle fill="#FF4A8C" cx="94.476" cy="107.826" r="12.144"/>
			<circle fill="#C7E660" cx="94.476" cy="107.826" r="7.508"/>
		</g>
		<circle fill="#FFFFFF" cx="92.959" cy="106.517" r="2.983"/>
	</g>
	<g>
		<g>
			<circle fill="#FF4A8C" cx="127.904" cy="107.826" r="12.144"/>
			<circle fill="#C7E660" cx="127.902" cy="107.826" r="7.507"/>
		</g>
		<circle fill="#FFFFFF" cx="126.387" cy="106.517" r="2.983"/>
	</g>
	<g>
		<g>
			<circle fill="#FF4A8C" cx="161.331" cy="107.826" r="12.144"/>
			<circle fill="#C7E660" cx="161.33" cy="107.826" r="7.507"/>
		</g>
		<circle fill="#FFFFFF" cx="159.814" cy="106.517" r="2.983"/>
	</g>
</g>
<g>
	<g>
		<path fill="#FF4A8C" d="M132.791,58.168c0,4.197-3.4,7.6-7.6,7.6H97.187c-4.196,0-7.599-3.402-7.599-7.6v-2.22
			c0-4.197,3.403-7.601,7.599-7.601h28.004c4.197,0,7.6,3.403,7.6,7.601V58.168z"/>
		<path fill="#C7E660" d="M128.512,57.851c0,2.997-2.43,5.425-5.425,5.425H99.293c-2.997,0-5.425-2.429-5.425-5.425v-1.584
			c0-2.997,2.429-5.425,5.425-5.425h23.793c2.995,0,5.426,2.428,5.426,5.425V57.851L128.512,57.851z"/>
	</g>
	<path fill="#FFFFFF" d="M115.738,55.058c0,1.105-0.896,2.001-2.002,2.001H99.194c-1.105,0-2.001-0.896-2.001-2.001l0,0
		c0-1.104,0.896-2.001,2.001-2.001h14.542C114.843,53.056,115.738,53.953,115.738,55.058L115.738,55.058z"/>
</g>
<g>
	<circle fill="#C7E660" cx="16.717" cy="138.475" r="3.251"/>
	<circle fill="#C7E660" cx="32.462" cy="138.475" r="3.251"/>
	<circle fill="#C7E660" cx="48.208" cy="138.475" r="3.251"/>
	<circle fill="#C7E660" cx="63.953" cy="138.475" r="3.251"/>
	<circle fill="#C7E660" cx="79.699" cy="138.475" r="3.251"/>
	<circle fill="#C7E660" cx="95.444" cy="138.475" r="3.251"/>
	<circle fill="#C7E660" cx="111.189" cy="138.475" r="3.252"/>
	<circle fill="#C7E660" cx="126.936" cy="138.475" r="3.251"/>
	<circle fill="#C7E660" cx="142.682" cy="138.475" r="3.252"/>
	<circle fill="#C7E660" cx="158.426" cy="138.475" r="3.251"/>
	<circle fill="#C7E660" cx="174.172" cy="138.475" r="3.251"/>
	<circle fill="#C7E660" cx="189.917" cy="138.475" r="3.251"/>
	<circle fill="#C7E660" cx="205.663" cy="138.475" r="3.251"/>
</g>
<g>
	<circle fill="#FFA6C6" cx="62.106" cy="76.685" r="1.71"/>
	<circle fill="#FFA6C6" cx="71.922" cy="76.685" r="1.71"/>
	<circle fill="#FFA6C6" cx="81.74" cy="76.685" r="1.71"/>
	<circle fill="#FFA6C6" cx="91.556" cy="76.685" r="1.71"/>
	<circle fill="#FFA6C6" cx="101.373" cy="76.685" r="1.71"/>
	<circle fill="#FFA6C6" cx="111.189" cy="76.685" r="1.71"/>
	<circle fill="#FFA6C6" cx="121.006" cy="76.685" r="1.71"/>
	<circle fill="#FFA6C6" cx="130.823" cy="76.685" r="1.71"/>
	<circle fill="#FFA6C6" cx="140.641" cy="76.685" r="1.71"/>
	<circle fill="#FFA6C6" cx="150.457" cy="76.685" r="1.71"/>
	<circle fill="#FFA6C6" cx="160.273" cy="76.685" r="1.71"/>
</g>
<g>
	<circle fill="#FFA6C6" cx="89.544" cy="40.229" r="1.076"/>
	<circle fill="#FFA6C6" cx="96.759" cy="40.229" r="1.076"/>
	<circle fill="#FFA6C6" cx="103.975" cy="40.229" r="1.076"/>
	<circle fill="#FFA6C6" cx="111.189" cy="40.229" r="1.075"/>
	<circle fill="#FFA6C6" cx="118.404" cy="40.229" r="1.076"/>
	<circle fill="#FFA6C6" cx="125.621" cy="40.292" r="1.076"/>
	<circle fill="#FFA6C6" cx="132.835" cy="40.292" r="1.076"/>
</g>
<path fill="#6979E0" d="M117.329,14.385c0,0.955-0.774,1.73-1.729,1.73h-8.818c-0.956,0-1.73-0.775-1.73-1.73l0,0
	c0-0.956,0.774-1.731,1.73-1.731h8.818C116.555,12.654,117.329,13.429,117.329,14.385L117.329,14.385z"/>
<g>
	<g>
		<path fill="#5E6CC9" d="M124.816,9.433c0,2.646-2.146,4.793-4.795,4.793h-17.667c-2.647,0-4.794-2.146-4.794-4.793v-1.4
			c0-2.648,2.147-4.796,4.794-4.796h17.667c2.648,0,4.795,2.147,4.795,4.796V9.433z"/>
		<path fill="#C7E660" d="M122.117,9.232c0,1.892-1.532,3.422-3.424,3.422h-15.009c-1.89,0-3.423-1.531-3.423-3.422v-1
			c0-1.89,1.533-3.423,3.423-3.423h15.009c1.892,0,3.424,1.533,3.424,3.423V9.232z"/>
	</g>
	<path fill="#FFFFFF" d="M114.061,7.47c0,0.698-0.565,1.262-1.264,1.262h-9.175c-0.697,0-1.263-0.563-1.263-1.262l0,0
		c0-0.697,0.566-1.262,1.263-1.262h9.175C113.494,6.208,114.061,6.773,114.061,7.47L114.061,7.47z"/>
</g>
<path opacity="0.16" fill="#FFFFFF" enable-background="new    " d="M111.189,3.237h-8.833c-2.647,0-4.794,2.147-4.794,4.796v1.4
	c0,2.646,2.147,4.793,4.794,4.793h2.71c-0.004,0.053-0.016,0.104-0.016,0.159c0,0.955,0.774,1.73,1.73,1.73h3.002l-1.48,11.479
	h-4.66c-3.297,0-5.971,2.673-5.971,5.971c0,0.021,0.003,0.04,0.003,0.062h-4.113c-2.196,0-3.978,1.78-3.978,3.977
	c0,0.12,0.026,0.234,0.036,0.352h-1.712c-1.274,0-2.306,1.031-2.306,2.306s1.032,2.306,2.306,2.306h0.054L70.064,73.145H59.177
	c-1.954,0-3.539,1.585-3.539,3.54s1.584,3.539,3.539,3.539h1.154l-39.178,51.979h-7.529c-3.323,0-6.016,2.693-6.016,6.016
	s2.693,6.017,6.016,6.017h56.044c0,0.022-0.003,0.047-0.003,0.069c0,3.361,2.725,6.085,6.086,6.085h2.273
	c0.275,4.546,15.013,8.21,33.166,8.21l0,0V3.237z"/>
<path fill="#FF4A8C" d="M214.771,133.027c0,7.214-2.692,13.061-6.017,13.061H13.625c-3.323,0-6.016-5.847-6.016-13.061l0,0
	c0-7.209,2.693-13.058,6.016-13.058h195.13C212.078,119.97,214.771,125.818,214.771,133.027L214.771,133.027z"/>
<g enable-background="new    ">
	<path fill="#FFFFFF" d="M36.039,139.467h-3.367l-0.497,3.835h-4.808l3.864-21.568h6.377l3.915,21.568h-5.038L36.039,139.467z
		 M34.445,125.081h-0.051l-1.224,10.563h2.397L34.445,125.081z"/>
	<path fill="#FFFFFF" d="M42.857,127.604c0.017-2.097,0.62-3.668,1.808-4.712c1.153-1.01,2.653-1.514,4.5-1.514
		c1.864,0,3.373,0.505,4.526,1.515c1.18,1.045,1.778,2.617,1.795,4.717v2.002h-4.799v-2.443c0.017-0.414-0.039-0.837-0.168-1.269
		c-0.084-0.211-0.229-0.392-0.434-0.541c-0.215-0.106-0.522-0.159-0.923-0.159c-0.7,0.018-1.138,0.251-1.315,0.7
		c-0.148,0.432-0.213,0.854-0.196,1.269v10.687c0,0.149,0.009,0.321,0.028,0.515c0.037,0.221,0.093,0.445,0.167,0.674
		c0.177,0.511,0.615,0.775,1.315,0.793c0.401,0,0.708-0.084,0.923-0.251c0.205-0.141,0.35-0.321,0.434-0.542
		c0.129-0.484,0.185-0.88,0.168-1.188v-3.157h4.799v2.728c-0.096,4.059-2.203,6.136-6.322,6.232
		c-4.136-0.096-6.239-2.171-6.308-6.226V127.604z"/>
	<path fill="#FFFFFF" d="M57.874,127.604c0.017-2.097,0.62-3.668,1.808-4.712c1.153-1.01,2.653-1.514,4.5-1.514
		c1.864,0,3.373,0.505,4.526,1.515c1.18,1.045,1.778,2.617,1.795,4.717v2.002h-4.799v-2.443c0.017-0.414-0.039-0.837-0.168-1.269
		c-0.084-0.211-0.229-0.392-0.434-0.541c-0.215-0.106-0.522-0.159-0.923-0.159c-0.7,0.018-1.138,0.251-1.315,0.7
		c-0.148,0.432-0.213,0.854-0.196,1.269v10.687c0,0.149,0.009,0.321,0.028,0.515c0.037,0.221,0.093,0.445,0.167,0.674
		c0.177,0.511,0.615,0.775,1.315,0.793c0.401,0,0.708-0.084,0.923-0.251c0.205-0.141,0.35-0.321,0.434-0.542
		c0.129-0.484,0.185-0.88,0.168-1.188v-3.157h4.799v2.728c-0.096,4.059-2.203,6.136-6.322,6.232
		c-4.136-0.096-6.239-2.171-6.308-6.226V127.604z"/>
	<path fill="#FFFFFF" d="M72.89,127.604c0.017-2.097,0.62-3.668,1.808-4.712c1.153-1.01,2.653-1.514,4.5-1.514
		c1.864,0,3.373,0.505,4.526,1.516c1.18,1.046,1.778,2.619,1.795,4.72v9.809c-0.096,4.061-2.203,6.139-6.322,6.235
		c-4.136-0.096-6.239-2.171-6.308-6.226V127.604z M80.721,127.168c0.017-0.414-0.039-0.837-0.168-1.269
		c-0.084-0.211-0.229-0.392-0.434-0.541c-0.215-0.106-0.522-0.159-0.923-0.159c-0.7,0.018-1.138,0.251-1.315,0.7
		c-0.148,0.432-0.213,0.854-0.196,1.269v10.687c0,0.149,0.009,0.321,0.028,0.515c0.037,0.221,0.093,0.445,0.167,0.674
		c0.177,0.511,0.615,0.775,1.315,0.793c0.401,0,0.708-0.084,0.923-0.251c0.205-0.141,0.35-0.321,0.434-0.542
		c0.129-0.484,0.185-0.881,0.168-1.188V127.168z"/>
	<path fill="#FFFFFF" d="M88.038,121.734h7.349l1.506,10.696h0.063l1.531-10.696h7.477v21.568h-4.638v-16.771h-0.064l-2.828,16.771
		h-3.109l-2.598-16.771h-0.051v16.771h-4.638V121.734z"/>
	<path fill="#FFFFFF" d="M108.907,127.604c0.017-2.097,0.62-3.668,1.808-4.712c1.153-1.01,2.653-1.514,4.5-1.514
		c1.865,0,3.373,0.505,4.527,1.516c1.18,1.046,1.777,2.619,1.795,4.72v9.809c-0.096,4.061-2.203,6.139-6.322,6.235
		c-4.136-0.096-6.239-2.171-6.308-6.226V127.604z M116.738,127.168c0.018-0.414-0.039-0.837-0.168-1.269
		c-0.084-0.211-0.229-0.392-0.434-0.541c-0.215-0.106-0.521-0.159-0.923-0.159c-0.7,0.018-1.138,0.251-1.315,0.7
		c-0.147,0.432-0.213,0.854-0.195,1.269v10.687c0,0.149,0.01,0.321,0.028,0.515c0.037,0.221,0.093,0.445,0.167,0.674
		c0.178,0.511,0.615,0.775,1.315,0.793c0.401,0,0.708-0.084,0.923-0.251c0.205-0.141,0.35-0.321,0.434-0.542
		c0.129-0.484,0.186-0.881,0.168-1.188V127.168z"/>
	<path fill="#FFFFFF" d="M123.924,121.734h7.297c2.063,0.018,3.485,0.559,4.266,1.621c0.729,1.055,1.084,2.439,1.066,4.153v10.257
		c-0.035,1.942-0.594,3.357-1.678,4.245c-1.066,0.861-2.285,1.292-3.654,1.292h-7.297V121.734z M128.719,139.638h0.826
		c1.454,0.026,2.19-0.585,2.209-1.834v-10.559c-0.019-1.232-0.755-1.848-2.209-1.848h-0.826V139.638z"/>
	<path fill="#FFFFFF" d="M146.729,139.467h-3.367l-0.497,3.835h-4.809l3.864-21.568h6.377l3.916,21.568h-5.038L146.729,139.467z
		 M145.134,125.081h-0.051l-1.224,10.563h2.397L145.134,125.081z"/>
	<path fill="#FFFFFF" d="M152.231,121.734h11.021v4.139h-3.117v17.43h-4.797v-17.43h-3.107V121.734z"/>
	<path fill="#FFFFFF" d="M165.148,121.734h4.796v21.568h-4.796V121.734z"/>
	<path fill="#FFFFFF" d="M172.492,127.604c0.017-2.097,0.619-3.668,1.808-4.712c1.153-1.01,2.653-1.514,4.501-1.514
		c1.864,0,3.373,0.505,4.526,1.516c1.179,1.046,1.777,2.619,1.795,4.72v9.809c-0.096,4.061-2.203,6.139-6.321,6.235
		c-4.137-0.096-6.239-2.171-6.309-6.226V127.604z M180.323,127.168c0.018-0.414-0.039-0.837-0.168-1.269
		c-0.084-0.211-0.229-0.392-0.434-0.541c-0.215-0.106-0.522-0.159-0.923-0.159c-0.699,0.018-1.138,0.251-1.314,0.7
		c-0.148,0.432-0.214,0.854-0.196,1.269v10.687c0,0.149,0.01,0.321,0.028,0.515c0.037,0.221,0.093,0.445,0.168,0.674
		c0.177,0.511,0.615,0.775,1.314,0.793c0.4,0,0.708-0.084,0.923-0.251c0.205-0.141,0.35-0.321,0.434-0.542
		c0.129-0.484,0.186-0.881,0.168-1.188V127.168z"/>
	<path fill="#FFFFFF" d="M187.521,121.734h5.432l3.995,12.712H197v-12.712h4.641v21.568h-5.394l-4.022-13.346h-0.065v13.346h-4.639
		V121.734z"/>
</g>
</svg>
