<?xml version="1.0" encoding="utf-8"?><!DOCTYPE svg PUBLIC "-//W3C//DTD SVG 1.1//EN" "http://www.w3.org/Graphics/SVG/1.1/DTD/svg11.dtd"><svg version="1.1" id="Layer_1" xmlns="http://www.w3.org/2000/svg" xmlns:xlink="http://www.w3.org/1999/xlink" x="0px" y="0px" width="595.281px" height="420.941px" viewBox="0 0 595.281 420.941" enable-background="new 0 0 595.281 420.941" xml:space="preserve"><g><g id="Main_A"><path fill="#29ABE2" d="M207.684,225.83l14.56-30.688L297.05,48.708l66.292,130.245h-117.58l-11.874,23.195l-12.09,23.682H207.684z M237.473,225.83l18.142-34.314h114.224l18.363,34.314h-16.127L362,205.772h-15.902l10.302,20.058h-15.229l-10.078-20.058l-67.639-0.243l-10.528,20.301H237.473z M253.152,164.691h15.676l28.221-53.641l27.996,53.641h15.901L297.049,78.67L253.152,164.691z M309.814,164.691l-12.766-24.645l-12.993,24.406L309.814,164.691z"/></g><g><g><path fill="#29ABE2" d="M165.767,303.677h-27.17l-8.234,17.564h-15.367l30.324-64.221l6.314-13.309l6.449,13.172l31.699,64.357h-15.367L165.767,303.677z M144.908,290.505h14.271l-7.272-14.959L144.908,290.505z M151.907,275.546l-6.999,14.959L151.907,275.546z"/><path fill="#29ABE2" d="M189.779,243.988h58.59l-7.817,13.996h-19.349v63.258h-13.999v-63.258h-24.486L189.779,243.988z M189.779,243.988l-7.06,13.996L189.779,243.988z"/><path fill="#29ABE2" d="M240.552,321.242l21.818-61.611l5.625-15.918l7.274,15.097l16.327,33.894l16.466-33.894l7.273-15.097l5.629,15.918l21.817,61.611H327.96l-14.685-41.166l-21.681,41.166l-21.679-41.166l-14.547,41.166H240.552L240.552,321.242z M240.552,321.242h14.819H240.552z"/><path fill="#29ABE2" d="M415.783,253.455c7.547,7.549,11.938,17.428,11.938,28.816c0,11.391-4.393,21.27-11.938,28.816c-7.547,7.549-17.43,11.938-28.818,11.938s-21.269-4.389-28.815-11.938c-7.546-7.547-11.937-17.426-11.937-28.816c0-11.389,4.391-21.268,11.937-28.816c7.548-7.547,17.427-11.938,28.815-11.938C398.354,241.516,408.236,245.908,415.783,253.455z M386.964,255.514c-7.271,0-13.856,3.021-18.799,7.957c-4.938,4.94-7.961,11.526-7.961,18.801c0,7.549,3.022,13.996,7.961,18.938c4.803,4.803,11.527,7.82,18.799,7.82c7.55,0,13.998-2.883,18.938-7.82c4.938-4.941,7.822-11.39,7.822-18.938c0-7.272-3.021-13.998-7.822-18.801C400.962,258.533,394.514,255.514,386.964,255.514z"/><path fill="#29ABE2" d="M466.281,262.783c-0.963-1.643-2.332-2.742-3.98-3.701c-2.193-0.961-4.254-1.373-6.311-1.098c-1.785,0.273-3.295,1.098-4.529,2.33c-1.232,1.236-1.922,2.746-2.059,4.529c-0.139,1.236,0,2.473,0.549,3.43c0.414,0.961,1.234,2.059,2.473,3.158c0.959,0.688,2.057,1.234,3.02,1.646c1.506,0.551,2.742,0.959,4.25,1.37c1.922,0.55,3.842,0.964,5.762,1.787c2.201,0.82,4.395,2.058,6.453,3.841c3.154,2.469,5.49,5.354,6.998,8.78c1.646,3.705,2.195,7.138,1.92,10.843c-0.547,5.354-2.605,10.018-6.311,13.996c-3.434,3.701-8.096,6.176-13.723,6.861c-4.943,0.686-10.291,0-15.098-2.336c-4.389-2.059-8.506-5.486-10.975-10.289c-0.824-1.512-1.234-2.607-1.785-4.119c-0.41-1.234-0.688-2.742-0.961-4.525l13.857-1.923c0.139,0.962,0.414,1.646,0.551,2.058c0.141,0.414,0.277,1.1,0.688,1.787c1.234,2.057,2.74,3.568,4.664,4.387c2.334,1.102,4.938,1.514,7.275,1.102c2.193-0.412,3.84-1.236,5.354-2.744c1.369-1.375,2.191-3.156,2.465-5.352c0-1.51-0.135-2.746-0.686-3.979c-0.551-1.234-1.371-2.609-3.02-3.57c-0.822-0.961-1.92-1.371-2.881-1.783c-1.508-0.551-2.744-0.959-4.252-1.371c-2.061-0.412-3.98-1.098-5.764-1.783c-2.334-0.826-4.395-2.195-6.59-3.844c-3.018-2.471-4.938-5.076-6.447-8.234c-1.512-3.432-2.195-6.859-1.922-10.291c0.41-4.801,2.604-9.467,6.039-13.172c3.293-3.293,7.545-5.764,12.896-6.449c4.805-0.686,9.744,0.137,14.133,2.195c4.256,2.055,7.686,5.213,10.291,9.74L466.281,262.783z M466.281,262.783l12.348-6.723L466.281,262.783z"/></g><g><path fill="#29ABE2" d="M165.767,303.677h-27.17l-8.234,17.564h-15.367l30.324-64.221l6.314-13.309l6.449,13.172l31.699,64.357h-15.367L165.767,303.677z M144.908,290.505h14.271l-7.272-14.959L144.908,290.505z M151.907,275.546l-6.999,14.959L151.907,275.546z"/><path fill="#29ABE2" d="M189.779,243.988h58.59l-7.817,13.996h-19.349v63.258h-13.999v-63.258h-24.486L189.779,243.988z M189.779,243.988l-7.06,13.996L189.779,243.988z"/><path fill="#29ABE2" d="M240.552,321.242l21.818-61.611l5.625-15.918l7.274,15.097l16.327,33.894l16.466-33.894l7.273-15.097l5.629,15.918l21.817,61.611H327.96l-14.685-41.166l-21.681,41.166l-21.679-41.166l-14.547,41.166H240.552L240.552,321.242z M240.552,321.242h14.819H240.552z"/><path fill="#29ABE2" d="M415.783,253.455c7.547,7.549,11.938,17.428,11.938,28.816c0,11.391-4.393,21.27-11.938,28.816c-7.547,7.549-17.43,11.938-28.818,11.938s-21.269-4.389-28.815-11.938c-7.546-7.547-11.937-17.426-11.937-28.816c0-11.389,4.391-21.268,11.937-28.816c7.548-7.547,17.427-11.938,28.815-11.938C398.354,241.516,408.236,245.908,415.783,253.455z M386.964,255.514c-7.271,0-13.856,3.021-18.799,7.957c-4.938,4.94-7.961,11.526-7.961,18.801c0,7.549,3.022,13.996,7.961,18.938c4.803,4.803,11.527,7.82,18.799,7.82c7.55,0,13.998-2.883,18.938-7.82c4.938-4.941,7.822-11.39,7.822-18.938c0-7.272-3.021-13.998-7.822-18.801C400.962,258.533,394.514,255.514,386.964,255.514z"/><path fill="#29ABE2" d="M466.281,262.783c-0.963-1.643-2.332-2.742-3.98-3.701c-2.193-0.961-4.254-1.373-6.311-1.098c-1.785,0.273-3.295,1.098-4.529,2.33c-1.232,1.236-1.922,2.746-2.059,4.529c-0.139,1.236,0,2.473,0.549,3.43c0.414,0.961,1.234,2.059,2.473,3.158c0.959,0.688,2.057,1.234,3.02,1.646c1.506,0.551,2.742,0.959,4.25,1.37c1.922,0.55,3.842,0.964,5.762,1.787c2.201,0.82,4.395,2.058,6.453,3.841c3.154,2.469,5.49,5.354,6.998,8.78c1.646,3.705,2.195,7.138,1.92,10.843c-0.547,5.354-2.605,10.018-6.311,13.996c-3.434,3.701-8.096,6.176-13.723,6.861c-4.943,0.686-10.291,0-15.098-2.336c-4.389-2.059-8.506-5.486-10.975-10.289c-0.824-1.512-1.234-2.607-1.785-4.119c-0.41-1.234-0.688-2.742-0.961-4.525l13.857-1.923c0.139,0.962,0.414,1.646,0.551,2.058c0.141,0.414,0.277,1.1,0.688,1.787c1.234,2.057,2.74,3.568,4.664,4.387c2.334,1.102,4.938,1.514,7.275,1.102c2.193-0.412,3.84-1.236,5.354-2.744c1.369-1.375,2.191-3.156,2.465-5.352c0-1.51-0.135-2.746-0.686-3.979c-0.551-1.234-1.371-2.609-3.02-3.57c-0.822-0.961-1.92-1.371-2.881-1.783c-1.508-0.551-2.744-0.959-4.252-1.371c-2.061-0.412-3.98-1.098-5.764-1.783c-2.334-0.826-4.395-2.195-6.59-3.844c-3.018-2.471-4.938-5.076-6.447-8.234c-1.512-3.432-2.195-6.859-1.922-10.291c0.41-4.801,2.604-9.467,6.039-13.172c3.293-3.293,7.545-5.764,12.896-6.449c4.805-0.686,9.744,0.137,14.133,2.195c4.256,2.055,7.686,5.213,10.291,9.74L466.281,262.783z M466.281,262.783l12.348-6.723L466.281,262.783z"/></g></g></g></svg>