<?xml version="1.0" encoding="utf-8"?>
<!-- Generator: Adobe Illustrator 16.0.0, SVG Export Plug-In . SVG Version: 6.00 Build 0)  -->
<!DOCTYPE svg PUBLIC "-//W3C//DTD SVG 1.1//EN" "http://www.w3.org/Graphics/SVG/1.1/DTD/svg11.dtd">
<svg version="1.1" id="Layer_1" xmlns="http://www.w3.org/2000/svg" xmlns:xlink="http://www.w3.org/1999/xlink" x="0px" y="0px"
	 width="428.456px" height="171.48px" viewBox="0 0 428.456 171.48" enable-background="new 0 0 428.456 171.48"
	 xml:space="preserve">
<path fill="#F6CB51" d="M32.407,75.413c22.137,42.089,136.602,130.39,282.503,64.217"/>
<path fill="#13A89E" d="M123.026,45.255C116.029,44.601,14.45,34.76,7.358,54.93c-28.049,57.09,292.716,157.82,322.871,86.371
	c4.149-21.681-102.542-65.156-102.542-65.156"/>
<path fill="#3F4953" stroke="#F2E7DA" stroke-width="5.2508" stroke-miterlimit="10" d="M280.327,99.14
	c-4.692,17.279-55.92,18.42-114.421,2.546C107.407,85.812,63.782,58.932,68.473,41.65c4.689-17.282,60.003-33.489,118.505-17.612
	C245.479,39.912,285.014,81.856,280.327,99.14z"/>
<path fill="#13A89E" stroke="#F2E7DA" stroke-width="3.9381" stroke-miterlimit="10" d="M240.617,54.998
	c-3.082,11.345-30.796,13.702-61.905,5.26c-31.106-8.441-53.829-24.483-50.75-35.832c3.08-11.348,33.478-23.595,64.586-15.154
	C223.656,17.713,243.693,43.647,240.617,54.998z"/>
<path fill="#F2E7DA" d="M132.293,78.878c-29.125-2.99,101.329,38.692,138.575,20.184C290.654,82.033,161.797,81.906,132.293,78.878z
	"/>
<g>
	<g>
		<path fill="none" stroke="#F2E7DA" stroke-width="2.6254" stroke-miterlimit="10" d="M16.565,48.424
			c-0.443,0.78-0.804,1.575-1.084,2.384"/>
		<path fill="none" stroke="#F2E7DA" stroke-width="2.6254" stroke-miterlimit="10" stroke-dasharray="5.1969,5.1969" d="
			M14.741,55.919c1.932,46.224,221.475,126.042,310.751,87.596"/>
		<path fill="none" stroke="#F2E7DA" stroke-width="2.6254" stroke-miterlimit="10" d="M327.87,142.449
			c0.798-0.373,1.584-0.756,2.36-1.148"/>
	</g>
</g>
<g>
	<path fill="#BDCCD4" d="M375.257,87.494c0.423-0.979,1.299-1.647,2.353-1.924l2.047-4.754l5.016,2.159l-1.934,4.488
		c0.747,1.047,0.979,2.331,0.49,3.464c-0.487,1.131-1.578,1.846-2.854,2.024l-3.149,7.314l-5.014-2.159l3.264-7.582
		C374.952,89.568,374.835,88.475,375.257,87.494z"/>
	<path fill="#BDCCD4" d="M367.997,100.167c5.401,2.327,2.688,1.156,10.629,4.576c1.264-2.935-0.093-6.338-3.027-7.601
		C372.663,95.878,369.26,97.231,367.997,100.167z"/>
	<path fill="#BDCCD4" d="M377.413,58.399c1.837-0.848,3.678-0.903,5.626-0.167l1.925-5.107c-3.345-1.262-6.659-1.153-9.853,0.324
		c-7.064,3.27-11.325,12.536-12.566,15.586c-2.96-0.311-5.802,1.106-6.93,3.728c-0.022,0.05-0.035,0.103-0.055,0.15l3.543,1.525
		c0.018-0.05,0.027-0.101,0.05-0.152c0.583-1.354,2.457-1.854,4.178-1.113c1.722,0.741,2.646,2.446,2.063,3.799
		c-0.023,0.051-0.053,0.095-0.077,0.143l3.542,1.525c0.022-0.047,0.05-0.094,0.073-0.144c1.027-2.386,0.354-5.115-1.477-7.047
		C368.683,68.252,372.439,60.693,377.413,58.399z"/>
	<path fill="#BDCCD4" d="M398.514,97.51c0.424-0.981,0.305-2.077-0.218-3.033l2.047-4.753l-5.014-2.16l-1.933,4.489
		c-1.274,0.177-2.367,0.891-2.854,2.024c-0.486,1.131-0.258,2.417,0.49,3.464l-3.149,7.315l5.014,2.157l3.264-7.581
		C397.216,99.156,398.092,98.489,398.514,97.51z"/>
	<path fill="#BDCCD4" d="M394.297,111.491c-5.403-2.326-2.687-1.157-10.63-4.576c1.265-2.935,4.669-4.289,7.605-3.025
		C394.206,105.152,395.562,108.555,394.297,111.491z"/>
	<path fill="#BDCCD4" d="M418.173,75.951c-0.647-1.919-1.872-3.292-3.745-4.204l2.387-4.909c3.217,1.564,5.414,4.049,6.535,7.382
		c2.479,7.38-1.327,16.842-2.687,19.839c2.259,1.937,3.181,4.974,2.051,7.595c-0.021,0.05-0.049,0.096-0.071,0.145l-3.542-1.527
		c0.023-0.046,0.055-0.09,0.078-0.14c0.582-1.355-0.343-3.06-2.065-3.801c-1.721-0.743-3.594-0.243-4.178,1.111
		c-0.023,0.051-0.033,0.104-0.049,0.154l-3.542-1.525c0.019-0.048,0.032-0.1,0.054-0.151c1.028-2.384,3.473-3.771,6.135-3.769
		C417.013,89.063,419.923,81.141,418.173,75.951z"/>
	<path fill="#BDCCD4" d="M411.221,46.565l-3.839-1.656l-3.842-1.65c-4.152-1.79-8.966,0.127-10.755,4.279l-1.859,4.323l11.357,4.891
		l11.357,4.889l1.861-4.321C417.288,53.167,415.372,48.354,411.221,46.565z"/>
	<path fill="#BDCCD4" d="M413.959,61.114l-11.437-4.924l-11.437-4.924c-3.055-1.315-6.6,0.095-7.917,3.151l-7.962,18.491
		c-1.316,3.058,0.094,6.601,3.151,7.917l11.436,4.925l11.435,4.922c3.058,1.318,6.601-0.093,7.918-3.151l7.962-18.491
		C418.426,65.974,417.015,62.431,413.959,61.114z"/>
	<path fill="#F2E7DA" d="M406.442,64.497l-6.323-2.724l-6.324-2.722c-1.9-0.819-4.107,0.059-4.926,1.961l-4.954,11.504
		c-0.819,1.901,0.06,4.109,1.959,4.927l6.325,2.722l6.322,2.724c1.9,0.818,4.106-0.061,4.925-1.963l4.954-11.504
		C409.219,67.521,408.342,65.315,406.442,64.497z"/>
</g>
<path fill="none" stroke="#3F4953" stroke-width="2.6967" stroke-miterlimit="10" d="M257.766,71.568
	c26.802-9.746,62.131,42.636,101.114,24.365c10.964-3.655,11.657-16.321,17.799-18.92"/>
<path fill="#F6CB51" d="M32.407,75.413c22.137,42.089,136.602,130.39,282.503,64.217"/>
<path fill="#D4145A" d="M123.026,45.255C116.029,44.601,14.45,34.76,7.358,54.93c-28.049,57.09,292.716,157.82,322.871,86.371
	c4.149-21.681-102.542-65.156-102.542-65.156"/>
<path fill="#3F4953" stroke="#F2E7DA" stroke-width="5.2508" stroke-miterlimit="10" d="M280.327,99.14
	c-4.692,17.279-55.92,18.42-114.421,2.546C107.407,85.812,63.782,58.932,68.473,41.65c4.689-17.282,60.003-33.489,118.505-17.612
	C245.479,39.912,285.014,81.856,280.327,99.14z"/>
<path fill="#D4145A" stroke="#F2E7DA" stroke-width="3.9381" stroke-miterlimit="10" d="M240.617,54.998
	c-3.082,11.345-30.796,13.702-61.905,5.26c-31.106-8.441-53.829-24.483-50.75-35.832c3.08-11.348,33.478-23.595,64.586-15.154
	C223.656,17.713,243.693,43.647,240.617,54.998z"/>
<path fill="#F2E7DA" d="M132.293,78.878c-29.125-2.99,101.329,38.692,138.575,20.184C290.654,82.033,161.797,81.906,132.293,78.878z
	"/>
<g>
	<g>
		<path fill="none" stroke="#F2E7DA" stroke-width="2.6254" stroke-miterlimit="10" d="M16.565,48.424
			c-0.443,0.78-0.804,1.575-1.084,2.384"/>
		<path fill="none" stroke="#F2E7DA" stroke-width="2.6254" stroke-miterlimit="10" stroke-dasharray="5.1969,5.1969" d="
			M14.741,55.919c1.932,46.224,221.475,126.042,310.751,87.596"/>
		<path fill="none" stroke="#F2E7DA" stroke-width="2.6254" stroke-miterlimit="10" d="M327.87,142.449
			c0.798-0.373,1.584-0.756,2.36-1.148"/>
	</g>
</g>
<g>
	<path fill="#FFFFFF" d="M56.684,72.036l0.723-1.075c0.482-0.717,0.731-1.336,0.746-1.858c0.014-0.521-0.165-0.908-0.538-1.159
		c-0.603-0.427-1.109-0.551-1.522-0.374c-0.413,0.178-0.805,0.543-1.176,1.096l-5.615,8.295c-0.322,0.478-0.466,0.918-0.433,1.32
		c0.033,0.402,0.311,0.779,0.833,1.13c0.329,0.221,0.643,0.319,0.942,0.292s0.582-0.124,0.848-0.292
		c0.265-0.168,0.504-0.387,0.718-0.656s0.405-0.53,0.577-0.784l1.025-1.523l3.942,2.653l-1.387,2.061
		c-0.482,0.717-1.036,1.305-1.659,1.764c-0.624,0.459-1.309,0.751-2.056,0.878c-0.747,0.126-1.563,0.065-2.448-0.183
		c-0.885-0.249-1.828-0.709-2.829-1.383c-0.911-0.613-1.603-1.253-2.077-1.918c-0.474-0.666-0.759-1.362-0.856-2.089
		c-0.097-0.727-0.015-1.485,0.246-2.275c0.26-0.79,0.677-1.611,1.25-2.462l4.643-6.899c1.236-1.837,2.575-2.899,4.017-3.188
		c1.441-0.288,3.065,0.175,4.873,1.392c0.836,0.563,1.523,1.161,2.063,1.795c0.539,0.634,0.909,1.301,1.111,2
		c0.202,0.7,0.217,1.443,0.047,2.228c-0.171,0.786-0.542,1.604-1.115,2.455l-0.95,1.411L56.684,72.036z"/>
	<path fill="#FFFFFF" d="M55.181,86.799l13.873-15.402l4.973,2.834l-6.201,19.773l-4.176-2.379l1.365-3.759l-3.237-1.845
		l-2.444,3.145L55.181,86.799z M69.722,76.004l-0.047-0.027l-5.688,7.201l2.393,1.363L69.722,76.004z"/>
	<path fill="#FFFFFF" d="M69.834,95.1l8.911-18.184l6.013,2.946l-3.057,11.822l0.048,0.024l7.542-9.624l5.964,2.923l-8.911,18.185
		l-4.073-1.996l7.422-14.043l-0.048-0.023l-9.993,12.783l-3.176-1.557l4.053-15.694l-0.048-0.024l-6.599,14.446L69.834,95.1z"/>
	<path fill="#FFFFFF" d="M89.409,104.503l8.03-18.589l5.18,2.238c0.413,0.178,0.86,0.391,1.342,0.638
		c0.481,0.248,0.944,0.526,1.389,0.835c0.444,0.31,0.841,0.663,1.19,1.058c0.349,0.396,0.597,0.832,0.745,1.307
		c0.262,0.8,0.321,1.571,0.178,2.313c-0.144,0.742-0.38,1.492-0.708,2.253c-0.214,0.495-0.467,0.989-0.758,1.481
		c-0.291,0.491-0.631,0.928-1.021,1.309c-0.39,0.381-0.824,0.693-1.302,0.938c-0.478,0.245-1.015,0.375-1.61,0.393
		c-0.459,0.018-0.909-0.02-1.349-0.112c-0.441-0.092-0.873-0.215-1.297-0.368c-0.424-0.154-0.845-0.326-1.262-0.517
		c-0.418-0.189-0.837-0.366-1.257-0.528l-3.126,7.238L89.409,104.503z M98.344,95.805c0.419,0.162,0.851,0.333,1.292,0.514
		c0.441,0.182,0.896,0.206,1.365,0.075c0.338-0.148,0.613-0.377,0.826-0.687c0.212-0.311,0.39-0.631,0.533-0.962
		c0.079-0.182,0.156-0.383,0.232-0.605c0.076-0.222,0.128-0.444,0.156-0.668c0.028-0.223,0.025-0.445-0.007-0.665
		c-0.033-0.22-0.122-0.41-0.268-0.572c-0.179-0.175-0.412-0.33-0.697-0.463c-0.286-0.133-0.602-0.274-0.949-0.424l-0.471-0.204
		L98.344,95.805z"/>
	<path fill="#FFFFFF" d="M110.703,91.602l4.424,1.735l-5.581,14.225c-0.092,0.236-0.156,0.461-0.193,0.68
		c-0.037,0.217-0.031,0.422,0.019,0.615s0.157,0.377,0.322,0.547c0.165,0.172,0.406,0.318,0.725,0.443
		c0.285,0.113,0.544,0.152,0.78,0.119c0.235-0.033,0.446-0.115,0.633-0.246c0.186-0.129,0.347-0.293,0.483-0.492
		c0.136-0.197,0.243-0.396,0.322-0.598l5.531-14.101l4.424,1.736l-5.354,13.648c-0.316,0.803-0.705,1.512-1.167,2.123
		c-0.463,0.611-1.027,1.076-1.693,1.395c-0.667,0.318-1.439,0.477-2.316,0.469c-0.878-0.006-1.878-0.229-3-0.668
		c-1.877-0.736-3.156-1.766-3.836-3.086c-0.681-1.32-0.64-2.953,0.123-4.896L110.703,91.602z"/>
	<path fill="#FFFFFF" d="M122.979,110.732l-0.484,1.346c-0.098,0.271-0.165,0.539-0.203,0.803s-0.024,0.518,0.042,0.76
		c0.065,0.244,0.192,0.463,0.382,0.654c0.189,0.193,0.461,0.354,0.817,0.48c0.525,0.189,0.976,0.131,1.354-0.172
		c0.377-0.305,0.654-0.703,0.831-1.193c0.146-0.406,0.195-0.781,0.146-1.125c-0.049-0.342-0.152-0.666-0.31-0.973
		c-0.158-0.305-0.355-0.596-0.59-0.871c-0.236-0.275-0.464-0.559-0.685-0.85c-0.555-0.639-1.045-1.256-1.473-1.85
		s-0.764-1.211-1.011-1.855c-0.23-0.637-0.351-1.297-0.363-1.98c-0.012-0.684,0.134-1.449,0.439-2.296
		c0.646-1.795,1.631-2.967,2.957-3.513c1.325-0.547,2.86-0.507,4.605,0.121c0.965,0.348,1.762,0.807,2.389,1.376
		c0.627,0.57,1.079,1.216,1.355,1.937c0.276,0.721,0.389,1.499,0.338,2.33c-0.051,0.833-0.264,1.689-0.637,2.568l-4.116-1.48
		c0.08-0.277,0.168-0.574,0.264-0.894c0.096-0.318,0.15-0.629,0.163-0.932c0.013-0.3-0.046-0.576-0.177-0.824
		c-0.131-0.248-0.377-0.456-0.737-0.624c-0.445-0.198-0.84-0.23-1.185-0.096c-0.345,0.134-0.619,0.404-0.822,0.809
		c-0.275,0.551-0.342,1.042-0.202,1.476c0.141,0.433,0.376,0.88,0.707,1.345c0.652,0.846,1.261,1.586,1.827,2.221
		c0.565,0.633,1.022,1.291,1.371,1.971c0.348,0.68,0.542,1.414,0.584,2.205c0.041,0.789-0.148,1.768-0.569,2.938
		c-0.665,1.846-1.663,3.078-2.996,3.699c-1.333,0.621-2.931,0.596-4.793-0.074c-1.017-0.367-1.846-0.813-2.488-1.34
		c-0.643-0.529-1.121-1.102-1.433-1.721c-0.313-0.619-0.476-1.258-0.489-1.912c-0.013-0.656,0.093-1.297,0.319-1.924l0.731-2.031
		L122.979,110.732z"/>
	<path fill="#FFFFFF" d="M135.292,122.228l10.324-17.975l5.458,1.725l-1.905,20.635l-4.583-1.449l0.544-3.961l-3.553-1.123
		l-1.729,3.588L135.292,122.228z M147.239,108.617l-0.051-0.016l-4.047,8.234l2.626,0.83L147.239,108.617z"/>
	<path fill="#FFFFFF" d="M150.492,127.039l5.465-19.498l6.447,1.807l-0.862,12.18l0.052,0.016l5.672-10.832l6.396,1.793
		l-5.465,19.498l-4.368-1.225l4.753-15.156l-0.052-0.014l-7.508,14.383l-3.406-0.955l1.139-16.168l-0.052-0.014l-3.869,15.402
		L150.492,127.039z"/>
	<path fill="#FFFFFF" d="M170.485,132.554l4.813-19.67l5.979,1.465c0.874,0.213,1.668,0.49,2.381,0.832
		c0.713,0.342,1.301,0.777,1.765,1.307c0.463,0.531,0.777,1.16,0.942,1.885c0.165,0.727,0.126,1.588-0.118,2.584
		c-0.214,0.875-0.58,1.633-1.099,2.275s-1.233,1.084-2.145,1.324l-0.013,0.051c0.452,0.426,0.807,0.828,1.067,1.207
		c0.259,0.379,0.437,0.77,0.533,1.172c0.096,0.404,0.123,0.842,0.082,1.313c-0.042,0.473-0.137,1.014-0.286,1.627
		c-0.488,1.992-1.375,3.309-2.662,3.949c-1.287,0.639-2.866,0.729-4.736,0.271L170.485,132.554z M175.968,130.144
		c0.581,0.123,1.079,0.227,1.495,0.311c0.415,0.082,0.776,0.082,1.083,0c0.307-0.082,0.564-0.279,0.77-0.59
		c0.206-0.311,0.39-0.799,0.552-1.463c0.142-0.576,0.169-1.033,0.085-1.369s-0.253-0.613-0.505-0.832
		c-0.252-0.219-0.576-0.391-0.972-0.516s-0.836-0.256-1.321-0.393L175.968,130.144z M178.021,121.751
		c0.516,0.09,0.96,0.166,1.334,0.229c0.374,0.064,0.699,0.057,0.979-0.023c0.279-0.08,0.517-0.258,0.714-0.535
		c0.197-0.275,0.366-0.703,0.507-1.279c0.12-0.488,0.132-0.881,0.037-1.172c-0.095-0.293-0.265-0.527-0.507-0.709
		c-0.244-0.18-0.543-0.316-0.899-0.414c-0.356-0.096-0.736-0.193-1.138-0.293L178.021,121.751z"/>
	<path fill="#FFFFFF" d="M184.004,135.859l8.573-18.871l5.597,1.199l0.059,20.723l-4.699-1.008l0.166-3.996l-3.643-0.781
		l-1.38,3.736L184.004,135.859z M194.606,121.177l-0.053-0.012l-3.248,8.582l2.693,0.578L194.606,121.177z"/>
	<path fill="#FFFFFF" d="M204.457,133.16l-0.258,1.408c-0.052,0.283-0.075,0.559-0.069,0.824c0.006,0.268,0.061,0.516,0.165,0.744
		c0.104,0.23,0.266,0.424,0.483,0.582c0.218,0.16,0.513,0.273,0.884,0.342c0.549,0.102,0.984-0.029,1.307-0.391
		s0.531-0.799,0.625-1.313c0.078-0.426,0.065-0.803-0.039-1.133s-0.259-0.633-0.464-0.91c-0.206-0.275-0.447-0.529-0.725-0.764
		s-0.548-0.477-0.813-0.727c-0.651-0.539-1.236-1.068-1.754-1.584c-0.519-0.516-0.952-1.072-1.3-1.666
		c-0.331-0.592-0.558-1.225-0.681-1.896s-0.104-1.451,0.059-2.336c0.345-1.877,1.126-3.193,2.345-3.947
		c1.218-0.756,2.739-0.967,4.563-0.631c1.009,0.186,1.87,0.508,2.581,0.969c0.711,0.459,1.262,1.023,1.652,1.689
		c0.39,0.666,0.627,1.414,0.713,2.244c0.085,0.83,0.016,1.711-0.21,2.639l-4.302-0.791c0.034-0.285,0.073-0.594,0.115-0.926
		c0.042-0.33,0.045-0.646,0.009-0.945c-0.037-0.299-0.14-0.561-0.309-0.785c-0.169-0.223-0.446-0.387-0.829-0.494
		c-0.471-0.123-0.866-0.092-1.185,0.098c-0.319,0.189-0.545,0.5-0.679,0.932c-0.182,0.59-0.168,1.086,0.042,1.49
		c0.209,0.404,0.515,0.809,0.917,1.213c0.781,0.729,1.502,1.359,2.164,1.893c0.661,0.533,1.219,1.107,1.674,1.721
		c0.454,0.615,0.766,1.309,0.936,2.08c0.169,0.773,0.142,1.77-0.083,2.992c-0.354,1.93-1.139,3.309-2.353,4.139
		c-1.214,0.828-2.794,1.064-4.742,0.707c-1.063-0.195-1.953-0.502-2.673-0.918s-1.285-0.904-1.694-1.463
		c-0.41-0.561-0.674-1.164-0.793-1.807c-0.12-0.645-0.12-1.295,0.001-1.949l0.391-2.125L204.457,133.16z"/>
	<path fill="#FFFFFF" d="M217.917,135.482l-0.215,1.416c-0.043,0.285-0.058,0.561-0.043,0.826s0.077,0.512,0.188,0.738
		s0.278,0.416,0.501,0.568s0.521,0.256,0.895,0.313c0.551,0.084,0.983-0.059,1.294-0.432c0.311-0.371,0.506-0.814,0.585-1.33
		c0.065-0.428,0.04-0.805-0.074-1.131c-0.114-0.328-0.278-0.625-0.492-0.895c-0.214-0.27-0.464-0.516-0.748-0.742
		c-0.285-0.225-0.563-0.459-0.836-0.701c-0.667-0.52-1.268-1.029-1.802-1.529c-0.534-0.5-0.984-1.041-1.351-1.625
		c-0.349-0.582-0.595-1.207-0.739-1.875s-0.148-1.447-0.013-2.336c0.287-1.887,1.027-3.227,2.222-4.02
		c1.195-0.791,2.708-1.049,4.542-0.77c1.014,0.154,1.884,0.449,2.61,0.889c0.725,0.438,1.293,0.984,1.703,1.639
		c0.41,0.652,0.671,1.395,0.782,2.221c0.11,0.828,0.068,1.709-0.129,2.643l-4.324-0.656c0.025-0.287,0.054-0.598,0.086-0.93
		s0.025-0.646-0.02-0.945c-0.046-0.299-0.157-0.557-0.333-0.773c-0.176-0.219-0.458-0.375-0.843-0.471
		c-0.475-0.107-0.869-0.064-1.181,0.135c-0.313,0.199-0.529,0.516-0.65,0.953c-0.164,0.594-0.134,1.09,0.087,1.488
		c0.222,0.396,0.54,0.791,0.954,1.182c0.803,0.705,1.543,1.314,2.221,1.826c0.677,0.514,1.253,1.07,1.726,1.67s0.806,1.283,1,2.049
		c0.193,0.768,0.196,1.766,0.009,2.992c-0.295,1.939-1.037,3.344-2.224,4.209c-1.188,0.867-2.76,1.15-4.718,0.854
		c-1.068-0.162-1.968-0.441-2.7-0.834c-0.732-0.393-1.312-0.863-1.738-1.412c-0.427-0.547-0.71-1.141-0.849-1.781
		c-0.14-0.639-0.159-1.289-0.059-1.947l0.325-2.135L217.917,135.482z"/>
	<path fill="#FFFFFF" d="M226.15,143.591l6.72-19.609l5.687,0.656l2.051,20.619l-4.774-0.551l-0.219-3.992l-3.702-0.428
		l-1.015,3.852L226.15,143.591z M235.292,127.957l-0.054-0.006l-2.408,8.855l2.736,0.314L235.292,127.957z"/>
	<path fill="#FFFFFF" d="M242.573,145.429l1.449-20.199l5.144,0.369c0.862,0.063,1.77,0.172,2.724,0.332
		c0.954,0.158,1.801,0.49,2.541,0.994c0.429,0.301,0.774,0.646,1.036,1.035c0.261,0.389,0.447,0.809,0.56,1.258
		c0.112,0.451,0.178,0.916,0.197,1.395c0.02,0.48,0.012,0.963-0.022,1.447l-0.643,8.967c-0.092,1.023-0.325,1.885-0.7,2.59
		c-0.375,0.703-0.92,1.246-1.633,1.629c-0.658,0.367-1.35,0.58-2.076,0.637c-0.726,0.055-1.457,0.057-2.193,0.004L242.573,145.429z
		 M247.573,142.132c0.786,0.111,1.399,0.115,1.84,0.012c0.44-0.105,0.771-0.307,0.991-0.607c0.22-0.299,0.361-0.695,0.423-1.188
		c0.063-0.49,0.109-1.078,0.14-1.762l0.474-6.598c0.042-0.594,0.017-1.061-0.076-1.4c-0.093-0.34-0.254-0.605-0.485-0.793
		c-0.23-0.188-0.541-0.318-0.933-0.391c-0.392-0.074-0.875-0.141-1.447-0.199L247.573,142.132z"/>
	<path fill="#FFFFFF" d="M271.016,140.289c-0.023,1.135-0.152,2.135-0.386,3.004s-0.609,1.586-1.125,2.15
		c-0.516,0.566-1.182,0.988-1.998,1.27c-0.816,0.279-1.827,0.406-3.033,0.383c-1.206-0.025-2.215-0.195-3.028-0.508
		c-0.813-0.314-1.469-0.764-1.97-1.352c-0.501-0.586-0.855-1.318-1.062-2.195c-0.208-0.877-0.299-1.883-0.275-3.018l0.169-8.232
		c0.041-1.961,0.629-3.447,1.766-4.461c1.137-1.012,2.75-1.496,4.837-1.453s3.665,0.594,4.733,1.65
		c1.067,1.059,1.581,2.568,1.541,4.529L271.016,140.289z M266.428,132.283c0.006-0.307,0-0.621-0.021-0.947
		c-0.021-0.324-0.082-0.617-0.185-0.881s-0.265-0.482-0.486-0.658c-0.222-0.176-0.53-0.268-0.926-0.275
		c-0.378-0.008-0.681,0.072-0.909,0.238c-0.229,0.166-0.404,0.379-0.526,0.637c-0.123,0.258-0.205,0.549-0.248,0.873
		c-0.043,0.322-0.067,0.637-0.074,0.943l-0.171,8.314c-0.006,0.287,0.005,0.604,0.034,0.945c0.029,0.344,0.099,0.66,0.21,0.949
		c0.111,0.291,0.282,0.533,0.512,0.727s0.534,0.295,0.912,0.303s0.681-0.08,0.91-0.266c0.229-0.184,0.4-0.418,0.514-0.705
		c0.114-0.285,0.188-0.598,0.222-0.939c0.034-0.342,0.054-0.656,0.06-0.945L266.428,132.283z"/>
	<path fill="#FFFFFF" d="M278.601,146.527l-4.748,0.197l-0.846-20.23l6.933-0.291c1.96-0.082,3.439,0.285,4.438,1.098
		c0.998,0.814,1.539,2.229,1.623,4.242c0.045,1.08-0.087,2.014-0.396,2.801s-0.949,1.428-1.919,1.918l0.002,0.055
		c0.671,0.115,1.232,0.389,1.683,0.82c0.451,0.432,0.708,0.998,0.773,1.697c0.053,0.412,0.106,0.914,0.158,1.508
		c0.052,0.592,0.104,1.193,0.157,1.803c0.052,0.611,0.108,1.193,0.167,1.75c0.059,0.557,0.132,0.994,0.217,1.314
		c0.138,0.301,0.301,0.529,0.488,0.684l0.011,0.27l-5.179,0.217c-0.081-0.195-0.147-0.387-0.2-0.574
		c-0.053-0.186-0.093-0.377-0.119-0.576c-0.074-0.896-0.118-1.746-0.134-2.547s-0.072-1.516-0.17-2.141
		c-0.099-0.627-0.268-1.125-0.508-1.492c-0.241-0.369-0.641-0.559-1.199-0.572l-1.565,0.066L278.601,146.527z M278.114,134.9
		l1.619-0.068c0.341-0.014,0.622-0.098,0.841-0.25c0.219-0.154,0.386-0.35,0.502-0.59c0.116-0.238,0.19-0.512,0.222-0.82
		c0.032-0.307,0.042-0.613,0.029-0.92c-0.025-0.594-0.107-1.057-0.248-1.395c-0.14-0.336-0.349-0.58-0.625-0.73
		s-0.627-0.23-1.05-0.24c-0.424-0.008-0.923,0.008-1.498,0.051L278.114,134.9z"/>
</g>
<path fill="#BDCCD4" d="M375.257,87.494c0.423-0.979,1.299-1.647,2.353-1.924l2.047-4.754l5.016,2.159l-1.934,4.488
	c0.747,1.047,0.979,2.331,0.49,3.464c-0.487,1.131-1.578,1.846-2.854,2.024l-3.149,7.314l-5.014-2.159l3.264-7.582
	C374.952,89.568,374.835,88.475,375.257,87.494z"/>
<path fill="#BDCCD4" d="M367.997,100.167c5.401,2.327,2.688,1.156,10.629,4.576c1.264-2.935-0.093-6.338-3.027-7.601
	C372.663,95.878,369.26,97.231,367.997,100.167z"/>
<path fill="#BDCCD4" d="M377.413,58.399c1.837-0.848,3.678-0.903,5.626-0.167l1.925-5.107c-3.345-1.262-6.659-1.153-9.853,0.324
	c-7.064,3.27-11.325,12.536-12.566,15.586c-2.96-0.311-5.802,1.106-6.93,3.728c-0.022,0.05-0.035,0.103-0.055,0.15l3.543,1.525
	c0.018-0.05,0.027-0.101,0.05-0.152c0.583-1.354,2.457-1.854,4.178-1.113c1.722,0.741,2.646,2.446,2.063,3.799
	c-0.023,0.051-0.053,0.095-0.077,0.143l3.542,1.525c0.022-0.047,0.05-0.094,0.073-0.144c1.027-2.386,0.354-5.115-1.477-7.047
	C368.683,68.252,372.439,60.693,377.413,58.399z"/>
<path fill="#BDCCD4" d="M398.514,97.51c0.424-0.981,0.305-2.077-0.218-3.033l2.047-4.753l-5.014-2.16l-1.933,4.489
	c-1.274,0.177-2.367,0.891-2.854,2.024c-0.486,1.131-0.258,2.417,0.49,3.464l-3.149,7.315l5.014,2.157l3.264-7.581
	C397.216,99.156,398.092,98.489,398.514,97.51z"/>
<path fill="#BDCCD4" d="M394.297,111.491c-5.403-2.326-2.687-1.157-10.63-4.576c1.265-2.935,4.669-4.289,7.605-3.025
	C394.206,105.152,395.562,108.555,394.297,111.491z"/>
<path fill="#BDCCD4" d="M418.173,75.951c-0.647-1.919-1.872-3.292-3.745-4.204l2.387-4.909c3.217,1.564,5.414,4.049,6.535,7.382
	c2.479,7.38-1.327,16.842-2.687,19.839c2.259,1.937,3.181,4.974,2.051,7.595c-0.021,0.05-0.049,0.096-0.071,0.145l-3.542-1.527
	c0.023-0.046,0.055-0.09,0.078-0.14c0.582-1.355-0.343-3.06-2.065-3.801c-1.721-0.743-3.594-0.243-4.178,1.111
	c-0.023,0.051-0.033,0.104-0.049,0.154l-3.542-1.525c0.019-0.048,0.032-0.1,0.054-0.151c1.028-2.384,3.473-3.771,6.135-3.769
	C417.013,89.063,419.923,81.141,418.173,75.951z"/>
<path fill="#BDCCD4" d="M411.221,46.565l-3.839-1.656l-3.842-1.65c-4.152-1.79-8.966,0.127-10.755,4.279l-1.859,4.323l11.357,4.891
	l11.357,4.889l1.861-4.321C417.288,53.167,415.372,48.354,411.221,46.565z"/>
<path fill="#BDCCD4" d="M413.959,61.114l-11.437-4.924l-11.437-4.924c-3.055-1.315-6.6,0.095-7.917,3.151l-7.962,18.491
	c-1.316,3.058,0.094,6.601,3.151,7.917l11.436,4.925l11.435,4.922c3.058,1.318,6.601-0.093,7.918-3.151l7.962-18.491
	C418.426,65.974,417.015,62.431,413.959,61.114z"/>
<path fill="#FFFFFF" d="M406.442,64.497l-6.323-2.724l-6.324-2.722c-1.9-0.819-4.107,0.059-4.926,1.961l-4.954,11.504
	c-0.819,1.901,0.06,4.109,1.959,4.927l6.325,2.722l6.322,2.724c1.9,0.818,4.106-0.061,4.925-1.963l4.954-11.504
	C409.219,67.521,408.342,65.315,406.442,64.497z"/>
<path fill="none" stroke="#3F4953" stroke-width="2.6967" stroke-miterlimit="10" d="M257.766,71.568
	c26.802-9.746,62.131,42.636,101.114,24.365c10.964-3.655,11.657-16.321,17.799-18.92"/>
</svg>
