<?xml version="1.0" encoding="utf-8"?><!DOCTYPE svg PUBLIC "-//W3C//DTD SVG 1.1//EN" "http://www.w3.org/Graphics/SVG/1.1/DTD/svg11.dtd"><svg version="1.1" id="Layer_1" xmlns="http://www.w3.org/2000/svg" xmlns:xlink="http://www.w3.org/1999/xlink" x="0px" y="0px" width="595.281px" height="420.941px" viewBox="0 0 595.281 420.941" enable-background="new 0 0 595.281 420.941" xml:space="preserve"><path fill="#CDEAE9" d="M164.666,221.104c29.763,8.163,71.446,15.205,116.565,18.954c84.306,7.005,148.662-0.145,143.739-15.969c-1.86-5.978-13.34-12.337-31.441-18.313c-0.113,0.115-0.239,0.224-0.374,0.328c16.02,5.114,26.254,10.613,27.991,15.826c4.516,13.559-50.168,20.022-122.15,14.434c-51.345-3.987-97.61-13.027-121.555-22.806c-0.067,0.05-0.137,0.095-0.203,0.147c-2.166,1.695-4.196,3.441-6.758,4.977C168.914,219.617,166.964,220.495,164.666,221.104z"/><g><g><linearGradient id="SVGID_1_" gradientUnits="userSpaceOnUse" x1="251.9309" y1="796.7234" x2="251.9309" y2="802.004" gradientTransform="matrix(0.39 -0.9208 -0.9208 -0.39 809.2829 759.8422)"><stop  offset="0" style="stop-color:#580E0E"/><stop  offset="1" style="stop-color:#ED2224"/></linearGradient><path fill="url(#SVGID_1_)" d="M177.437,211.881c0.626,0.265,0.053,3.029-1.279,6.177c-1.332,3.144-2.918,5.479-3.543,5.215c-0.626-0.266-0.053-3.027,1.28-6.178C175.226,213.952,176.813,211.617,177.437,211.881z"/><linearGradient id="SVGID_2_" gradientUnits="userSpaceOnUse" x1="251.7781" y1="777.781" x2="251.7781" y2="797.0152" gradientTransform="matrix(0.39 -0.9208 -0.9208 -0.39 809.2829 759.8422)"><stop  offset="0" style="stop-color:#F58020"/><stop  offset="0.4784" style="stop-color:#F0B32A"/><stop  offset="1" style="stop-color:#EDE839"/></linearGradient><path fill="url(#SVGID_2_)" d="M186.769,218.77l-3.462-1.15c0,0,5.063,2.095,10.782,6.696l-4.641-2.185c0,0,8.32,5.243,9.017,5.537c-0.697-0.294-10.25-2.621-10.25-2.621l4.796,1.813c-7.285-0.906-12.312-3.084-12.312-3.084l3.235,1.686c-7.737-1.053-12.896-6.356-12.896-6.356l2.194-5.179C173.232,213.929,180.631,213.945,186.769,218.77z"/><linearGradient id="SVGID_3_" gradientUnits="userSpaceOnUse" x1="251.7786" y1="788.573" x2="251.7786" y2="803.1051" gradientTransform="matrix(0.39 -0.9208 -0.9208 -0.39 809.2829 759.8422)"><stop  offset="0" style="stop-color:#F58020"/><stop  offset="0.4784" style="stop-color:#F0B32A"/><stop  offset="1" style="stop-color:#EDE839"/></linearGradient><path fill="url(#SVGID_3_)" d="M182.156,218.488l-1.997-0.664c0,0,2.919,1.206,6.218,3.862l-2.677-1.26c0,0,4.798,3.023,5.2,3.192c-0.401-0.169-5.91-1.513-5.91-1.513l2.766,1.046c-4.202-0.522-7.1-1.777-7.1-1.777l1.866,0.971c-4.461-0.606-7.437-3.664-7.437-3.664l1.266-2.985C174.351,215.696,178.617,215.704,182.156,218.488z"/><linearGradient id="SVGID_4_" gradientUnits="userSpaceOnUse" x1="-20.9846" y1="803.0662" x2="-20.9846" y2="799.7323" gradientTransform="matrix(-0.4348 0.9006 -0.9006 -0.4348 888.3982 587.1871)"><stop  offset="0" style="stop-color:#F58020"/><stop  offset="0.4784" style="stop-color:#F0B32A"/><stop  offset="1" style="stop-color:#EDE839"/></linearGradient><path fill="url(#SVGID_4_)" d="M173.691,218.433c1.95,2.253,4.792,2.919,4.792,2.919C175.936,220.309,174.182,218.895,173.691,218.433z"/><linearGradient id="SVGID_5_" gradientUnits="userSpaceOnUse" x1="311.4841" y1="786.7234" x2="311.4841" y2="783.3876" gradientTransform="matrix(0.3443 -0.9389 -0.9389 -0.3443 806.8905 779.5847)"><stop  offset="0" style="stop-color:#F58020"/><stop  offset="0.4784" style="stop-color:#F0B32A"/><stop  offset="1" style="stop-color:#EDE839"/></linearGradient><path fill="url(#SVGID_5_)" d="M174.591,216.303c2.976-0.166,5.433,1.411,5.433,1.411C177.502,216.608,175.265,216.334,174.591,216.303z"/><linearGradient id="SVGID_6_" gradientUnits="userSpaceOnUse" x1="251.7776" y1="791.4656" x2="251.7776" y2="801.6987" gradientTransform="matrix(0.39 -0.9208 -0.9208 -0.39 809.2829 759.8422)"><stop  offset="0" style="stop-color:#EDE839"/><stop  offset="0.4804" style="stop-color:#F0EE8A"/><stop  offset="1" style="stop-color:#F2F5D1"/></linearGradient><path fill="url(#SVGID_6_)" d="M177.315,217.165l-1.357-0.449c0,0,1.984,0.818,4.227,2.623l-1.819-0.855c0,0,3.259,2.055,3.533,2.17c-0.273-0.115-4.017-1.027-4.017-1.027l1.88,0.71c-2.855-0.355-4.826-1.208-4.826-1.208l1.269,0.661c-3.032-0.413-5.056-2.492-5.056-2.492l0.86-2.028C172.009,215.268,174.908,215.275,177.315,217.165z"/></g><g><linearGradient id="SVGID_7_" gradientUnits="userSpaceOnUse" x1="153.219" y1="105.7571" x2="153.0531" y2="110.566" gradientTransform="matrix(0.4617 -0.8871 0.8871 0.4617 6.8821 305.1246)"><stop  offset="0.2393" style="stop-color:#E10F82"/><stop  offset="0.9035" style="stop-color:#F25F96"/><stop  offset="1" style="stop-color:#F46B99"/></linearGradient><path fill="url(#SVGID_7_)" d="M175.604,217.14c0.645,0.335,0.817,1.278,0.385,2.108l-1.034,1.983c-0.431,0.83-1.302,1.23-1.948,0.895l-1.11-0.577c-0.644-0.336-0.816-1.279-0.385-2.108l1.033-1.985c0.432-0.828,1.304-1.228,1.947-0.895L175.604,217.14z"/><linearGradient id="SVGID_8_" gradientUnits="userSpaceOnUse" x1="158.8352" y1="105.9509" x2="158.6693" y2="110.7597" gradientTransform="matrix(0.4617 -0.8871 0.8871 0.4617 6.8821 305.1246)"><stop  offset="0.2393" style="stop-color:#E10F82"/><stop  offset="0.9035" style="stop-color:#F25F96"/><stop  offset="1" style="stop-color:#F46B99"/></linearGradient><path fill="url(#SVGID_8_)" d="M178.199,212.152c0.645,0.335,0.817,1.278,0.386,2.109l-1.034,1.984c-0.431,0.83-1.302,1.229-1.947,0.895l-1.111-0.579c-0.643-0.333-0.816-1.279-0.384-2.106l1.033-1.985c0.431-0.832,1.303-1.232,1.947-0.896L178.199,212.152z"/></g><g><linearGradient id="SVGID_9_" gradientUnits="userSpaceOnUse" x1="136.4441" y1="94.1892" x2="144.8484" y2="94.1892" gradientTransform="matrix(0.4617 -0.8871 0.8871 0.4617 6.8821 305.1246)"><stop  offset="0.2393" style="stop-color:#E10F82"/><stop  offset="0.9035" style="stop-color:#F25F96"/><stop  offset="1" style="stop-color:#F46B99"/></linearGradient><path fill="url(#SVGID_9_)" d="M145.714,214.72c0,0,1.15,9.44,4.332,11.097c3.182,1.656,14.712,7.656,14.712,7.656l-3.575-11.334L145.714,214.72z"/><linearGradient id="SVGID_10_" gradientUnits="userSpaceOnUse" x1="166.2175" y1="94.1877" x2="174.6218" y2="94.1877" gradientTransform="matrix(0.4617 -0.8871 0.8871 0.4617 6.8821 305.1246)"><stop  offset="0.2393" style="stop-color:#E10F82"/><stop  offset="0.9035" style="stop-color:#F25F96"/><stop  offset="1" style="stop-color:#F46B99"/></linearGradient><path fill="url(#SVGID_10_)" d="M156.095,194.77c0,0,8.395-4.474,11.576-2.818c3.18,1.655,14.711,7.657,14.711,7.657l-11.335,3.574L156.095,194.77z"/></g><linearGradient id="SVGID_11_" gradientUnits="userSpaceOnUse" x1="655.2263" y1="-663.7117" x2="632.4846" y2="-681.946" gradientTransform="matrix(-0.2466 -0.9691 0.9691 -0.2466 958.5428 659.5188)"><stop  offset="0.2393" style="stop-color:#1C93C1"/><stop  offset="0.9957" style="stop-color:#14678B"/></linearGradient><path fill="url(#SVGID_11_)" d="M145.533,216.98c9.063,4.618,18.337,6.93,26.389,7.031c0.412-2.486,1.203-4.956,2.407-7.32c1.207-2.364,2.737-4.457,4.508-6.25c-4.813-6.455-12.131-12.6-21.193-17.22c-14.398-7.338-29.325-8.861-39.031-4.932C121.134,198.457,131.137,209.64,145.533,216.98z"/><defs><filter id="Adobe_OpacityMaskFilter" filterUnits="userSpaceOnUse" x="134.596" y="186.448" width="44.241" height="25.696"><feFlood  style="flood-color:white;flood-opacity:1" result="back"/><feBlend  in="SourceGraphic" in2="back" mode="normal"/></filter></defs><mask maskUnits="userSpaceOnUse" x="134.596" y="186.448" width="44.241" height="25.696" id="SVGID_12_"><g filter="url(#Adobe_OpacityMaskFilter)"><defs><filter id="Adobe_OpacityMaskFilter_1_" filterUnits="userSpaceOnUse" x="134.596" y="186.448" width="44.241" height="25.696"><feFlood  style="flood-color:white;flood-opacity:1" result="back"/><feBlend  in="SourceGraphic" in2="back" mode="normal"/></filter></defs><mask maskUnits="userSpaceOnUse" x="134.596" y="186.448" width="44.241" height="25.696" id="SVGID_12_"><g filter="url(#Adobe_OpacityMaskFilter_1_)"></g></mask><linearGradient id="SVGID_13_" gradientUnits="userSpaceOnUse" x1="663.1873" y1="-679.4973" x2="627.1259" y2="-644.4604" gradientTransform="matrix(-0.2466 -0.9691 0.9691 -0.2466 958.5428 659.5188)"><stop  offset="0" style="stop-color:#808080"/><stop  offset="0.1455" style="stop-color:#7A7A7A"/><stop  offset="0.3377" style="stop-color:#696969"/><stop  offset="0.5562" style="stop-color:#4E4E4E"/><stop  offset="0.7921" style="stop-color:#282828"/><stop  offset="1" style="stop-color:#000000"/></linearGradient><path mask="url(#SVGID_12_)" fill="url(#SVGID_13_)" d="M177.308,212.144c0.488-0.593,0.995-1.163,1.528-1.703c-4.813-6.455-12.131-12.6-21.193-17.22c-7.472-3.807-15.083-6.047-22.037-6.773l-1.01,1.093C165.993,194.722,175.778,209.493,177.308,212.144z"/></g></mask><linearGradient id="SVGID_14_" gradientUnits="userSpaceOnUse" x1="663.1873" y1="-679.4973" x2="627.1259" y2="-644.4604" gradientTransform="matrix(-0.2466 -0.9691 0.9691 -0.2466 958.5428 659.5188)"><stop  offset="0" style="stop-color:#EAEFEE"/><stop  offset="0.4498" style="stop-color:#F0F3F3"/><stop  offset="1" style="stop-color:#FFFFFF"/></linearGradient><path opacity="0.2" fill="url(#SVGID_14_)" d="M177.308,212.144c0.488-0.593,0.995-1.163,1.528-1.703c-4.813-6.455-12.131-12.6-21.193-17.22c-7.472-3.807-15.083-6.047-22.037-6.773l-1.01,1.093C165.993,194.722,175.778,209.493,177.308,212.144z"/><defs><filter id="Adobe_OpacityMaskFilter_2_" filterUnits="userSpaceOnUse" x="129.238" y="198.49" width="44.445" height="22.933"><feFlood  style="flood-color:white;flood-opacity:1" result="back"/><feBlend  in="SourceGraphic" in2="back" mode="normal"/></filter></defs><mask maskUnits="userSpaceOnUse" x="129.238" y="198.49" width="44.445" height="22.933" id="SVGID_15_"><g filter="url(#Adobe_OpacityMaskFilter_2_)"><defs><filter id="Adobe_OpacityMaskFilter_3_" filterUnits="userSpaceOnUse" x="129.238" y="198.49" width="44.445" height="22.933"><feFlood  style="flood-color:white;flood-opacity:1" result="back"/><feBlend  in="SourceGraphic" in2="back" mode="normal"/></filter></defs><mask maskUnits="userSpaceOnUse" x="129.238" y="198.49" width="44.445" height="22.933" id="SVGID_15_"><g filter="url(#Adobe_OpacityMaskFilter_3_)"></g></mask><linearGradient id="SVGID_16_" gradientUnits="userSpaceOnUse" x1="646.3035" y1="-685.675" x2="617.4125" y2="-653.5057" gradientTransform="matrix(-0.2466 -0.9691 0.9691 -0.2466 958.5428 659.5188)"><stop  offset="0" style="stop-color:#808080"/><stop  offset="0.1455" style="stop-color:#7A7A7A"/><stop  offset="0.3377" style="stop-color:#696969"/><stop  offset="0.5562" style="stop-color:#4E4E4E"/><stop  offset="0.7921" style="stop-color:#282828"/><stop  offset="1" style="stop-color:#000000"/></linearGradient><path mask="url(#SVGID_15_)" fill="url(#SVGID_16_)" d="M172.603,221.423l1.08-3.233c-29.259-9.472-43.066-19.7-43.066-19.7l-1.378,2.887C145.401,216.717,172.603,221.423,172.603,221.423z"/></g></mask><linearGradient id="SVGID_17_" gradientUnits="userSpaceOnUse" x1="646.3035" y1="-685.675" x2="617.4125" y2="-653.5057" gradientTransform="matrix(-0.2466 -0.9691 0.9691 -0.2466 958.5428 659.5188)"><stop  offset="0" style="stop-color:#EAEFEE"/><stop  offset="0.4498" style="stop-color:#F0F3F3"/><stop  offset="1" style="stop-color:#FFFFFF"/></linearGradient><path opacity="0.8" fill="url(#SVGID_17_)" d="M172.603,221.423l1.08-3.233c-29.259-9.472-43.066-19.7-43.066-19.7l-1.378,2.887C145.401,216.717,172.603,221.423,172.603,221.423z"/><path opacity="0.7" fill="#22A7B9" d="M128.068,204.155l1.386,1.395c0,0,4.031-10.749,9.811-18.772l-2.259-0.156C137.005,186.621,129.591,197.582,128.068,204.155z"/><linearGradient id="SVGID_18_" gradientUnits="userSpaceOnUse" x1="145.5125" y1="53.0276" x2="165.1931" y2="53.0276" gradientTransform="matrix(0.4617 -0.8871 0.8871 0.4617 6.8821 305.1246)"><stop  offset="0.2393" style="stop-color:#E10F82"/><stop  offset="0.9035" style="stop-color:#F25F96"/><stop  offset="1" style="stop-color:#F46B99"/></linearGradient><path fill="url(#SVGID_18_)" d="M128.068,204.155c1.265-2.95,2.651-5.931,4.173-8.917c1.523-2.986,3.118-5.858,4.764-8.617c-6.991-0.922-13.39-0.356-18.393,1.669C119.912,193.531,123.215,199.041,128.068,204.155z"/><defs><filter id="Adobe_OpacityMaskFilter_4_" filterUnits="userSpaceOnUse" x="118.612" y="188.29" width="12.004" height="13.086"><feFlood  style="flood-color:white;flood-opacity:1" result="back"/><feBlend  in="SourceGraphic" in2="back" mode="normal"/></filter></defs><mask maskUnits="userSpaceOnUse" x="118.612" y="188.29" width="12.004" height="13.086" id="SVGID_19_"><g filter="url(#Adobe_OpacityMaskFilter_4_)"><defs><filter id="Adobe_OpacityMaskFilter_5_" filterUnits="userSpaceOnUse" x="118.612" y="188.29" width="12.004" height="13.086"><feFlood  style="flood-color:white;flood-opacity:1" result="back"/><feBlend  in="SourceGraphic" in2="back" mode="normal"/></filter></defs><mask maskUnits="userSpaceOnUse" x="118.612" y="188.29" width="12.004" height="13.086" id="SVGID_19_"><g filter="url(#Adobe_OpacityMaskFilter_5_)"></g></mask><linearGradient id="SVGID_20_" gradientUnits="userSpaceOnUse" x1="651.824" y1="-690.3953" x2="660.2246" y2="-697.9763" gradientTransform="matrix(-0.2466 -0.9691 0.9691 -0.2466 958.5428 659.5188)"><stop  offset="0" style="stop-color:#808080"/><stop  offset="0.1455" style="stop-color:#7A7A7A"/><stop  offset="0.3377" style="stop-color:#696969"/><stop  offset="0.5562" style="stop-color:#4E4E4E"/><stop  offset="0.7921" style="stop-color:#282828"/><stop  offset="1" style="stop-color:#000000"/></linearGradient><path mask="url(#SVGID_19_)" fill="url(#SVGID_20_)" d="M130.616,198.49c-6.526-4.047-12.004-10.2-12.004-10.2c3.572,7.824,10.626,13.086,10.626,13.086L130.616,198.49z"/></g></mask><linearGradient id="SVGID_21_" gradientUnits="userSpaceOnUse" x1="651.824" y1="-690.3953" x2="660.2246" y2="-697.9763" gradientTransform="matrix(-0.2466 -0.9691 0.9691 -0.2466 958.5428 659.5188)"><stop  offset="0" style="stop-color:#EAEFEE"/><stop  offset="0.4498" style="stop-color:#F0F3F3"/><stop  offset="1" style="stop-color:#FFFFFF"/></linearGradient><path fill="url(#SVGID_21_)" d="M130.616,198.49c-6.526-4.047-12.004-10.2-12.004-10.2c3.572,7.824,10.626,13.086,10.626,13.086L130.616,198.49z"/><g><path opacity="0.5" fill="#444C4C" d="M137.594,196.858c-1.877,3.681-0.409,8.201,3.271,10.078c3.683,1.877,8.204,0.408,10.079-3.273c1.877-3.68,0.408-8.201-3.274-10.077C143.989,191.709,139.469,193.178,137.594,196.858z"/><path fill="#112E5F" d="M136.056,197.462c-1.876,3.68-0.41,8.201,3.271,10.077c3.683,1.877,8.203,0.408,10.079-3.273c1.876-3.681,0.409-8.202-3.272-10.077C142.451,192.312,137.931,193.78,136.056,197.462z"/><path fill="#18A7CA" d="M138.093,198.5c-1.304,2.557-0.284,5.699,2.274,7.003c2.559,1.303,5.698,0.283,7.001-2.275c1.305-2.557,0.287-5.7-2.273-7.003C142.538,194.921,139.397,195.943,138.093,198.5z"/><path fill="#83D0E3" d="M145.984,204.927c0.56-0.448,1.038-1.018,1.384-1.699c1.305-2.557,0.287-5.7-2.273-7.003c-0.91-0.464-1.893-0.632-2.841-0.542c0.023,0.118,0.045,0.238,0.07,0.356C142.909,198.894,143.85,202.592,145.984,204.927z"/></g><g><path opacity="0.5" fill="#444C4C" d="M152.922,204.195c-1.408,2.76-0.306,6.152,2.454,7.559c2.762,1.408,6.153,0.306,7.559-2.454c1.408-2.76,0.308-6.151-2.456-7.559C157.719,200.334,154.329,201.435,152.922,204.195z"/><path fill="#112E5F" d="M151.769,204.648c-1.407,2.759-0.306,6.149,2.454,7.559c2.761,1.407,6.152,0.306,7.559-2.456c1.408-2.761,0.307-6.15-2.456-7.558C156.566,200.785,153.176,201.886,151.769,204.648z"/><path fill="#18A7CA" d="M153.297,205.426c-0.978,1.919-0.212,4.276,1.704,5.252c1.921,0.979,4.275,0.215,5.252-1.706c0.979-1.918,0.215-4.274-1.706-5.251C156.631,202.742,154.274,203.508,153.297,205.426z"/><path fill="#83D0E3" d="M159.215,210.245c0.421-0.334,0.779-0.763,1.039-1.273c0.979-1.918,0.215-4.274-1.706-5.251c-0.682-0.348-1.42-0.474-2.131-0.408c0.019,0.089,0.033,0.178,0.053,0.267C156.909,205.722,157.615,208.496,159.215,210.245z"/></g><g><path opacity="0.5" fill="#444C4C" d="M164.809,209.911c-0.993,1.948-0.215,4.341,1.732,5.335c1.948,0.992,4.34,0.215,5.333-1.734c0.994-1.948,0.217-4.34-1.733-5.333C168.195,207.187,165.802,207.964,164.809,209.911z"/><path fill="#112E5F" d="M163.995,210.23c-0.994,1.947-0.215,4.342,1.731,5.334c1.95,0.993,4.341,0.216,5.334-1.732c0.992-1.947,0.215-4.34-1.732-5.333C167.381,207.505,164.987,208.282,163.995,210.23z"/><path fill="#18A7CA" d="M165.073,210.779c-0.691,1.354-0.15,3.017,1.204,3.708c1.354,0.69,3.016,0.15,3.706-1.206c0.69-1.352,0.15-3.015-1.204-3.705C167.426,208.886,165.763,209.427,165.073,210.779z"/><path fill="#83D0E3" d="M169.249,214.183c0.296-0.237,0.55-0.539,0.733-0.902c0.69-1.352,0.15-3.015-1.204-3.705c-0.481-0.246-1.001-0.334-1.503-0.288c0.013,0.063,0.024,0.126,0.037,0.188C167.623,210.988,168.121,212.946,169.249,214.183z"/></g></g></svg>