<?xml version="1.0" encoding="utf-8"?>
<!-- Generator: Adobe Illustrator 16.0.0, SVG Export Plug-In . SVG Version: 6.00 Build 0)  -->
<!DOCTYPE svg PUBLIC "-//W3C//DTD SVG 1.1//EN" "http://www.w3.org/Graphics/SVG/1.1/DTD/svg11.dtd">
<svg version="1.1" id="Layer_1" xmlns="http://www.w3.org/2000/svg" xmlns:xlink="http://www.w3.org/1999/xlink" x="0px" y="0px"
	 width="106px" height="143px" viewBox="0 0 106 143" enable-background="new 0 0 106 143" xml:space="preserve">
<g>
	<polygon fill="#FF7A75" points="30.401,66.876 9.341,82.882 9.341,103.419 30.401,93.674 	"/>
</g>
<g>
	<polygon fill="#FF7A75" points="75.597,66.876 96.659,82.882 96.659,103.419 75.597,93.674 	"/>
</g>
<g>
	<polygon fill="#8880C3" points="26.666,79.5 5.606,95.513 5.606,116.05 26.666,106.303 	"/>
</g>
<g>
	<polygon fill="#8880C3" points="79.333,79.5 100.394,95.513 100.394,116.05 79.333,106.303 	"/>
</g>
<path fill="#FFFFFF" d="M52.533,0.468c-0.301,0.31-0.793,0.767-1.329,1.364c-0.557,0.599-1.239,1.336-1.966,2.204
	c-0.371,0.433-0.769,0.898-1.192,1.396c-0.396,0.497-0.815,1.025-1.259,1.583c-1.798,2.231-3.742,4.942-5.757,8.05
	c-2.008,3.109-4.049,6.617-5.983,10.443c-1.941,3.826-3.754,7.971-5.403,12.354c-1.631,4.385-3.049,9.008-4.202,13.792
	c-2.325,9.566-3.519,19.767-3.537,29.97c-0.005,5.102,0.269,10.204,0.854,15.229c0.568,5.021,1.463,9.963,2.604,14.747
	c0.737,3.088,1.603,6.099,2.553,9.031c7.643-3.282,16.138-5.115,25.088-5.115V0C53.002,0,52.842,0.159,52.533,0.468z"/>
<path fill="#FFFFFF" d="M80.562,51.654c-1.154-4.783-2.572-9.407-4.203-13.792c-1.648-4.383-3.461-8.529-5.402-12.354
	c-1.935-3.826-3.976-7.333-5.982-10.443c-2.016-3.108-3.959-5.819-5.757-8.05c-0.444-0.559-0.862-1.086-1.259-1.583
	c-0.424-0.498-0.822-0.962-1.192-1.396c-0.728-0.868-1.409-1.605-1.967-2.204c-0.536-0.597-1.029-1.055-1.328-1.364
	C53.161,0.159,53.002,0,53.002,0v115.516c8.95,0,17.445,1.833,25.087,5.115c0.949-2.933,1.816-5.943,2.553-9.031
	c1.141-4.784,2.035-9.727,2.604-14.747c0.584-5.024,0.859-10.127,0.854-15.229C84.079,71.421,82.886,61.22,80.562,51.654z"/>
<path fill="#8880C3" d="M53.771,77.599c0,0,0.173,0.226,0.449,0.647c0.284,0.424,0.651,1.044,1.083,1.833
	c0.848,1.58,1.84,3.834,2.611,6.542c0.392,1.354,0.74,2.82,0.997,4.371c0.267,1.552,0.44,3.188,0.411,4.881
	c-0.025,1.691-0.297,3.439-0.611,5.216c-0.316,1.775-0.628,3.582-0.814,5.385c-0.371,3.61-0.775,7.222-1.233,10.607
	c-0.239,1.691-0.472,3.327-0.692,4.878c-0.232,1.551-0.453,3.018-0.656,4.371c-0.198,1.354-0.422,2.594-0.598,3.694
	c-0.178,1.099-0.342,2.059-0.489,2.847c-0.291,1.58-0.457,2.482-0.457,2.482h-1.178c0,0-0.167-0.902-0.46-2.482
	c-0.146-0.788-0.309-1.748-0.487-2.847c-0.176-1.101-0.398-2.341-0.599-3.694c-0.203-1.354-0.423-2.82-0.656-4.371
	c-0.221-1.551-0.452-3.187-0.692-4.878c-0.457-3.386-0.862-6.997-1.232-10.605c-0.188-1.806-0.498-3.608-0.815-5.387
	c-0.314-1.776-0.584-3.524-0.609-5.216c-0.03-1.692,0.143-3.329,0.409-4.879c0.259-1.553,0.606-3.02,0.998-4.374
	c0.771-2.707,1.764-4.961,2.61-6.541c0.434-0.789,0.801-1.409,1.084-1.833c0.275-0.422,0.448-0.647,0.448-0.647H53.771z"/>
<path opacity="0.5" fill="#695FB3" d="M54.345,34.566c-9.92,0.083-17.924,8.222-17.84,18.141
	c0.085,9.924,8.226,17.923,18.146,17.839c9.92-0.083,17.92-8.221,17.834-18.144C72.402,42.482,64.263,34.481,54.345,34.566z"/>
<g>
	<path fill="#FF5F59" d="M52.821,34.04c-11.697,0.099-21.135,9.695-21.034,21.392c0.101,11.701,9.698,21.135,21.396,21.034
		c11.698-0.098,21.132-9.692,21.032-21.394C74.118,43.373,64.52,33.941,52.821,34.04z"/>
	<path fill="#FFFFFF" d="M52.878,40.515c-8.13,0.066-14.686,6.735-14.619,14.863c0.07,8.134,6.739,14.683,14.87,14.614
		c8.128-0.069,14.688-6.732,14.617-14.865C67.678,47,61.005,40.444,52.878,40.515z"/>
	<path fill="#FFC9C7" d="M47.049,68.734c1.859,0.823,3.916,1.277,6.08,1.258c8.128-0.069,14.688-6.732,14.617-14.865
		c-0.025-2.891-0.888-5.58-2.351-7.845c-0.269,0.213-0.539,0.424-0.805,0.639C58.183,53.129,50.123,60.328,47.049,68.734z"/>
</g>
<circle fill="#FF5F59" cx="53.001" cy="19.802" r="6.625"/>
<circle fill="#FF9995" cx="53.001" cy="19.802" r="3.941"/>
<defs>
	<filter id="Adobe_OpacityMaskFilter" filterUnits="userSpaceOnUse" x="27.2" y="52.819" width="9.155" height="61.86">
		<feFlood  style="flood-color:white;flood-opacity:1" result="back"/>
		<feBlend  in="SourceGraphic" in2="back" mode="normal"/>
	</filter>
</defs>
<mask maskUnits="userSpaceOnUse" x="27.2" y="52.819" width="9.155" height="61.86" id="SVGID_1_">
	<g filter="url(#Adobe_OpacityMaskFilter)">
		<defs>
			<filter id="Adobe_OpacityMaskFilter_1_" filterUnits="userSpaceOnUse" x="27.2" y="52.819" width="9.155" height="61.86">
				<feFlood  style="flood-color:white;flood-opacity:1" result="back"/>
				<feBlend  in="SourceGraphic" in2="back" mode="normal"/>
			</filter>
		</defs>
		<mask maskUnits="userSpaceOnUse" x="27.2" y="52.819" width="9.155" height="61.86" id="SVGID_1_">
		</mask>
		<linearGradient id="SVGID_2_" gradientUnits="userSpaceOnUse" x1="32.668" y1="56.2944" x2="31.2257" y2="122.6407">
			<stop  offset="0.129" style="stop-color:#808080"/>
			<stop  offset="0.2557" style="stop-color:#7A7A7A"/>
			<stop  offset="0.4232" style="stop-color:#696969"/>
			<stop  offset="0.6134" style="stop-color:#4E4E4E"/>
			<stop  offset="0.819" style="stop-color:#282828"/>
			<stop  offset="1" style="stop-color:#000000"/>
		</linearGradient>
		<path mask="url(#SVGID_1_)" fill="url(#SVGID_2_)" d="M30.401,52.819c0,0-0.145,0.953-0.319,2.628
			c-0.08,0.838-0.184,1.855-0.265,3.024c-0.087,1.167-0.174,2.487-0.229,3.927c-0.084,1.437-0.091,2.999-0.135,4.646
			c0.004,1.65-0.018,3.385,0.038,5.18c0.057,1.796,0.097,3.648,0.237,5.527c0.061,0.938,0.108,1.885,0.181,2.833
			c0.09,0.947,0.18,1.898,0.27,2.848c0.149,1.902,0.431,3.791,0.664,5.65c0.061,0.465,0.119,0.927,0.18,1.39
			c0.075,0.457,0.151,0.913,0.226,1.365c0.152,0.904,0.303,1.8,0.45,2.677c0.141,0.88,0.289,1.742,0.479,2.578
			c0.176,0.839,0.348,1.657,0.516,2.455c0.173,0.796,0.316,1.574,0.499,2.318c0.19,0.741,0.374,1.455,0.55,2.146
			c0.362,1.369,0.651,2.635,0.98,3.737c0.338,1.099,0.632,2.059,0.874,2.847c0.483,1.574,0.759,2.476,0.759,2.476l-5.729,1.605
			c0,0-0.197-0.969-0.544-2.661c-0.171-0.843-0.381-1.868-0.62-3.044c-0.23-1.177-0.405-2.52-0.642-3.972
			c-0.113-0.728-0.23-1.485-0.353-2.269c-0.113-0.785-0.186-1.604-0.284-2.439c-0.093-0.835-0.188-1.693-0.285-2.573
			c-0.11-0.875-0.178-1.774-0.236-2.689c-0.063-0.913-0.128-1.843-0.193-2.784c-0.032-0.47-0.064-0.941-0.096-1.417
			c-0.016-0.476-0.031-0.954-0.048-1.435c-0.054-1.92-0.153-3.865-0.119-5.815c0.003-0.971,0.005-1.942,0.009-2.912
			c0.019-0.968,0.063-1.933,0.093-2.888c0.043-1.911,0.183-3.787,0.3-5.601c0.12-1.813,0.311-3.561,0.467-5.214
			c0.205-1.654,0.363-3.216,0.587-4.65C29.463,56.565,30.401,52.819,30.401,52.819z"/>
	</g>
</mask>
<linearGradient id="SVGID_3_" gradientUnits="userSpaceOnUse" x1="32.668" y1="56.2944" x2="31.2257" y2="122.6407">
	<stop  offset="0.129" style="stop-color:#B3A256"/>
	<stop  offset="0.2352" style="stop-color:#B6A55C"/>
	<stop  offset="0.3757" style="stop-color:#BDAE6D"/>
	<stop  offset="0.5352" style="stop-color:#C9BE88"/>
	<stop  offset="0.709" style="stop-color:#DBD3AE"/>
	<stop  offset="0.8921" style="stop-color:#F1EDDF"/>
	<stop  offset="1" style="stop-color:#FFFFFF"/>
</linearGradient>
<path fill="url(#SVGID_3_)" d="M30.401,52.819c0,0-0.145,0.953-0.319,2.628c-0.08,0.838-0.184,1.855-0.265,3.024
	c-0.087,1.167-0.174,2.487-0.229,3.927c-0.084,1.437-0.091,2.999-0.135,4.646c0.004,1.65-0.018,3.385,0.038,5.18
	c0.057,1.796,0.097,3.648,0.237,5.527c0.061,0.938,0.108,1.885,0.181,2.833c0.09,0.947,0.18,1.898,0.27,2.848
	c0.149,1.902,0.431,3.791,0.664,5.65c0.061,0.465,0.119,0.927,0.18,1.39c0.075,0.457,0.151,0.913,0.226,1.365
	c0.152,0.904,0.303,1.8,0.45,2.677c0.141,0.88,0.289,1.742,0.479,2.578c0.176,0.839,0.348,1.657,0.516,2.455
	c0.173,0.796,0.316,1.574,0.499,2.318c0.19,0.741,0.374,1.455,0.55,2.146c0.362,1.369,0.651,2.635,0.98,3.737
	c0.338,1.099,0.632,2.059,0.874,2.847c0.483,1.574,0.759,2.476,0.759,2.476l-5.729,1.605c0,0-0.197-0.969-0.544-2.661
	c-0.171-0.843-0.381-1.868-0.62-3.044c-0.23-1.177-0.405-2.52-0.642-3.972c-0.113-0.728-0.23-1.485-0.353-2.269
	c-0.113-0.785-0.186-1.604-0.284-2.439c-0.093-0.835-0.188-1.693-0.285-2.573c-0.11-0.875-0.178-1.774-0.236-2.689
	c-0.063-0.913-0.128-1.843-0.193-2.784c-0.032-0.47-0.064-0.941-0.096-1.417c-0.016-0.476-0.031-0.954-0.048-1.435
	c-0.054-1.92-0.153-3.865-0.119-5.815c0.003-0.971,0.005-1.942,0.009-2.912c0.019-0.968,0.063-1.933,0.093-2.888
	c0.043-1.911,0.183-3.787,0.3-5.601c0.12-1.813,0.311-3.561,0.467-5.214c0.205-1.654,0.363-3.216,0.587-4.65
	C29.463,56.565,30.401,52.819,30.401,52.819z"/>
<defs>
	<filter id="Adobe_OpacityMaskFilter_2_" filterUnits="userSpaceOnUse" x="69.649" y="52.819" width="9.154" height="61.86">
		<feFlood  style="flood-color:white;flood-opacity:1" result="back"/>
		<feBlend  in="SourceGraphic" in2="back" mode="normal"/>
	</filter>
</defs>
<mask maskUnits="userSpaceOnUse" x="69.649" y="52.819" width="9.154" height="61.86" id="SVGID_4_">
	<g filter="url(#Adobe_OpacityMaskFilter_2_)">
		<defs>
			<filter id="Adobe_OpacityMaskFilter_3_" filterUnits="userSpaceOnUse" x="69.649" y="52.819" width="9.154" height="61.86">
				<feFlood  style="flood-color:white;flood-opacity:1" result="back"/>
				<feBlend  in="SourceGraphic" in2="back" mode="normal"/>
			</filter>
		</defs>
		<mask maskUnits="userSpaceOnUse" x="69.649" y="52.819" width="9.154" height="61.86" id="SVGID_4_">
		</mask>
		
			<linearGradient id="SVGID_5_" gradientUnits="userSpaceOnUse" x1="411.209" y1="56.2944" x2="409.7667" y2="122.6417" gradientTransform="matrix(-1 0 0 1 484.5469 0)">
			<stop  offset="0.129" style="stop-color:#808080"/>
			<stop  offset="0.2557" style="stop-color:#7A7A7A"/>
			<stop  offset="0.4232" style="stop-color:#696969"/>
			<stop  offset="0.6134" style="stop-color:#4E4E4E"/>
			<stop  offset="0.819" style="stop-color:#282828"/>
			<stop  offset="1" style="stop-color:#000000"/>
		</linearGradient>
		<path mask="url(#SVGID_4_)" fill="url(#SVGID_5_)" d="M75.603,52.819c0,0,0.145,0.953,0.318,2.628
			c0.08,0.838,0.184,1.855,0.266,3.024c0.086,1.167,0.174,2.487,0.229,3.927c0.086,1.437,0.092,2.999,0.137,4.646
			c-0.004,1.65,0.018,3.385-0.039,5.18c-0.057,1.796-0.098,3.648-0.236,5.527c-0.063,0.938-0.109,1.885-0.182,2.833
			c-0.088,0.947-0.18,1.898-0.27,2.848c-0.148,1.902-0.43,3.791-0.664,5.65c-0.059,0.465-0.119,0.927-0.18,1.39
			c-0.076,0.457-0.15,0.913-0.225,1.365c-0.154,0.904-0.303,1.8-0.451,2.677c-0.143,0.88-0.289,1.742-0.479,2.578
			c-0.176,0.839-0.35,1.657-0.516,2.455c-0.174,0.796-0.318,1.574-0.499,2.318c-0.191,0.741-0.374,1.455-0.55,2.146
			c-0.363,1.369-0.651,2.635-0.981,3.737c-0.339,1.099-0.633,2.059-0.874,2.847c-0.482,1.574-0.758,2.476-0.758,2.476l5.729,1.605
			c0,0,0.197-0.969,0.543-2.661c0.172-0.843,0.381-1.868,0.621-3.044c0.23-1.177,0.404-2.52,0.641-3.972
			c0.113-0.728,0.23-1.485,0.354-2.269c0.113-0.785,0.186-1.604,0.283-2.439c0.094-0.835,0.188-1.693,0.287-2.573
			c0.109-0.875,0.176-1.774,0.234-2.689c0.063-0.913,0.129-1.843,0.195-2.784c0.031-0.47,0.063-0.941,0.096-1.417
			c0.014-0.476,0.029-0.954,0.047-1.435c0.055-1.92,0.152-3.865,0.117-5.815c-0.002-0.971-0.004-1.942-0.008-2.912
			c-0.018-0.968-0.063-1.933-0.092-2.888c-0.043-1.911-0.184-3.787-0.301-5.601c-0.119-1.813-0.311-3.561-0.467-5.214
			c-0.205-1.654-0.363-3.216-0.588-4.65C76.542,56.565,75.603,52.819,75.603,52.819z"/>
	</g>
</mask>
<linearGradient id="SVGID_6_" gradientUnits="userSpaceOnUse" x1="411.209" y1="56.2944" x2="409.7667" y2="122.6417" gradientTransform="matrix(-1 0 0 1 484.5469 0)">
	<stop  offset="0.129" style="stop-color:#B3A256"/>
	<stop  offset="0.2352" style="stop-color:#B6A55C"/>
	<stop  offset="0.3757" style="stop-color:#BDAE6D"/>
	<stop  offset="0.5352" style="stop-color:#C9BE88"/>
	<stop  offset="0.709" style="stop-color:#DBD3AE"/>
	<stop  offset="0.8921" style="stop-color:#F1EDDF"/>
	<stop  offset="1" style="stop-color:#FFFFFF"/>
</linearGradient>
<path fill="url(#SVGID_6_)" d="M75.603,52.819c0,0,0.145,0.953,0.318,2.628c0.08,0.838,0.184,1.855,0.266,3.024
	c0.086,1.167,0.174,2.487,0.229,3.927c0.086,1.437,0.092,2.999,0.137,4.646c-0.004,1.65,0.018,3.385-0.039,5.18
	c-0.057,1.796-0.098,3.648-0.236,5.527c-0.063,0.938-0.109,1.885-0.182,2.833c-0.088,0.947-0.18,1.898-0.27,2.848
	c-0.148,1.902-0.43,3.791-0.664,5.65c-0.059,0.465-0.119,0.927-0.18,1.39c-0.076,0.457-0.15,0.913-0.225,1.365
	c-0.154,0.904-0.303,1.8-0.451,2.677c-0.143,0.88-0.289,1.742-0.479,2.578c-0.176,0.839-0.35,1.657-0.516,2.455
	c-0.174,0.796-0.318,1.574-0.499,2.318c-0.191,0.741-0.374,1.455-0.55,2.146c-0.363,1.369-0.651,2.635-0.981,3.737
	c-0.339,1.099-0.633,2.059-0.874,2.847c-0.482,1.574-0.758,2.476-0.758,2.476l5.729,1.605c0,0,0.197-0.969,0.543-2.661
	c0.172-0.843,0.381-1.868,0.621-3.044c0.23-1.177,0.404-2.52,0.641-3.972c0.113-0.728,0.23-1.485,0.354-2.269
	c0.113-0.785,0.186-1.604,0.283-2.439c0.094-0.835,0.188-1.693,0.287-2.573c0.109-0.875,0.176-1.774,0.234-2.689
	c0.063-0.913,0.129-1.843,0.195-2.784c0.031-0.47,0.063-0.941,0.096-1.417c0.014-0.476,0.029-0.954,0.047-1.435
	c0.055-1.92,0.152-3.865,0.117-5.815c-0.002-0.971-0.004-1.942-0.008-2.912c-0.018-0.968-0.063-1.933-0.092-2.888
	c-0.043-1.911-0.184-3.787-0.301-5.601c-0.119-1.813-0.311-3.561-0.467-5.214c-0.205-1.654-0.363-3.216-0.588-4.65
	C76.542,56.565,75.603,52.819,75.603,52.819z"/>
<g>
	<path fill="#DB5442" d="M49.78,48.206c-1.195-0.035-1.999,1.168-1.792,2.738c0.207,1.572,1.344,2.67,2.541,2.707
		c1.196,0.035,1.884-0.976,1.679-2.549C52.001,49.531,50.978,48.242,49.78,48.206z"/>
	<path fill="#DB5442" d="M50.284,56.867c-1.784-0.021-3.295,1.125-3.295,2.455c0,1.355,1.289,2.484,3.071,2.484
		c2.508,0,3.381-1.059,3.381-2.417c0-0.164-0.021-0.324-0.057-0.478c-0.197-0.767-0.977-1.188-1.946-1.861
		C51.087,56.936,50.699,56.871,50.284,56.867z"/>
	<path fill="#DB5442" d="M52.841,39.95c-8.32,0-15.065,6.745-15.065,15.065c0,8.321,6.745,15.063,15.065,15.063
		s15.065-6.742,15.065-15.063C67.906,46.695,61.161,39.95,52.841,39.95z M53.991,51.036c0,0.981-0.544,1.772-1.311,2.372
		c-0.751,0.587-0.893,0.831-0.893,1.33c0,0.425,0.896,1.058,1.308,1.366c1.435,1.075,1.725,1.751,1.725,3.096
		c0,1.679-1.809,3.347-4.75,3.347c-2.58,0-4.757-1.048-4.757-2.727c0-1.703,1.805-3.479,4.386-3.479
		c0.281,0,0.538-0.007,0.806-0.007c-0.354-0.342-0.638-0.638-0.638-1.157c0-0.308,0.098-0.603,0.234-0.865
		c-0.14,0.009-0.283,0.019-0.43,0.019c-2.119,0-3.354-1.491-3.354-3.356c0-1.828,1.878-3.49,4.131-3.49c1.161,0,4.44,0,4.44,0
		l-0.991,1.043h-1.166C53.555,48.996,53.991,49.965,53.991,51.036z M60.368,50.762h-2.05v2.047h-1.024v-2.047h-2.047v-1.025h2.047
		v-2.048h1.024v2.048h2.05V50.762z"/>
</g>
</svg>
