<?xml version="1.0" encoding="utf-8"?>
<!-- Generator: Adobe Illustrator 16.0.0, SVG Export Plug-In . SVG Version: 6.00 Build 0)  -->
<!DOCTYPE svg PUBLIC "-//W3C//DTD SVG 1.1//EN" "http://www.w3.org/Graphics/SVG/1.1/DTD/svg11.dtd">
<svg version="1.1" id="Layer_1" xmlns="http://www.w3.org/2000/svg" xmlns:xlink="http://www.w3.org/1999/xlink" x="0px" y="0px"
	 width="106px" height="143px" viewBox="0 0 106 143" enable-background="new 0 0 106 143" xml:space="preserve">
<g>
	<polygon fill="#E6E7E8" points="29.444,69.71 7.492,86.406 7.492,107.815 29.444,97.657 	"/>
</g>
<g>
	<polygon fill="#E6E7E8" points="76.554,69.71 98.507,86.406 98.507,107.815 76.554,97.657 	"/>
</g>
<g>
	<polygon fill="#D1D3D4" points="25.551,82.881 3.6,99.574 3.6,120.98 25.551,110.82 	"/>
</g>
<g>
	<polygon fill="#D1D3D4" points="80.447,82.881 102.4,99.574 102.4,120.98 80.447,110.82 	"/>
</g>
<path fill="#5372AF" d="M52.514,0.488c-0.313,0.323-0.827,0.8-1.385,1.423c-0.582,0.624-1.293,1.392-2.051,2.296
	c-0.387,0.451-0.801,0.936-1.242,1.455c-0.412,0.518-0.85,1.068-1.312,1.65c-1.874,2.326-3.901,5.151-6.001,8.392
	c-2.093,3.241-4.22,6.896-6.236,10.886c-2.024,3.988-3.914,8.309-5.633,12.878c-1.699,4.571-3.177,9.39-4.379,14.375
	c-2.424,9.971-3.668,20.607-3.688,31.251c-0.006,5.318,0.28,10.639,0.89,15.876c0.593,5.234,1.524,10.386,2.714,15.372
	c0.768,3.218,1.67,6.357,2.66,9.414c7.967-3.422,16.821-5.332,26.15-5.332V0C53.002,0,52.836,0.167,52.514,0.488z"/>
<path fill="#30559E" d="M81.728,53.844c-1.202-4.986-2.68-9.805-4.38-14.375c-1.719-4.569-3.607-8.891-5.633-12.878
	c-2.016-3.989-4.142-7.645-6.234-10.886c-2.101-3.241-4.127-6.066-6.002-8.392c-0.462-0.582-0.898-1.132-1.31-1.65
	c-0.443-0.519-0.858-1.004-1.244-1.455c-0.757-0.904-1.47-1.673-2.05-2.296c-0.559-0.623-1.073-1.1-1.385-1.423
	C53.168,0.167,53.002,0,53.002,0v120.425c9.329,0,18.184,1.91,26.148,5.332c0.99-3.057,1.893-6.196,2.661-9.414
	c1.189-4.986,2.121-10.138,2.713-15.372c0.61-5.237,0.897-10.558,0.891-15.876C85.396,74.451,84.151,63.815,81.728,53.844z"/>
<path fill="#D1D3D4" d="M53.804,80.897c0,0,0.181,0.235,0.468,0.677c0.296,0.441,0.679,1.088,1.129,1.911
	c0.884,1.646,1.919,3.997,2.723,6.82c0.408,1.411,0.771,2.939,1.039,4.558c0.279,1.616,0.459,3.321,0.429,5.086
	c-0.026,1.763-0.31,3.585-0.637,5.438c-0.33,1.851-0.655,3.734-0.85,5.613c-0.386,3.763-0.808,7.526-1.285,11.056
	c-0.25,1.764-0.492,3.469-0.722,5.084c-0.243,1.617-0.473,3.146-0.685,4.557c-0.207,1.411-0.44,2.704-0.624,3.851
	c-0.185,1.146-0.355,2.146-0.508,2.969c-0.304,1.646-0.478,2.587-0.478,2.587h-1.228c0,0-0.174-0.941-0.479-2.587
	c-0.152-0.823-0.322-1.822-0.509-2.969c-0.183-1.146-0.415-2.439-0.623-3.851c-0.212-1.41-0.442-2.939-0.685-4.557
	c-0.23-1.615-0.472-3.32-0.722-5.084c-0.476-3.529-0.899-7.293-1.284-11.055c-0.196-1.881-0.52-3.762-0.85-5.614
	c-0.328-1.853-0.609-3.674-0.637-5.438c-0.031-1.764,0.149-3.47,0.428-5.085c0.27-1.618,0.631-3.147,1.04-4.561
	c0.803-2.821,1.839-5.172,2.721-6.818c0.452-0.823,0.834-1.47,1.13-1.911c0.287-0.439,0.467-0.677,0.467-0.677H53.804z"/>
<path opacity="0.5" fill="#523F45" d="M54.4,36.032c-10.34,0.086-18.682,8.57-18.594,18.91c0.09,10.345,8.573,18.686,18.915,18.599
	c10.339-0.088,18.679-8.572,18.589-18.916C73.223,44.283,64.739,35.943,54.4,36.032z"/>
<g>
	<path fill="#6492B3" d="M52.813,35.482c-12.192,0.103-22.028,10.106-21.925,22.299c0.105,12.197,10.109,22.039,22.303,21.935
		c12.191-0.102,22.027-10.112,21.923-22.309C75.012,45.211,65.007,35.379,52.813,35.482z"/>
	<path fill="#FFFFFF" d="M52.873,42.232c-8.475,0.069-15.309,7.021-15.238,15.492c0.073,8.479,7.024,15.31,15.5,15.235
		c8.471-0.072,15.31-7.019,15.234-15.498C68.298,48.993,61.344,42.158,52.873,42.232z"/>
	<path fill="#FFFFFF" d="M46.797,71.649c1.938,0.858,4.082,1.333,6.338,1.311c8.471-0.072,15.31-7.019,15.234-15.498
		c-0.026-3.013-0.926-5.815-2.449-8.177c-0.279,0.222-0.562,0.442-0.839,0.667C58.401,55.381,50.002,62.885,46.797,71.649z"/>
</g>
<circle fill="#AB9882" cx="53.002" cy="20.642" r="6.905"/>
<circle fill="#C9BDAF" cx="53.001" cy="20.642" r="4.108"/>
<defs>
	<filter id="Adobe_OpacityMaskFilter" filterUnits="userSpaceOnUse" x="26.107" y="55.06" width="9.543" height="64.486">
		<feFlood  style="flood-color:white;flood-opacity:1" result="back"/>
		<feBlend  in="SourceGraphic" in2="back" mode="normal"/>
	</filter>
</defs>
<mask maskUnits="userSpaceOnUse" x="26.107" y="55.06" width="9.543" height="64.486" id="SVGID_1_">
	<g filter="url(#Adobe_OpacityMaskFilter)">
		<defs>
			<filter id="Adobe_OpacityMaskFilter_1_" filterUnits="userSpaceOnUse" x="26.107" y="55.06" width="9.543" height="64.486">
				<feFlood  style="flood-color:white;flood-opacity:1" result="back"/>
				<feBlend  in="SourceGraphic" in2="back" mode="normal"/>
			</filter>
		</defs>
		<mask maskUnits="userSpaceOnUse" x="26.107" y="55.06" width="9.543" height="64.486" id="SVGID_1_">
		</mask>
		<linearGradient id="SVGID_2_" gradientUnits="userSpaceOnUse" x1="31.8066" y1="58.6816" x2="30.303" y2="127.8527">
			<stop  offset="0.129" style="stop-color:#808080"/>
			<stop  offset="0.2557" style="stop-color:#7A7A7A"/>
			<stop  offset="0.4232" style="stop-color:#696969"/>
			<stop  offset="0.6134" style="stop-color:#4E4E4E"/>
			<stop  offset="0.819" style="stop-color:#282828"/>
			<stop  offset="1" style="stop-color:#000000"/>
		</linearGradient>
		<path mask="url(#SVGID_1_)" fill="url(#SVGID_2_)" d="M29.444,55.058c0,0-0.151,0.994-0.333,2.74
			c-0.084,0.873-0.19,1.934-0.275,3.152c-0.091,1.217-0.182,2.592-0.24,4.094c-0.087,1.498-0.094,3.126-0.141,4.842
			c0.006,1.722-0.018,3.533,0.041,5.405c0.059,1.873,0.102,3.807,0.246,5.767c0.064,0.979,0.113,1.967,0.189,2.955
			c0.094,0.987,0.188,1.979,0.281,2.969c0.154,1.982,0.448,3.952,0.691,5.891c0.063,0.484,0.125,0.967,0.188,1.448
			c0.079,0.477,0.158,0.951,0.235,1.423c0.159,0.943,0.315,1.876,0.47,2.791c0.146,0.917,0.301,1.815,0.499,2.687
			c0.184,0.874,0.362,1.728,0.538,2.56c0.18,0.829,0.33,1.641,0.52,2.416c0.199,0.772,0.391,1.519,0.574,2.236
			c0.377,1.429,0.678,2.747,1.021,3.896c0.352,1.146,0.658,2.145,0.91,2.967c0.505,1.642,0.791,2.581,0.791,2.581l-5.971,1.672
			c0,0-0.206-1.009-0.566-2.771c-0.18-0.88-0.397-1.948-0.646-3.175c-0.24-1.226-0.424-2.625-0.67-4.14
			c-0.117-0.758-0.24-1.548-0.366-2.364c-0.119-0.818-0.194-1.671-0.297-2.542c-0.097-0.872-0.195-1.767-0.298-2.683
			c-0.115-0.912-0.184-1.851-0.245-2.805c-0.066-0.951-0.134-1.921-0.203-2.901c-0.033-0.489-0.065-0.981-0.099-1.477
			c-0.017-0.496-0.033-0.995-0.049-1.496c-0.059-2.002-0.161-4.029-0.125-6.062c0.003-1.014,0.005-2.027,0.008-3.037
			c0.02-1.009,0.066-2.015,0.098-3.011c0.045-1.994,0.19-3.951,0.313-5.845c0.125-1.891,0.324-3.713,0.486-5.439
			c0.214-1.724,0.379-3.353,0.611-4.848C28.466,58.963,29.444,55.058,29.444,55.058z"/>
	</g>
</mask>
<linearGradient id="SVGID_3_" gradientUnits="userSpaceOnUse" x1="31.8066" y1="58.6816" x2="30.303" y2="127.8527">
	<stop  offset="0.129" style="stop-color:#E4EBB9"/>
	<stop  offset="0.3134" style="stop-color:#E6EDBF"/>
	<stop  offset="0.5571" style="stop-color:#EDF1D0"/>
	<stop  offset="0.8327" style="stop-color:#F7F9EB"/>
	<stop  offset="1" style="stop-color:#FFFFFF"/>
</linearGradient>
<path fill="url(#SVGID_3_)" d="M29.444,55.058c0,0-0.151,0.994-0.333,2.74c-0.084,0.873-0.19,1.934-0.275,3.152
	c-0.091,1.217-0.182,2.592-0.24,4.094c-0.087,1.498-0.094,3.126-0.141,4.842c0.006,1.722-0.018,3.533,0.041,5.405
	c0.059,1.873,0.102,3.807,0.246,5.767c0.064,0.979,0.113,1.967,0.189,2.955c0.094,0.987,0.188,1.979,0.281,2.969
	c0.154,1.982,0.448,3.952,0.691,5.891c0.063,0.484,0.125,0.967,0.188,1.448c0.079,0.477,0.158,0.951,0.235,1.423
	c0.159,0.943,0.315,1.876,0.47,2.791c0.146,0.917,0.301,1.815,0.499,2.687c0.184,0.874,0.362,1.728,0.538,2.56
	c0.18,0.829,0.33,1.641,0.52,2.416c0.199,0.772,0.391,1.519,0.574,2.236c0.377,1.429,0.678,2.747,1.021,3.896
	c0.352,1.146,0.658,2.145,0.91,2.967c0.505,1.642,0.791,2.581,0.791,2.581l-5.971,1.672c0,0-0.206-1.009-0.566-2.771
	c-0.18-0.88-0.397-1.948-0.646-3.175c-0.24-1.226-0.424-2.625-0.67-4.14c-0.117-0.758-0.24-1.548-0.366-2.364
	c-0.119-0.818-0.194-1.671-0.297-2.542c-0.097-0.872-0.195-1.767-0.298-2.683c-0.115-0.912-0.184-1.851-0.245-2.805
	c-0.066-0.951-0.134-1.921-0.203-2.901c-0.033-0.489-0.065-0.981-0.099-1.477c-0.017-0.496-0.033-0.995-0.049-1.496
	c-0.059-2.002-0.161-4.029-0.125-6.062c0.003-1.014,0.005-2.027,0.008-3.037c0.02-1.009,0.066-2.015,0.098-3.011
	c0.045-1.994,0.19-3.951,0.313-5.845c0.125-1.891,0.324-3.713,0.486-5.439c0.214-1.724,0.379-3.353,0.611-4.848
	C28.466,58.963,29.444,55.058,29.444,55.058z"/>
<defs>
	<filter id="Adobe_OpacityMaskFilter_2_" filterUnits="userSpaceOnUse" x="70.354" y="55.06" width="9.543" height="64.486">
		<feFlood  style="flood-color:white;flood-opacity:1" result="back"/>
		<feBlend  in="SourceGraphic" in2="back" mode="normal"/>
	</filter>
</defs>
<mask maskUnits="userSpaceOnUse" x="70.354" y="55.06" width="9.543" height="64.486" id="SVGID_4_">
	<g filter="url(#Adobe_OpacityMaskFilter_2_)">
		<defs>
			<filter id="Adobe_OpacityMaskFilter_3_" filterUnits="userSpaceOnUse" x="70.354" y="55.06" width="9.543" height="64.486">
				<feFlood  style="flood-color:white;flood-opacity:1" result="back"/>
				<feBlend  in="SourceGraphic" in2="back" mode="normal"/>
			</filter>
		</defs>
		<mask maskUnits="userSpaceOnUse" x="70.354" y="55.06" width="9.543" height="64.486" id="SVGID_4_">
		</mask>
		
			<linearGradient id="SVGID_5_" gradientUnits="userSpaceOnUse" x1="-93.6519" y1="58.6821" x2="-95.1555" y2="127.8532" gradientTransform="matrix(-1 0 0 1 -19.4531 0)">
			<stop  offset="0.129" style="stop-color:#808080"/>
			<stop  offset="0.2557" style="stop-color:#7A7A7A"/>
			<stop  offset="0.4232" style="stop-color:#696969"/>
			<stop  offset="0.6134" style="stop-color:#4E4E4E"/>
			<stop  offset="0.819" style="stop-color:#282828"/>
			<stop  offset="1" style="stop-color:#000000"/>
		</linearGradient>
		<path mask="url(#SVGID_4_)" fill="url(#SVGID_5_)" d="M76.56,55.058c0,0,0.15,0.994,0.332,2.74
			c0.084,0.873,0.19,1.934,0.277,3.152c0.089,1.217,0.18,2.592,0.238,4.094c0.089,1.498,0.095,3.126,0.142,4.842
			c-0.006,1.722,0.019,3.533-0.04,5.405c-0.06,1.873-0.103,3.807-0.247,5.767c-0.063,0.979-0.113,1.967-0.19,2.955
			c-0.093,0.987-0.187,1.979-0.279,2.969c-0.155,1.982-0.449,3.952-0.692,5.891c-0.063,0.484-0.126,0.967-0.188,1.448
			c-0.078,0.477-0.157,0.951-0.236,1.423c-0.157,0.943-0.314,1.876-0.468,2.791c-0.148,0.917-0.303,1.815-0.5,2.687
			c-0.184,0.874-0.362,1.728-0.537,2.56c-0.181,0.829-0.331,1.641-0.521,2.416c-0.198,0.772-0.39,1.519-0.573,2.236
			c-0.378,1.429-0.679,2.747-1.023,3.896c-0.352,1.146-0.658,2.145-0.91,2.967c-0.503,1.642-0.79,2.581-0.79,2.581l5.971,1.672
			c0,0,0.207-1.009,0.567-2.771c0.179-0.88,0.396-1.948,0.646-3.175c0.239-1.226,0.423-2.625,0.669-4.14
			c0.117-0.758,0.239-1.548,0.367-2.364c0.118-0.818,0.192-1.671,0.297-2.542c0.096-0.872,0.195-1.767,0.296-2.683
			c0.116-0.912,0.185-1.851,0.246-2.805c0.066-0.951,0.134-1.921,0.203-2.901c0.032-0.489,0.066-0.981,0.1-1.477
			c0.016-0.496,0.032-0.995,0.049-1.496c0.057-2.002,0.16-4.029,0.125-6.062c-0.004-1.014-0.007-2.027-0.009-3.037
			c-0.02-1.009-0.065-2.015-0.098-3.011c-0.045-1.994-0.19-3.951-0.313-5.845c-0.124-1.891-0.324-3.713-0.485-5.439
			c-0.214-1.724-0.378-3.353-0.612-4.848C77.538,58.963,76.559,55.058,76.56,55.058z"/>
	</g>
</mask>
<linearGradient id="SVGID_6_" gradientUnits="userSpaceOnUse" x1="-93.6519" y1="58.6821" x2="-95.1555" y2="127.8532" gradientTransform="matrix(-1 0 0 1 -19.4531 0)">
	<stop  offset="0.129" style="stop-color:#E4EBB9"/>
	<stop  offset="0.3134" style="stop-color:#E6EDBF"/>
	<stop  offset="0.5571" style="stop-color:#EDF1D0"/>
	<stop  offset="0.8327" style="stop-color:#F7F9EB"/>
	<stop  offset="1" style="stop-color:#FFFFFF"/>
</linearGradient>
<path fill="url(#SVGID_6_)" d="M76.56,55.058c0,0,0.15,0.994,0.332,2.74c0.084,0.873,0.19,1.934,0.277,3.152
	c0.089,1.217,0.18,2.592,0.238,4.094c0.089,1.498,0.095,3.126,0.142,4.842c-0.006,1.722,0.019,3.533-0.04,5.405
	c-0.06,1.873-0.103,3.807-0.247,5.767c-0.063,0.979-0.113,1.967-0.19,2.955c-0.093,0.987-0.187,1.979-0.279,2.969
	c-0.155,1.982-0.449,3.952-0.692,5.891c-0.063,0.484-0.126,0.967-0.188,1.448c-0.078,0.477-0.157,0.951-0.236,1.423
	c-0.157,0.943-0.314,1.876-0.468,2.791c-0.148,0.917-0.303,1.815-0.5,2.687c-0.184,0.874-0.362,1.728-0.537,2.56
	c-0.181,0.829-0.331,1.641-0.521,2.416c-0.198,0.772-0.39,1.519-0.573,2.236c-0.378,1.429-0.679,2.747-1.023,3.896
	c-0.352,1.146-0.658,2.145-0.91,2.967c-0.503,1.642-0.79,2.581-0.79,2.581l5.971,1.672c0,0,0.207-1.009,0.567-2.771
	c0.179-0.88,0.396-1.948,0.646-3.175c0.239-1.226,0.423-2.625,0.669-4.14c0.117-0.758,0.239-1.548,0.367-2.364
	c0.118-0.818,0.192-1.671,0.297-2.542c0.096-0.872,0.195-1.767,0.296-2.683c0.116-0.912,0.185-1.851,0.246-2.805
	c0.066-0.951,0.134-1.921,0.203-2.901c0.032-0.489,0.066-0.981,0.1-1.477c0.016-0.496,0.032-0.995,0.049-1.496
	c0.057-2.002,0.16-4.029,0.125-6.062c-0.004-1.014-0.007-2.027-0.009-3.037c-0.02-1.009-0.065-2.015-0.098-3.011
	c-0.045-1.994-0.19-3.951-0.313-5.845c-0.124-1.891-0.324-3.713-0.485-5.439c-0.214-1.724-0.378-3.353-0.612-4.848
	C77.538,58.963,76.559,55.058,76.56,55.058z"/>
<path fill="#36609F" d="M52.873,41.25c-9.071,0-16.426,7.355-16.426,16.426c0,9.073,7.354,16.427,16.426,16.427
	s16.425-7.354,16.425-16.427C69.298,48.605,61.944,41.25,52.873,41.25z M56.392,57.681H54.09c0,3.678,0,8.207,0,8.207h-3.41
	c0,0,0-4.483,0-8.207h-1.623v-2.898h1.623v-1.877c0-1.343,0.637-3.442,3.441-3.442l2.525,0.01v2.815c0,0-1.535,0-1.833,0
	c-0.299,0-0.724,0.148-0.724,0.79v1.705h2.601L56.392,57.681z"/>
</svg>
