<?xml version="1.0" encoding="utf-8"?>
<!-- Generator: Adobe Illustrator 16.0.0, SVG Export Plug-In . SVG Version: 6.00 Build 0)  -->
<!DOCTYPE svg PUBLIC "-//W3C//DTD SVG 1.1//EN" "http://www.w3.org/Graphics/SVG/1.1/DTD/svg11.dtd">
<svg version="1.1" id="Layer_1" xmlns="http://www.w3.org/2000/svg" xmlns:xlink="http://www.w3.org/1999/xlink" x="0px" y="0px"
	 width="106px" height="143px" viewBox="0 0 106 143" enable-background="new 0 0 106 143" xml:space="preserve">
<g>
	<polygon fill="#7FA4C0" points="30.907,68.617 9.313,85.033 9.313,106.09 30.907,96.099 	"/>
</g>
<g>
	<polygon fill="#7FA4C0" points="77.247,68.617 98.841,85.033 98.841,106.09 77.247,96.099 	"/>
</g>
<g>
	<polygon fill="#5BB1B3" points="27.077,81.564 5.483,97.984 5.483,119.042 27.077,109.048 	"/>
</g>
<g>
	<polygon fill="#5BB1B3" points="81.077,81.564 102.671,97.984 102.671,119.042 81.077,109.048 	"/>
</g>
<path fill="#99E9FF" d="M53.599,0.53c-0.308,0.318-0.813,0.787-1.362,1.399c-0.571,0.613-1.271,1.369-2.016,2.259
	c-0.381,0.443-0.789,0.92-1.224,1.431c-0.404,0.51-0.834,1.05-1.289,1.623c-1.844,2.287-3.838,5.067-5.903,8.254
	c-2.059,3.188-4.151,6.783-6.135,10.707c-1.991,3.922-3.849,8.173-5.54,12.668c-1.673,4.496-3.126,9.235-4.309,14.14
	c-2.383,9.807-3.607,20.264-3.626,30.731c-0.007,5.23,0.275,10.464,0.874,15.615c0.584,5.15,1.5,10.215,2.67,15.122
	c0.756,3.164,1.643,6.252,2.617,9.258c7.836-3.364,16.546-5.244,25.723-5.244V0.05C54.079,0.05,53.915,0.214,53.599,0.53z"/>
<path fill="#85E4FF" d="M82.335,53.012c-1.182-4.905-2.635-9.644-4.309-14.14c-1.689-4.496-3.547-8.746-5.541-12.668
	c-1.982-3.924-4.074-7.519-6.131-10.707c-2.066-3.188-4.061-5.967-5.902-8.254c-0.457-0.573-0.887-1.113-1.291-1.623
	c-0.434-0.511-0.844-0.987-1.223-1.431c-0.746-0.89-1.445-1.646-2.016-2.259c-0.551-0.613-1.056-1.082-1.363-1.399
	c-0.316-0.316-0.48-0.48-0.48-0.48v118.444c9.176,0,17.887,1.88,25.721,5.244c0.975-3.006,1.863-6.094,2.617-9.258
	c1.17-4.907,2.086-9.972,2.672-15.122c0.598-5.151,0.881-10.385,0.873-15.615C85.944,73.276,84.718,62.819,82.335,53.012z"/>
<path fill="#5BB1B3" d="M54.868,79.614c0,0,0.178,0.23,0.459,0.664c0.293,0.434,0.668,1.07,1.111,1.88
	c0.869,1.621,1.889,3.933,2.678,6.71c0.402,1.389,0.76,2.891,1.021,4.483c0.273,1.588,0.451,3.267,0.424,5.001
	s-0.307,3.527-0.627,5.35c-0.326,1.821-0.645,3.674-0.836,5.522c-0.379,3.702-0.795,7.401-1.266,10.874
	c-0.246,1.734-0.482,3.412-0.709,5.002c-0.238,1.589-0.465,3.094-0.674,4.481c-0.203,1.387-0.432,2.658-0.613,3.787
	c-0.182,1.128-0.35,2.11-0.5,2.919c-0.298,1.619-0.469,2.545-0.469,2.545H53.66c0,0-0.171-0.926-0.47-2.545
	c-0.15-0.809-0.318-1.791-0.502-2.919c-0.18-1.129-0.407-2.4-0.612-3.787c-0.208-1.388-0.435-2.893-0.673-4.481
	c-0.226-1.59-0.463-3.268-0.71-5.002c-0.468-3.473-0.884-7.172-1.265-10.872c-0.191-1.852-0.51-3.7-0.834-5.524
	c-0.323-1.822-0.601-3.612-0.627-5.35c-0.031-1.733,0.146-3.413,0.42-5.001c0.266-1.592,0.622-3.095,1.023-4.486
	c0.79-2.774,1.809-5.086,2.677-6.707c0.444-0.81,0.821-1.446,1.111-1.88c0.282-0.433,0.46-0.664,0.46-0.664H54.868z"/>
<path opacity="0.5" fill="#A0AEB3" d="M55.456,35.492c-10.172,0.084-18.377,8.43-18.291,18.599
	c0.088,10.176,8.434,18.375,18.605,18.288c10.17-0.085,18.373-8.425,18.285-18.6C73.97,43.607,65.626,35.404,55.456,35.492z"/>
<g>
	<path fill="#6492B3" d="M53.894,34.951c-11.992,0.102-21.668,9.941-21.566,21.934c0.104,11.995,9.945,21.669,21.938,21.567
		s21.667-9.939,21.563-21.936C75.729,44.521,65.89,34.85,53.894,34.951z"/>
	<path fill="#FFFFFF" d="M53.952,41.591c-8.336,0.068-15.058,6.906-14.988,15.239c0.072,8.339,6.908,15.052,15.245,14.98
		c8.335-0.071,15.06-6.898,14.987-15.238C69.126,48.24,62.284,41.518,53.952,41.591z"/>
	<path fill="#FFFFFF" d="M47.976,70.521c1.906,0.842,4.016,1.309,6.233,1.289c8.335-0.071,15.06-6.898,14.987-15.238
		c-0.027-2.965-0.91-5.721-2.41-8.044c-0.273,0.219-0.553,0.435-0.826,0.656C59.392,54.524,51.128,61.904,47.976,70.521z"/>
</g>
<circle fill="#6492B3" cx="54.079" cy="20.354" r="6.793"/>
<circle fill="#9CB9CE" cx="54.079" cy="20.354" r="4.041"/>
<defs>
	<filter id="Adobe_OpacityMaskFilter" filterUnits="userSpaceOnUse" x="27.628" y="54.205" width="9.387" height="63.431">
		<feFlood  style="flood-color:white;flood-opacity:1" result="back"/>
		<feBlend  in="SourceGraphic" in2="back" mode="normal"/>
	</filter>
</defs>
<mask maskUnits="userSpaceOnUse" x="27.628" y="54.205" width="9.387" height="63.431" id="SVGID_1_">
	<g filter="url(#Adobe_OpacityMaskFilter)">
		<defs>
			<filter id="Adobe_OpacityMaskFilter_1_" filterUnits="userSpaceOnUse" x="27.628" y="54.205" width="9.387" height="63.431">
				<feFlood  style="flood-color:white;flood-opacity:1" result="back"/>
				<feBlend  in="SourceGraphic" in2="back" mode="normal"/>
			</filter>
		</defs>
		<mask maskUnits="userSpaceOnUse" x="27.628" y="54.205" width="9.387" height="63.431" id="SVGID_1_">
		</mask>
		<linearGradient id="SVGID_2_" gradientUnits="userSpaceOnUse" x1="33.2295" y1="57.77" x2="31.7507" y2="125.799">
			<stop  offset="0.129" style="stop-color:#808080"/>
			<stop  offset="0.2557" style="stop-color:#7A7A7A"/>
			<stop  offset="0.4232" style="stop-color:#696969"/>
			<stop  offset="0.6134" style="stop-color:#4E4E4E"/>
			<stop  offset="0.819" style="stop-color:#282828"/>
			<stop  offset="1" style="stop-color:#000000"/>
		</linearGradient>
		<path mask="url(#SVGID_1_)" fill="url(#SVGID_2_)" d="M30.907,54.206c0,0-0.149,0.978-0.328,2.695
			c-0.082,0.859-0.188,1.902-0.271,3.101c-0.089,1.197-0.178,2.549-0.234,4.026c-0.087,1.473-0.094,3.074-0.139,4.762
			c0.004,1.69-0.02,3.469,0.039,5.311s0.1,3.741,0.243,5.668c0.063,0.964,0.111,1.936,0.186,2.907
			c0.092,0.973,0.184,1.948,0.276,2.922c0.152,1.949,0.441,3.887,0.682,5.793c0.061,0.478,0.121,0.951,0.184,1.425
			c0.076,0.469,0.154,0.936,0.23,1.4c0.156,0.928,0.311,1.845,0.463,2.745c0.145,0.901,0.297,1.786,0.49,2.642
			c0.182,0.861,0.356,1.7,0.529,2.519c0.178,0.817,0.324,1.614,0.512,2.376c0.195,0.761,0.383,1.494,0.564,2.2
			c0.371,1.406,0.668,2.703,1.004,3.834c0.348,1.127,0.648,2.109,0.896,2.918c0.496,1.615,0.778,2.538,0.778,2.538l-5.874,1.645
			c0,0-0.202-0.992-0.557-2.727c-0.176-0.864-0.391-1.917-0.637-3.122c-0.236-1.205-0.416-2.582-0.658-4.071
			c-0.115-0.745-0.236-1.521-0.36-2.327c-0.116-0.805-0.19-1.642-0.292-2.499c-0.096-0.858-0.192-1.739-0.293-2.641
			c-0.113-0.897-0.182-1.819-0.241-2.758c-0.065-0.938-0.132-1.89-0.198-2.854c-0.033-0.482-0.066-0.966-0.099-1.453
			c-0.017-0.488-0.031-0.979-0.048-1.472c-0.057-1.97-0.158-3.964-0.123-5.963c0.002-0.995,0.005-1.992,0.009-2.987
			c0.019-0.992,0.064-1.981,0.095-2.963c0.045-1.959,0.188-3.883,0.309-5.743c0.123-1.86,0.318-3.653,0.478-5.347
			c0.211-1.695,0.372-3.296,0.603-4.767C29.944,58.047,30.907,54.206,30.907,54.206z"/>
	</g>
</mask>
<path fill="#164257" d="M30.907,54.206c0,0-0.149,0.978-0.328,2.695c-0.082,0.859-0.188,1.902-0.271,3.101
	c-0.089,1.197-0.178,2.549-0.234,4.026c-0.087,1.473-0.094,3.074-0.139,4.762c0.004,1.69-0.02,3.469,0.039,5.311
	s0.1,3.741,0.243,5.668c0.063,0.964,0.111,1.936,0.186,2.907c0.092,0.973,0.184,1.948,0.276,2.922
	c0.152,1.949,0.441,3.887,0.682,5.793c0.061,0.478,0.121,0.951,0.184,1.425c0.076,0.469,0.154,0.936,0.23,1.4
	c0.156,0.928,0.311,1.845,0.463,2.745c0.145,0.901,0.297,1.786,0.49,2.642c0.182,0.861,0.356,1.7,0.529,2.519
	c0.178,0.817,0.324,1.614,0.512,2.376c0.195,0.761,0.383,1.494,0.564,2.2c0.371,1.406,0.668,2.703,1.004,3.834
	c0.348,1.127,0.648,2.109,0.896,2.918c0.496,1.615,0.778,2.538,0.778,2.538l-5.874,1.645c0,0-0.202-0.992-0.557-2.727
	c-0.176-0.864-0.391-1.917-0.637-3.122c-0.236-1.205-0.416-2.582-0.658-4.071c-0.115-0.745-0.236-1.521-0.36-2.327
	c-0.116-0.805-0.19-1.642-0.292-2.499c-0.096-0.858-0.192-1.739-0.293-2.641c-0.113-0.897-0.182-1.819-0.241-2.758
	c-0.065-0.938-0.132-1.89-0.198-2.854c-0.033-0.482-0.066-0.966-0.099-1.453c-0.017-0.488-0.031-0.979-0.048-1.472
	c-0.057-1.97-0.158-3.964-0.123-5.963c0.002-0.995,0.005-1.992,0.009-2.987c0.019-0.992,0.064-1.981,0.095-2.963
	c0.045-1.959,0.188-3.883,0.309-5.743c0.123-1.86,0.318-3.653,0.478-5.347c0.211-1.695,0.372-3.296,0.603-4.767
	C29.944,58.047,30.907,54.206,30.907,54.206z"/>
<defs>
	<filter id="Adobe_OpacityMaskFilter_2_" filterUnits="userSpaceOnUse" x="71.15" y="54.205" width="9.388" height="63.431">
		<feFlood  style="flood-color:white;flood-opacity:1" result="back"/>
		<feBlend  in="SourceGraphic" in2="back" mode="normal"/>
	</filter>
</defs>
<mask maskUnits="userSpaceOnUse" x="71.15" y="54.205" width="9.388" height="63.431" id="SVGID_3_">
	<g filter="url(#Adobe_OpacityMaskFilter_2_)">
		<defs>
			<filter id="Adobe_OpacityMaskFilter_3_" filterUnits="userSpaceOnUse" x="71.15" y="54.205" width="9.388" height="63.431">
				<feFlood  style="flood-color:white;flood-opacity:1" result="back"/>
				<feBlend  in="SourceGraphic" in2="back" mode="normal"/>
			</filter>
		</defs>
		<mask maskUnits="userSpaceOnUse" x="71.15" y="54.205" width="9.388" height="63.431" id="SVGID_3_">
		</mask>
		
			<linearGradient id="SVGID_4_" gradientUnits="userSpaceOnUse" x1="-346.3823" y1="57.77" x2="-347.8611" y2="125.799" gradientTransform="matrix(-1 0 0 1 -271.4531 0)">
			<stop  offset="0.129" style="stop-color:#808080"/>
			<stop  offset="0.2557" style="stop-color:#7A7A7A"/>
			<stop  offset="0.4232" style="stop-color:#696969"/>
			<stop  offset="0.6134" style="stop-color:#4E4E4E"/>
			<stop  offset="0.819" style="stop-color:#282828"/>
			<stop  offset="1" style="stop-color:#000000"/>
		</linearGradient>
		<path mask="url(#SVGID_3_)" fill="url(#SVGID_4_)" d="M77.253,54.206c0,0,0.148,0.978,0.324,2.695
			c0.084,0.859,0.189,1.902,0.273,3.101c0.09,1.197,0.178,2.549,0.236,4.026c0.086,1.473,0.092,3.074,0.139,4.762
			c-0.004,1.69,0.016,3.469-0.041,5.311s-0.1,3.741-0.242,5.668c-0.063,0.964-0.111,1.936-0.186,2.907
			c-0.092,0.973-0.184,1.948-0.277,2.922c-0.152,1.949-0.441,3.887-0.68,5.793c-0.061,0.478-0.123,0.951-0.184,1.425
			c-0.078,0.469-0.156,0.936-0.232,1.4c-0.156,0.928-0.311,1.845-0.461,2.745c-0.145,0.901-0.299,1.786-0.492,2.642
			c-0.182,0.861-0.357,1.7-0.527,2.519c-0.18,0.817-0.326,1.614-0.514,2.376c-0.195,0.761-0.383,1.494-0.563,2.2
			c-0.371,1.406-0.668,2.703-1.008,3.834c-0.346,1.127-0.646,2.109-0.895,2.918c-0.496,1.615-0.777,2.538-0.777,2.538l5.875,1.645
			c0,0,0.201-0.992,0.555-2.727c0.178-0.864,0.393-1.917,0.637-3.122c0.236-1.205,0.418-2.582,0.658-4.071
			c0.117-0.745,0.236-1.521,0.361-2.327c0.117-0.805,0.191-1.642,0.291-2.499c0.096-0.858,0.193-1.739,0.293-2.641
			c0.113-0.897,0.184-1.819,0.242-2.758c0.064-0.938,0.133-1.89,0.199-2.854c0.033-0.482,0.064-0.966,0.098-1.453
			c0.016-0.488,0.031-0.979,0.049-1.472c0.055-1.97,0.156-3.964,0.123-5.963c-0.004-0.995-0.006-1.992-0.01-2.987
			c-0.018-0.992-0.064-1.981-0.096-2.963c-0.043-1.959-0.188-3.883-0.309-5.743c-0.123-1.86-0.318-3.653-0.479-5.347
			c-0.209-1.695-0.371-3.296-0.6-4.767C78.214,58.047,77.253,54.206,77.253,54.206z"/>
	</g>
</mask>
<path fill="#164257" d="M77.253,54.206c0,0,0.148,0.978,0.324,2.695c0.084,0.859,0.189,1.902,0.273,3.101
	c0.09,1.197,0.178,2.549,0.236,4.026c0.086,1.473,0.092,3.074,0.139,4.762c-0.004,1.69,0.016,3.469-0.041,5.311
	s-0.1,3.741-0.242,5.668c-0.063,0.964-0.111,1.936-0.186,2.907c-0.092,0.973-0.184,1.948-0.277,2.922
	c-0.152,1.949-0.441,3.887-0.68,5.793c-0.061,0.478-0.123,0.951-0.184,1.425c-0.078,0.469-0.156,0.936-0.232,1.4
	c-0.156,0.928-0.311,1.845-0.461,2.745c-0.145,0.901-0.299,1.786-0.492,2.642c-0.182,0.861-0.357,1.7-0.527,2.519
	c-0.18,0.817-0.326,1.614-0.514,2.376c-0.195,0.761-0.383,1.494-0.563,2.2c-0.371,1.406-0.668,2.703-1.008,3.834
	c-0.346,1.127-0.646,2.109-0.895,2.918c-0.496,1.615-0.777,2.538-0.777,2.538l5.875,1.645c0,0,0.201-0.992,0.555-2.727
	c0.178-0.864,0.393-1.917,0.637-3.122c0.236-1.205,0.418-2.582,0.658-4.071c0.117-0.745,0.236-1.521,0.361-2.327
	c0.117-0.805,0.191-1.642,0.291-2.499c0.096-0.858,0.193-1.739,0.293-2.641c0.113-0.897,0.184-1.819,0.242-2.758
	c0.064-0.938,0.133-1.89,0.199-2.854c0.033-0.482,0.064-0.966,0.098-1.453c0.016-0.488,0.031-0.979,0.049-1.472
	c0.055-1.97,0.156-3.964,0.123-5.963c-0.004-0.995-0.006-1.992-0.01-2.987c-0.018-0.992-0.064-1.981-0.096-2.963
	c-0.043-1.959-0.188-3.883-0.309-5.743c-0.123-1.86-0.318-3.653-0.479-5.347c-0.209-1.695-0.371-3.296-0.6-4.767
	C78.214,58.047,77.253,54.206,77.253,54.206z"/>
<path fill="#2AA9E0" d="M54.177,41.64c-8.53,0-15.446,6.917-15.446,15.446c0,8.531,6.916,15.441,15.446,15.441
	c8.529,0,15.443-6.91,15.443-15.441C69.62,48.557,62.706,41.64,54.177,41.64z M60.317,53.937c0.008,0.136,0.01,0.272,0.01,0.409
	c0,4.188-3.188,9.016-9.016,9.016c-1.79,0-3.455-0.523-4.857-1.423c0.248,0.028,0.5,0.044,0.756,0.044
	c1.484,0,2.851-0.506,3.935-1.356c-1.386-0.026-2.557-0.943-2.96-2.201c0.194,0.036,0.392,0.057,0.598,0.057
	c0.288,0,0.568-0.04,0.834-0.111c-1.448-0.291-2.543-1.572-2.543-3.107c0-0.013,0-0.026,0-0.04c0.428,0.238,0.917,0.379,1.437,0.396
	c-0.851-0.567-1.409-1.538-1.409-2.637c0-0.581,0.156-1.126,0.43-1.593c1.561,1.917,3.897,3.179,6.531,3.311
	c-0.055-0.233-0.084-0.474-0.084-0.723c0-1.749,1.42-3.167,3.17-3.167c0.91,0,1.734,0.385,2.313,1
	c0.723-0.141,1.398-0.405,2.012-0.769c-0.236,0.741-0.736,1.361-1.393,1.753c0.641-0.075,1.252-0.248,1.82-0.498
	C61.476,52.932,60.937,53.49,60.317,53.937z"/>
</svg>
