<?xml version="1.0" encoding="utf-8"?>
<!-- Generator: Adobe Illustrator 16.0.0, SVG Export Plug-In . SVG Version: 6.00 Build 0)  -->
<!DOCTYPE svg PUBLIC "-//W3C//DTD SVG 1.1//EN" "http://www.w3.org/Graphics/SVG/1.1/DTD/svg11.dtd">
<svg version="1.1" id="Layer_1" xmlns="http://www.w3.org/2000/svg" xmlns:xlink="http://www.w3.org/1999/xlink" x="0px" y="0px"
	 width="106px" height="143px" viewBox="0 0 106 143" enable-background="new 0 0 106 143" xml:space="preserve">
<g>
	<polygon fill="#189694" points="79.299,79.398 100.333,95.402 100.333,115.912 79.299,106.178 	"/>
</g>
<g>
	<polygon fill="#137096" points="30.432,66.787 9.399,82.779 9.399,103.299 30.432,93.564 	"/>
</g>
<g>
	<polygon fill="#137096" points="75.57,66.787 96.604,82.779 96.604,103.299 75.57,93.564 	"/>
</g>
<g>
	<polygon fill="#189694" points="26.702,79.398 5.668,95.402 5.668,115.912 26.702,106.178 	"/>
</g>
<path fill="#F3110B" d="M52.536,0.467c-0.3,0.31-0.792,0.767-1.327,1.363c-0.557,0.598-1.239,1.333-1.964,2.2
	c-0.371,0.433-0.768,0.897-1.19,1.395c-0.395,0.496-0.814,1.023-1.257,1.581c-1.796,2.229-3.737,4.935-5.749,8.04
	c-2.005,3.105-4.045,6.608-5.977,10.43c-1.939,3.82-3.749,7.961-5.396,12.339c-1.628,4.378-3.044,8.996-4.197,13.774
	c-2.321,9.551-3.514,19.737-3.532,29.935c-0.006,5.1,0.268,10.199,0.852,15.217c0.568,5.016,1.461,9.949,2.6,14.73
	c0.736,3.08,1.6,6.088,2.55,9.018c7.633-3.279,16.117-5.107,25.056-5.107V0C53.004,0,52.845,0.159,52.536,0.467z"/>
<path fill="#860F08" d="M80.527,51.589c-1.15-4.778-2.566-9.396-4.197-13.774c-1.646-4.378-3.456-8.519-5.395-12.339
	c-1.932-3.822-3.969-7.325-5.974-10.43c-2.014-3.105-3.956-5.812-5.751-8.04c-0.443-0.558-0.861-1.085-1.256-1.581
	c-0.424-0.497-0.821-0.962-1.191-1.395c-0.727-0.866-1.406-1.602-1.965-2.2c-0.533-0.597-1.027-1.054-1.325-1.363
	C53.163,0.159,53.004,0,53.004,0v115.381c8.938,0,17.422,1.828,25.055,5.107c0.948-2.93,1.813-5.938,2.548-9.018
	c1.139-4.781,2.032-9.715,2.601-14.73c0.582-5.018,0.859-10.117,0.852-15.217C84.042,71.326,82.849,61.14,80.527,51.589z"/>
<path fill="#189694" d="M53.771,77.5c0,0,0.175,0.225,0.448,0.646c0.284,0.424,0.65,1.043,1.082,1.834
	c0.848,1.578,1.838,3.832,2.609,6.537c0.391,1.355,0.739,2.82,0.995,4.371c0.267,1.551,0.439,3.182,0.411,4.873
	c-0.026,1.689-0.298,3.436-0.611,5.209c-0.316,1.773-0.627,3.578-0.813,5.379c-0.369,3.605-0.775,7.211-1.232,10.592
	c-0.238,1.689-0.471,3.322-0.691,4.873c-0.231,1.549-0.451,3.012-0.654,4.365c-0.199,1.352-0.424,2.59-0.6,3.689
	c-0.176,1.098-0.34,2.055-0.486,2.842c-0.291,1.578-0.458,2.48-0.458,2.48h-1.176c0,0-0.167-0.902-0.458-2.48
	c-0.145-0.787-0.309-1.744-0.486-2.842c-0.176-1.1-0.398-2.338-0.599-3.689c-0.202-1.354-0.423-2.816-0.655-4.365
	c-0.22-1.551-0.452-3.184-0.691-4.873c-0.456-3.381-0.862-6.986-1.231-10.59c-0.188-1.803-0.499-3.605-0.815-5.381
	c-0.313-1.773-0.583-3.52-0.608-5.209c-0.031-1.689,0.142-3.322,0.408-4.873c0.26-1.551,0.605-3.016,0.998-4.371
	c0.769-2.705,1.761-4.959,2.606-6.537c0.434-0.791,0.799-1.41,1.083-1.834c0.275-0.422,0.448-0.646,0.448-0.646H53.771z"/>
<path opacity="0.5" fill="#444C4C" d="M54.344,34.522c-9.907,0.083-17.9,8.211-17.816,18.118c0.085,9.91,8.215,17.896,18.124,17.812
	c9.905-0.082,17.896-8.206,17.81-18.115C72.378,42.428,64.249,34.438,54.344,34.522z"/>
<g>
	<path fill="#164257" d="M52.823,33.995c-11.682,0.1-21.106,9.683-21.007,21.366c0.101,11.684,9.686,21.106,21.37,21.008
		c11.681-0.1,21.104-9.684,21.004-21.368C74.091,43.317,64.507,33.896,52.823,33.995z"/>
	<path fill="#FFFFFF" d="M52.879,40.462c-8.119,0.066-14.667,6.727-14.6,14.845c0.07,8.121,6.73,14.661,14.852,14.59
		c8.117-0.069,14.668-6.72,14.6-14.843C67.66,46.94,60.995,40.391,52.879,40.462z"/>
	<path fill="#FFFFFF" d="M47.059,68.641c1.857,0.821,3.911,1.275,6.072,1.256c8.117-0.069,14.668-6.72,14.6-14.843
		c-0.027-2.886-0.889-5.572-2.35-7.834c-0.267,0.213-0.537,0.424-0.804,0.639C58.178,53.061,50.13,60.25,47.059,68.641z"/>
</g>
<circle fill="#164257" cx="53.003" cy="19.777" r="6.616"/>
<circle fill="#18A7CA" cx="53.004" cy="19.777" r="3.937"/>
<defs>
	<filter id="Adobe_OpacityMaskFilter" filterUnits="userSpaceOnUse" x="27.235" y="52.75" width="9.144" height="61.792">
		<feFlood  style="flood-color:white;flood-opacity:1" result="back"/>
		<feBlend  in="SourceGraphic" in2="back" mode="normal"/>
	</filter>
</defs>
<mask maskUnits="userSpaceOnUse" x="27.235" y="52.75" width="9.144" height="61.792" id="SVGID_1_">
	<g filter="url(#Adobe_OpacityMaskFilter)">
		<defs>
			<filter id="Adobe_OpacityMaskFilter_1_" filterUnits="userSpaceOnUse" x="27.235" y="52.75" width="9.144" height="61.792">
				<feFlood  style="flood-color:white;flood-opacity:1" result="back"/>
				<feBlend  in="SourceGraphic" in2="back" mode="normal"/>
			</filter>
		</defs>
		<mask maskUnits="userSpaceOnUse" x="27.235" y="52.75" width="9.144" height="61.792" id="SVGID_1_">
		</mask>
		<linearGradient id="SVGID_2_" gradientUnits="userSpaceOnUse" x1="32.6958" y1="56.2227" x2="31.2551" y2="122.4966">
			<stop  offset="0.129" style="stop-color:#808080"/>
			<stop  offset="0.2557" style="stop-color:#7A7A7A"/>
			<stop  offset="0.4232" style="stop-color:#696969"/>
			<stop  offset="0.6134" style="stop-color:#4E4E4E"/>
			<stop  offset="0.819" style="stop-color:#282828"/>
			<stop  offset="1" style="stop-color:#000000"/>
		</linearGradient>
		<path mask="url(#SVGID_1_)" fill="url(#SVGID_2_)" d="M30.432,52.751c0,0-0.145,0.952-0.318,2.625
			c-0.08,0.836-0.182,1.853-0.265,3.021c-0.086,1.167-0.173,2.484-0.229,3.921c-0.084,1.436-0.09,2.995-0.135,4.636
			c0.005,1.647-0.016,3.381,0.038,5.176c0.058,1.793,0.098,3.645,0.237,5.521c0.061,0.939,0.108,1.887,0.181,2.834
			c0.089,0.945,0.179,1.896,0.27,2.846c0.149,1.9,0.43,3.787,0.663,5.646c0.061,0.467,0.119,0.926,0.179,1.389
			c0.076,0.457,0.151,0.91,0.226,1.365c0.151,0.904,0.302,1.797,0.449,2.672c0.141,0.881,0.29,1.74,0.478,2.576
			c0.176,0.836,0.348,1.656,0.516,2.451c0.172,0.797,0.316,1.572,0.499,2.316c0.191,0.74,0.374,1.453,0.55,2.143
			c0.361,1.367,0.65,2.631,0.978,3.732c0.338,1.096,0.632,2.055,0.875,2.844c0.482,1.572,0.757,2.473,0.757,2.473l-5.723,1.602
			c0,0-0.196-0.967-0.542-2.656c-0.171-0.844-0.379-1.867-0.619-3.041c-0.23-1.174-0.404-2.516-0.641-3.967
			c-0.113-0.727-0.23-1.482-0.351-2.266c-0.115-0.785-0.187-1.602-0.284-2.434c-0.093-0.838-0.188-1.693-0.286-2.572
			c-0.11-0.873-0.177-1.771-0.236-2.686c-0.063-0.914-0.128-1.842-0.195-2.781c-0.032-0.469-0.063-0.943-0.094-1.416
			c-0.015-0.477-0.031-0.955-0.047-1.434c-0.055-1.92-0.154-3.863-0.12-5.813c0.003-0.971,0.006-1.941,0.009-2.908
			c0.019-0.971,0.063-1.934,0.093-2.889c0.042-1.91,0.183-3.783,0.299-5.598c0.12-1.813,0.311-3.556,0.466-5.209
			c0.204-1.649,0.363-3.208,0.586-4.64C29.495,56.493,30.432,52.751,30.432,52.751z"/>
	</g>
</mask>
<linearGradient id="SVGID_3_" gradientUnits="userSpaceOnUse" x1="32.6958" y1="56.2227" x2="31.2551" y2="122.4966">
	<stop  offset="0.129" style="stop-color:#EAEFEE"/>
	<stop  offset="0.5208" style="stop-color:#F0F3F3"/>
	<stop  offset="1" style="stop-color:#FFFFFF"/>
</linearGradient>
<path fill="url(#SVGID_3_)" d="M30.432,52.751c0,0-0.145,0.952-0.318,2.625c-0.08,0.836-0.182,1.853-0.265,3.021
	c-0.086,1.167-0.173,2.484-0.229,3.921c-0.084,1.436-0.09,2.995-0.135,4.636c0.005,1.647-0.016,3.381,0.038,5.176
	c0.058,1.793,0.098,3.645,0.237,5.521c0.061,0.939,0.108,1.887,0.181,2.834c0.089,0.945,0.179,1.896,0.27,2.846
	c0.149,1.9,0.43,3.787,0.663,5.646c0.061,0.467,0.119,0.926,0.179,1.389c0.076,0.457,0.151,0.91,0.226,1.365
	c0.151,0.904,0.302,1.797,0.449,2.672c0.141,0.881,0.29,1.74,0.478,2.576c0.176,0.836,0.348,1.656,0.516,2.451
	c0.172,0.797,0.316,1.572,0.499,2.316c0.191,0.74,0.374,1.453,0.55,2.143c0.361,1.367,0.65,2.631,0.978,3.732
	c0.338,1.096,0.632,2.055,0.875,2.844c0.482,1.572,0.757,2.473,0.757,2.473l-5.723,1.602c0,0-0.196-0.967-0.542-2.656
	c-0.171-0.844-0.379-1.867-0.619-3.041c-0.23-1.174-0.404-2.516-0.641-3.967c-0.113-0.727-0.23-1.482-0.351-2.266
	c-0.115-0.785-0.187-1.602-0.284-2.434c-0.093-0.838-0.188-1.693-0.286-2.572c-0.11-0.873-0.177-1.771-0.236-2.686
	c-0.063-0.914-0.128-1.842-0.195-2.781c-0.032-0.469-0.063-0.943-0.094-1.416c-0.015-0.477-0.031-0.955-0.047-1.434
	c-0.055-1.92-0.154-3.863-0.12-5.813c0.003-0.971,0.006-1.941,0.009-2.908c0.019-0.971,0.063-1.934,0.093-2.889
	c0.042-1.91,0.183-3.783,0.299-5.598c0.12-1.813,0.311-3.556,0.466-5.209c0.204-1.649,0.363-3.208,0.586-4.64
	C29.495,56.493,30.432,52.751,30.432,52.751z"/>
<defs>
	<filter id="Adobe_OpacityMaskFilter_2_" filterUnits="userSpaceOnUse" x="69.629" y="52.75" width="9.144" height="61.792">
		<feFlood  style="flood-color:white;flood-opacity:1" result="back"/>
		<feBlend  in="SourceGraphic" in2="back" mode="normal"/>
	</filter>
</defs>
<mask maskUnits="userSpaceOnUse" x="69.629" y="52.75" width="9.144" height="61.792" id="SVGID_4_">
	<g filter="url(#Adobe_OpacityMaskFilter_2_)">
		<defs>
			<filter id="Adobe_OpacityMaskFilter_3_" filterUnits="userSpaceOnUse" x="69.629" y="52.75" width="9.144" height="61.792">
				<feFlood  style="flood-color:white;flood-opacity:1" result="back"/>
				<feBlend  in="SourceGraphic" in2="back" mode="normal"/>
			</filter>
		</defs>
		<mask maskUnits="userSpaceOnUse" x="69.629" y="52.75" width="9.144" height="61.792" id="SVGID_4_">
		</mask>
		
			<linearGradient id="SVGID_5_" gradientUnits="userSpaceOnUse" x1="159.2344" y1="56.2227" x2="157.7937" y2="122.4966" gradientTransform="matrix(-1 0 0 1 232.5469 0)">
			<stop  offset="0.129" style="stop-color:#808080"/>
			<stop  offset="0.2557" style="stop-color:#7A7A7A"/>
			<stop  offset="0.4232" style="stop-color:#696969"/>
			<stop  offset="0.6134" style="stop-color:#4E4E4E"/>
			<stop  offset="0.819" style="stop-color:#282828"/>
			<stop  offset="1" style="stop-color:#000000"/>
		</linearGradient>
		<path mask="url(#SVGID_4_)" fill="url(#SVGID_5_)" d="M75.576,52.751c0,0,0.145,0.952,0.318,2.625
			c0.082,0.836,0.184,1.853,0.263,3.021c0.089,1.167,0.176,2.484,0.232,3.921c0.083,1.436,0.089,2.995,0.133,4.636
			c-0.004,1.647,0.019,3.381-0.038,5.176c-0.056,1.793-0.097,3.645-0.236,5.521c-0.062,0.939-0.109,1.887-0.18,2.834
			c-0.089,0.945-0.181,1.896-0.27,2.846c-0.149,1.9-0.431,3.787-0.664,5.646c-0.06,0.467-0.119,0.926-0.18,1.389
			c-0.075,0.457-0.15,0.91-0.226,1.365c-0.151,0.904-0.301,1.797-0.449,2.672c-0.141,0.881-0.29,1.74-0.478,2.576
			c-0.176,0.836-0.348,1.656-0.515,2.451c-0.174,0.797-0.316,1.572-0.5,2.316c-0.189,0.74-0.373,1.453-0.548,2.143
			c-0.363,1.367-0.651,2.631-0.98,3.732c-0.338,1.096-0.63,2.055-0.872,2.844c-0.483,1.572-0.758,2.473-0.758,2.473l5.721,1.602
			c0,0,0.196-0.967,0.542-2.656c0.172-0.844,0.381-1.867,0.619-3.041c0.232-1.174,0.407-2.516,0.642-3.967
			c0.113-0.727,0.23-1.482,0.354-2.266c0.111-0.785,0.185-1.602,0.283-2.434c0.092-0.838,0.188-1.693,0.285-2.572
			c0.11-0.873,0.177-1.771,0.236-2.686c0.063-0.914,0.127-1.842,0.191-2.781c0.033-0.469,0.065-0.943,0.098-1.416
			c0.016-0.477,0.029-0.955,0.046-1.434c0.057-1.92,0.153-3.863,0.119-5.813c-0.002-0.971-0.005-1.941-0.007-2.908
			c-0.019-0.971-0.064-1.934-0.096-2.889c-0.04-1.91-0.182-3.783-0.3-5.598c-0.116-1.813-0.309-3.556-0.464-5.209
			c-0.205-1.649-0.362-3.208-0.586-4.64C76.513,56.493,75.576,52.751,75.576,52.751z"/>
	</g>
</mask>
<linearGradient id="SVGID_6_" gradientUnits="userSpaceOnUse" x1="159.2344" y1="56.2227" x2="157.7937" y2="122.4966" gradientTransform="matrix(-1 0 0 1 232.5469 0)">
	<stop  offset="0.129" style="stop-color:#EAEFEE"/>
	<stop  offset="0.5208" style="stop-color:#F0F3F3"/>
	<stop  offset="1" style="stop-color:#FFFFFF"/>
</linearGradient>
<path fill="url(#SVGID_6_)" d="M75.576,52.751c0,0,0.145,0.952,0.318,2.625c0.082,0.836,0.184,1.853,0.263,3.021
	c0.089,1.167,0.176,2.484,0.232,3.921c0.083,1.436,0.089,2.995,0.133,4.636c-0.004,1.647,0.019,3.381-0.038,5.176
	c-0.056,1.793-0.097,3.645-0.236,5.521c-0.062,0.939-0.109,1.887-0.18,2.834c-0.089,0.945-0.181,1.896-0.27,2.846
	c-0.149,1.9-0.431,3.787-0.664,5.646c-0.06,0.467-0.119,0.926-0.18,1.389c-0.075,0.457-0.15,0.91-0.226,1.365
	c-0.151,0.904-0.301,1.797-0.449,2.672c-0.141,0.881-0.29,1.74-0.478,2.576c-0.176,0.836-0.348,1.656-0.515,2.451
	c-0.174,0.797-0.316,1.572-0.5,2.316c-0.189,0.74-0.373,1.453-0.548,2.143c-0.363,1.367-0.651,2.631-0.98,3.732
	c-0.338,1.096-0.63,2.055-0.872,2.844c-0.483,1.572-0.758,2.473-0.758,2.473l5.721,1.602c0,0,0.196-0.967,0.542-2.656
	c0.172-0.844,0.381-1.867,0.619-3.041c0.232-1.174,0.407-2.516,0.642-3.967c0.113-0.727,0.23-1.482,0.354-2.266
	c0.111-0.785,0.185-1.602,0.283-2.434c0.092-0.838,0.188-1.693,0.285-2.572c0.11-0.873,0.177-1.771,0.236-2.686
	c0.063-0.914,0.127-1.842,0.191-2.781c0.033-0.469,0.065-0.943,0.098-1.416c0.016-0.477,0.029-0.955,0.046-1.434
	c0.057-1.92,0.153-3.863,0.119-5.813c-0.002-0.971-0.005-1.941-0.007-2.908c-0.019-0.971-0.064-1.934-0.096-2.889
	c-0.04-1.91-0.182-3.783-0.3-5.598c-0.116-1.813-0.309-3.556-0.464-5.209c-0.205-1.649-0.362-3.208-0.586-4.64
	C76.513,56.493,75.576,52.751,75.576,52.751z"/>
<g>
	<path fill="#ED3437" d="M52.977,52.969c0.117,0,0.208-0.031,0.276-0.095c0.069-0.065,0.104-0.154,0.104-0.266v-2.285
		c0-0.092-0.035-0.166-0.104-0.223c-0.07-0.057-0.163-0.084-0.276-0.084c-0.104,0-0.189,0.027-0.255,0.084
		c-0.064,0.057-0.098,0.131-0.098,0.223v2.285c0,0.116,0.031,0.204,0.092,0.266C52.776,52.94,52.863,52.969,52.977,52.969z"/>
	<path fill="#ED3437" d="M54.868,57.189c-0.119,0-0.234,0.029-0.352,0.09c-0.113,0.06-0.223,0.149-0.326,0.264v-1.662h-0.769v5.162
		h0.769v-0.293c0.1,0.118,0.209,0.203,0.326,0.258c0.116,0.057,0.248,0.082,0.397,0.082c0.225,0,0.399-0.069,0.517-0.214
		c0.121-0.146,0.18-0.351,0.18-0.619v-2.114c0-0.312-0.063-0.549-0.189-0.712C55.292,57.271,55.11,57.189,54.868,57.189z
		 M54.825,60.152c0,0.123-0.021,0.209-0.064,0.262c-0.045,0.056-0.111,0.083-0.205,0.083c-0.065,0-0.126-0.014-0.184-0.042
		c-0.059-0.026-0.12-0.073-0.182-0.134v-2.373c0.053-0.054,0.104-0.092,0.156-0.118c0.055-0.024,0.109-0.037,0.162-0.037
		c0.103,0,0.183,0.033,0.237,0.1c0.054,0.066,0.079,0.164,0.079,0.293V60.152z"/>
	<polygon fill="#ED3437" points="47.708,56.633 48.595,56.633 48.595,61.044 49.453,61.044 49.453,56.633 50.341,56.633 
		50.341,55.882 47.708,55.882 	"/>
	<path fill="#ED3437" d="M52.087,60.128c-0.071,0.082-0.149,0.149-0.235,0.205c-0.086,0.053-0.158,0.079-0.212,0.079
		c-0.071,0-0.124-0.02-0.156-0.061c-0.032-0.041-0.047-0.104-0.047-0.195v-2.921h-0.763v3.185c0,0.227,0.045,0.393,0.134,0.507
		c0.09,0.116,0.222,0.171,0.399,0.171c0.142,0,0.29-0.038,0.441-0.121c0.153-0.08,0.298-0.199,0.438-0.353v0.419h0.761v-3.809
		h-0.761V60.128z"/>
	<path fill="#ED3437" d="M53.109,40.216c-8.309,0-15.045,6.737-15.045,15.046c0,8.308,6.736,15.041,15.045,15.041
		c8.31,0,15.046-6.733,15.046-15.041C68.155,46.953,61.419,40.216,53.109,40.216z M54.924,49.395h0.855v3.216
		c0,0.1,0.02,0.17,0.056,0.215c0.034,0.046,0.095,0.068,0.175,0.068c0.061,0,0.143-0.03,0.238-0.089
		c0.096-0.06,0.185-0.133,0.265-0.225v-3.185h0.857v4.195h-0.857v-0.464c-0.157,0.171-0.321,0.303-0.494,0.392
		c-0.171,0.087-0.336,0.135-0.496,0.135c-0.2,0-0.349-0.065-0.447-0.19c-0.102-0.124-0.151-0.311-0.151-0.561V49.395z
		 M51.742,50.354c0-0.326,0.116-0.585,0.345-0.775c0.231-0.193,0.542-0.289,0.932-0.289c0.354,0,0.645,0.101,0.872,0.303
		c0.225,0.201,0.338,0.466,0.338,0.784v2.167c0,0.36-0.11,0.639-0.332,0.844c-0.224,0.204-0.528,0.307-0.917,0.307
		c-0.375,0-0.676-0.106-0.9-0.318c-0.224-0.211-0.338-0.494-0.338-0.85V50.354z M49.408,47.903l0.625,2.274h0.062l0.597-2.274h0.98
		l-1.124,3.329v2.358h-0.963v-2.253l-1.15-3.433H49.408z M60.632,59.872c0,1.516-1.231,2.748-2.749,2.748h-9.549
		c-1.519,0-2.748-1.231-2.748-2.748v-2.21c0-1.517,1.229-2.749,2.748-2.749h9.549c1.518,0,2.749,1.232,2.749,2.749V59.872z"/>
	<path fill="#ED3437" d="M57.166,57.142c-0.341,0-0.618,0.103-0.833,0.31c-0.215,0.208-0.322,0.48-0.322,0.809v1.709
		c0,0.368,0.099,0.656,0.293,0.863c0.195,0.212,0.465,0.314,0.805,0.314c0.381,0,0.665-0.097,0.855-0.294
		c0.191-0.198,0.287-0.492,0.287-0.883v-0.194h-0.785v0.173c0,0.224-0.025,0.369-0.074,0.435c-0.051,0.066-0.138,0.1-0.266,0.1
		c-0.121,0-0.207-0.038-0.258-0.115c-0.051-0.079-0.074-0.218-0.074-0.419v-0.716h1.457V58.26c0-0.362-0.094-0.638-0.281-0.831
		C57.783,57.237,57.514,57.142,57.166,57.142z M57.465,58.638h-0.672v-0.383c0-0.16,0.025-0.275,0.078-0.342
		c0.055-0.071,0.141-0.106,0.262-0.106c0.117,0,0.201,0.035,0.254,0.106c0.051,0.067,0.078,0.182,0.078,0.342V58.638z"/>
</g>
</svg>
