<?xml version="1.0" encoding="utf-8"?>
<!-- Generator: Adobe Illustrator 16.0.0, SVG Export Plug-In . SVG Version: 6.00 Build 0)  -->
<!DOCTYPE svg PUBLIC "-//W3C//DTD SVG 1.1//EN" "http://www.w3.org/Graphics/SVG/1.1/DTD/svg11.dtd">
<svg version="1.1" id="Layer_1" xmlns="http://www.w3.org/2000/svg" xmlns:xlink="http://www.w3.org/1999/xlink" x="0px" y="0px"
	 width="152.014px" height="152.014px" viewBox="27.389 4.789 152.014 152.014"
	 enable-background="new 27.389 4.789 152.014 152.014" xml:space="preserve">
<circle fill-rule="evenodd" clip-rule="evenodd" fill="#3A98FD" cx="103.406" cy="86.375" r="69.074"/>
<path fill-rule="evenodd" clip-rule="evenodd" fill="#22720F" d="M114.822,17.922c-1.236,1.916-2.054,4.153-3.644,5.421
	c-2.452,1.956-2.505,4.857-3.854,7.203c-0.315,0.548-0.851,1.111-1.419,1.348c-2.902,1.21-5.871,2.264-8.765,3.494
	c-0.802,0.341-1.555,0.995-2.105,1.685c-1.096,1.371-1.629,3.262-3.731,3.72c-0.514-1.006-0.965-2.074-1.574-3.042
	c-1.045-1.663-1.579-3.094,0.469-4.524c0.999-0.697,0.619-2.772-0.416-3.507c-0.858-0.609-1.843-1.078-2.589-1.798
	c-1.692-1.633-3.429-1.596-5.432-0.634c-2,0.961-4.096,1.726-6.15,2.577c0.024,0.138,0.047,0.276,0.071,0.414
	c1.146,0.148,2.298,0.262,3.434,0.465c0.385,0.069,0.962,0.288,1.054,0.569c0.573,1.744,1.829,2.659,3.52,3.069
	c-0.052,0.188-0.048,0.31-0.108,0.372c-1.875,1.949-1.847,1.903-4.118,0.457c-1.464-0.932-3.018-1.726-4.556-2.535
	c-0.329-0.173-0.9-0.334-1.128-0.173c-1.397,0.984-3.254,1.517-3.789,3.422c-0.425,1.516-1.346,1.964-2.893,1.475
	c0.311-0.903,0.623-1.814,0.936-2.725c-1.692,2.112-3.83,3.521-6.101,4.798c-0.903,0.508-1.721,1.201-2.489,1.907
	c-1.292,1.188-1.002,2.687,0.609,3.387c1.146,0.498,2.545,0.714,3.387,1.521c0.759,0.727,0.916,2.083,1.397,3.316
	c0.274-0.468,0.578-0.84,0.726-1.266c0.54-1.543,1.396-2.721,3.095-3.123c0.287-0.067,0.753-0.455,0.723-0.618
	c-0.479-2.592,1.758-3.992,2.426-6.049c2.99,0.941,3.316,1.341,3.237,3.96c0.495-0.138,0.959-0.25,1.412-0.398
	c0.465-0.152,0.919-0.339,1.455-0.54c0.522,1.148,1.559,2.03,0.971,3.469c-0.091,0.223,0.276,0.758,0.562,0.98
	c0.378,0.295,0.996,0.318,1.311,0.649c0.442,0.463,1.055,1.184,0.948,1.645c-0.128,0.552-0.87,1.204-1.464,1.36
	c-1.859,0.487-3.804,0.648-5.657,1.155c-1.517,0.415-2.947,1.142-4.364,2.06c1.994,0,3.988,0,6.158,0
	c-0.876,2.453-2.274,3.87-4.787,3.923c-1.187,0.025-2.145,0.462-2.674,1.585c-0.731,1.554-2.188,2.062-3.627,2.67
	c-0.575,0.243-1.284,0.774-1.435,1.314c-0.746,2.659-2.417,4.552-4.619,6.052c-1.232,0.839-2,1.819-1.876,3.446
	c0.079,1.028-0.197,2.083-0.343,3.384c-0.382-0.433-0.768-0.728-0.965-1.119c-1.015-2.009-2.922-2.421-4.861-2.729
	c-0.286-0.046-0.866,0.297-0.927,0.552c-0.217,0.908-0.706,1.118-1.59,1.121c-3.809,0.014-6.705,3.134-6.081,7.068
	c0.161,1.019-0.352,2.189,1.001,3.061c2.105,1.356,3.291,0.607,4.454-0.879c0.603-0.771,1.098-1.755,2.527-1.131
	c-0.224,1.831-0.451,3.697-0.707,5.791c1.044-0.063,1.961-0.119,2.879-0.176c0.168,1.351,0.313,2.723,0.514,4.086
	c0.259,1.758,1.458,2.441,3.08,2.729c1.091,0.193,1.915,0.336,2.792-0.768c1.042-1.31,2.505-2.285,3.849-3.46
	c1.004,0.72,2.042,1.335,2.92,2.126c1.008,0.907,2.113,1.032,3.345,0.814c0.197-0.035,0.388-0.105,0.585-0.139
	c2.43-0.411,2.43-0.41,3.303,1.92c0.087,0.233,0.225,0.456,0.27,0.697c0.372,2.014,1.516,3.046,3.609,3.239
	c0.617,0.057,1.46,0.736,1.695,1.33c0.865,2.191,2.371,3.521,4.506,4.464c2.881,1.271,5.632,2.835,8.462,4.226
	c0.799,0.393,0.902,0.852,0.899,1.747c-0.006,2.438-1.124,4.307-2.576,6.068c-0.71,0.861-0.988,1.715-0.744,2.887
	c0.588,2.819,0.293,5.579-1.405,7.991c-0.382,0.542-1.241,0.927-1.934,1.035c-1.496,0.231-2.701,0.793-3.253,2.239
	c-0.235,0.616-0.184,1.351-0.217,2.033c-0.019,0.37,0.188,0.795,0.07,1.111c-0.665,1.778-1.339,3.559-2.147,5.273
	c-0.207,0.438-0.875,0.82-1.392,0.923c-1.761,0.352-2.619,1.435-2.875,3.122c17.107,9.107,42.277,8.403,59.274-2.813
	c-0.505-0.078-0.907-0.142-1.396-0.217c0.339-5.044-1.803-9.415-3.298-13.955c-1.001-3.036-0.628-6.116,0.352-9.071
	c0.374-1.131,0.646-2.063-0.11-3.052c-1.087-1.424-1.149-3.033-0.907-4.71c0.181-1.246,0.034-2.377-1.054-3.23
	c-1.214-0.953-1.482-2.127-0.736-3.52c0.79-1.477,0.33-2.685-0.917-3.637c-0.364-0.277-0.851-0.497-1.301-0.54
	c-1.291-0.124-2.738,0.384-3.644-1.106c-0.07-0.114-0.73,0.018-1.037,0.184c-0.871,0.471-1.7,1.02-2.702,1.633
	c-0.408-0.566-0.788-1.095-1.224-1.698c-1.173,0.986-2.16,1.817-3.247,2.731c-3.532-3.731-7.246-7.318-8.672-12.5
	c-0.123-0.447,0.064-1.068,0.299-1.506c0.473-0.878,1.076-1.685,1.715-2.655c-1.526-0.977-0.899-2.123-0.478-3.47
	c1.63-5.199,5.631-8.65,8.993-12.801c7.311,10.654,16.146,19.664,26.325,27.707c3.134-2.647,6.224-5.258,9.457-7.99
	c0.398,0.912,0.776,1.752,1.135,2.601c0.978,2.317,0.975,2.318,3.609,1.917c-0.183-0.315-0.281-0.674-0.516-0.856
	c-1.104-0.856-1.168-1.816-0.528-3.002c0.779-1.445-0.9-1.908-1.284-3.027c2.148-2.253,4.35-4.562,6.721-7.048
	c0.574,0.749,1.11,1.45,1.615,2.11c2.529-1.92,2.697-2.346,2.003-4.699c-0.36-0.024-0.744-0.049-1.31-0.087
	c2.052-2.771,4.03-5.441,6.028-8.14c6.645,19.313,4.188,50.047-19.803,71.663c-23.617,21.278-59.299,23.618-85.168,5.853
	c-27.244-18.709-37.312-52.875-25.596-82.842C49.772,32.428,79.968,12.16,114.822,17.922z M66.012,136.59
	c0.688-1.249,0.724-2.314,0.087-3.418c-0.795-1.378-1.099-2.83-0.822-4.455c0.4-2.346,0.144-4.588-1.709-6.359
	c-0.76-0.727-1.555-1.416-2.299-2.158c-1.022-1.019-2.203-1.946-2.97-3.137c-1.353-2.098-2.461-4.354-3.627-6.568
	c-0.213-0.404-0.359-0.944-0.286-1.381c0.27-1.629,1.362-3.122,0.757-4.903c-0.058-0.17,0.188-0.439,0.288-0.665
	c0.908-2.047,1.854-4.077,2.707-6.146c0.569-1.381-0.067-2.378-1.52-2.124c-1.484,0.26-2.534-0.222-3.52-1.138
	c-1.091-1.015-2.142-2.073-3.215-3.107c-0.388-0.374-0.731-0.901-1.198-1.069c-2.645-0.95-5.321-1.813-7.944-2.692
	c-0.476,4.945,1.235,15.256,4.806,23.471C50.053,121.107,56.823,129.706,66.012,136.59z M161.232,90.581
	c0,0.711,0.174,1.326-0.027,1.771c-1.552,3.428-2.411,7.151-5.144,10.066c-1.369,1.461-2.537,3.597-2.752,5.543
	c-0.363,3.292-0.001,6.684,0.283,10.014c0.083,0.972,0.054,1.648-0.685,2.22c-0.63,0.487-1.315,0.901-1.953,1.381
	c-1.378,1.037-2.741,2.095-4.183,3.199c0.901,1.05,1.634,1.902,2.409,2.805c-0.762,0.67-1.395,1.233-2.036,1.788
	c-1.178,1.02-1.181,1.018-0.609,1.96c7.778-7.563,13.335-16.473,16.535-26.807c2.124-6.859,3.009-13.899,2.662-21.49
	c-2.761,3.148-6.607,4.416-8.778,7.906C158.485,90.809,159.807,90.699,161.232,90.581z"/>
<path fill-rule="evenodd" clip-rule="evenodd" fill="#C90631" d="M174.876,39.734c0.074,7.679-2.298,13.914-5.578,19.821
	c-6.044,10.884-14.49,19.761-23.802,27.869c-3.223,2.806-3.258,2.75-6.45-0.063c-7.97-7.021-15.235-14.671-20.982-23.658
	c-3.831-5.988-6.969-12.333-7.751-19.474c-1.004-9.17,1.457-17.45,7.458-24.557c4.785-5.668,10.847-9.404,18.099-10.778
	c11.519-2.183,21.594,0.872,29.935,9.231C171.32,23.655,174.993,32.073,174.876,39.734z M161.692,40.695
	c0.02-10.041-7.716-19.229-19.118-19.269c-12.091-0.043-19.263,10.044-19.28,19.117c-0.019,9.376,7.288,19.086,19.128,19.308
	C152.907,60.046,161.674,51.231,161.692,40.695z"/>
<path fill-rule="evenodd" clip-rule="evenodd" fill="#3A98FD" d="M66.012,136.59c-9.188-6.885-15.959-15.483-20.465-25.852
	c-3.571-8.215-5.281-18.525-4.806-23.471c2.624,0.879,5.3,1.742,7.944,2.692c0.467,0.168,0.81,0.695,1.198,1.069
	c1.073,1.034,2.124,2.093,3.215,3.107c0.985,0.916,2.035,1.397,3.52,1.138c1.452-0.254,2.089,0.743,1.52,2.124
	c-0.853,2.069-1.799,4.1-2.707,6.146c-0.1,0.226-0.345,0.495-0.288,0.665c0.604,1.781-0.487,3.274-0.757,4.903
	c-0.073,0.437,0.073,0.977,0.286,1.381c1.166,2.214,2.275,4.471,3.627,6.568c0.767,1.19,1.948,2.118,2.97,3.137
	c0.744,0.742,1.54,1.432,2.299,2.158c1.853,1.771,2.109,4.014,1.709,6.359c-0.277,1.625,0.026,3.077,0.822,4.455
	C66.736,134.276,66.7,135.341,66.012,136.59z"/>
<path fill-rule="evenodd" clip-rule="evenodd" fill="#3A98FD" d="M161.232,90.581c-1.425,0.118-2.747,0.229-4.277,0.355
	c2.171-3.49,6.018-4.758,8.778-7.906c0.347,7.591-0.538,14.631-2.662,21.49c-3.2,10.334-8.757,19.243-16.535,26.807
	c-0.571-0.942-0.568-0.94,0.609-1.96c0.642-0.555,1.274-1.118,2.036-1.788c-0.775-0.902-1.508-1.755-2.409-2.805
	c1.441-1.104,2.805-2.162,4.183-3.199c0.638-0.479,1.323-0.894,1.953-1.381c0.738-0.571,0.768-1.248,0.685-2.22
	c-0.284-3.33-0.646-6.722-0.283-10.014c0.215-1.946,1.383-4.082,2.752-5.543c2.732-2.915,3.592-6.639,5.144-10.066
	C161.406,91.907,161.232,91.292,161.232,90.581z"/>
<path fill-rule="evenodd" clip-rule="evenodd" fill="#F4CDD6" d="M161.692,40.695c-0.019,10.536-8.785,19.352-19.271,19.155
	c-11.84-0.221-19.146-9.931-19.128-19.308c0.018-9.072,7.189-19.16,19.28-19.117C153.976,21.466,161.712,30.654,161.692,40.695z"/>
<g>
	<path fill="#FFFFFF" d="M65.646,85.245h6.479c4.19-0.114,6.259,1.621,6.206,5.207c0.017,1.258-0.146,2.304-0.491,3.139
		c-0.396,0.826-1.235,1.445-2.518,1.858v0.053c1.872,0.413,2.839,1.556,2.9,3.428v3.81c0,0.738,0.017,1.504,0.052,2.295
		c0.052,0.791,0.198,1.384,0.439,1.779h-4.74c-0.246-0.396-0.403-0.988-0.471-1.78c-0.068-0.791-0.094-1.556-0.076-2.294v-3.455
		c0-0.633-0.145-1.094-0.434-1.384c-0.308-0.272-0.835-0.409-1.582-0.409h-0.966v9.322h-4.799V85.245z M70.445,93.829h1.286
		c0.875,0,1.411-0.251,1.606-0.752c0.148-0.475,0.213-1.073,0.196-1.794c0-0.378-0.01-0.717-0.028-1.016
		c-0.019-0.308-0.093-0.554-0.224-0.738c-0.121-0.211-0.326-0.37-0.614-0.476c-0.28-0.097-0.68-0.145-1.202-0.145h-1.02V93.829z"/>
	<path fill="#FFFFFF" d="M80.903,85.245h10.695v4.139h-5.899v4.326h5.158v4.138h-5.158v4.827h6.129v4.139H80.903V85.245z"/>
	<path fill="#FFFFFF" d="M102.192,102.978h-3.368l-0.497,3.835h-4.808l3.864-21.568h6.377l3.915,21.568h-5.037L102.192,102.978z
		 M100.597,88.592h-0.051l-1.225,10.563h2.397L100.597,88.592z"/>
	<path fill="#FFFFFF" d="M109.01,91.115c0.017-2.097,0.619-3.668,1.808-4.712c1.153-1.01,2.653-1.514,4.5-1.514
		c1.864,0,3.373,0.505,4.526,1.515c1.18,1.045,1.778,2.617,1.796,4.717v2.002h-4.799v-2.443c0.017-0.414-0.039-0.837-0.168-1.269
		c-0.084-0.211-0.229-0.392-0.434-0.541c-0.215-0.106-0.522-0.159-0.923-0.159c-0.7,0.018-1.138,0.251-1.315,0.7
		c-0.147,0.432-0.213,0.854-0.195,1.269v10.687c0,0.149,0.009,0.321,0.028,0.515c0.037,0.221,0.093,0.445,0.167,0.674
		c0.178,0.511,0.615,0.775,1.315,0.793c0.4,0,0.708-0.084,0.923-0.251c0.205-0.141,0.35-0.321,0.434-0.542
		c0.129-0.484,0.185-0.88,0.168-1.188v-3.157h4.799v2.728c-0.096,4.059-2.203,6.136-6.322,6.232
		c-4.136-0.096-6.239-2.171-6.308-6.226V91.115z"/>
	<path fill="#FFFFFF" d="M124.026,85.245h4.796v8.162h3.035v-8.162h4.799v21.568h-4.799v-9.27h-3.035v9.27h-4.796V85.245z"/>
	<path fill="#FFFFFF" d="M77.465,117.645h6.786c3.536-0.07,5.304,1.621,5.304,5.076c0.018,1.151-0.136,2.175-0.461,3.071
		c-0.343,0.905-1.099,1.573-2.268,2.004v0.053c2.232,0.501,3.322,2.158,3.27,4.97c0.018,1.855-0.373,3.367-1.17,4.535
		c-0.858,1.223-2.363,1.842-4.514,1.859h-6.946V117.645z M82.264,126.176h1.034c0.627,0,1.06-0.251,1.298-0.752
		c0.212-0.492,0.318-1.082,0.318-1.768c0-0.756-0.097-1.341-0.291-1.755c-0.239-0.396-0.663-0.593-1.272-0.593h-1.086V126.176z
		 M82.264,135.549h1.203c0.746,0,1.25-0.233,1.511-0.7c0.214-0.449,0.322-1.198,0.322-2.247c0-0.899-0.107-1.613-0.322-2.142
		c-0.261-0.521-0.765-0.78-1.511-0.78h-1.203V135.549z"/>
	<path fill="#FFFFFF" d="M92.88,117.645h4.796v21.568H92.88V117.645z"/>
	<path fill="#FFFFFF" d="M99.448,117.645h11.022v4.139h-3.118v17.43h-4.796v-17.43h-3.108V117.645z"/>
	<path fill="#FFFFFF" d="M116.753,131.903v1.599c-0.018,0.608,0.098,1.132,0.347,1.572c0.221,0.449,0.692,0.674,1.412,0.674
		c0.609,0,1.062-0.172,1.357-0.515c0.304-0.308,0.456-0.695,0.456-1.161c0-0.483-0.091-0.915-0.273-1.293
		c-0.191-0.378-0.475-0.738-0.85-1.082c-0.749-0.668-1.739-1.407-2.972-2.217c-0.503-0.378-0.988-0.765-1.456-1.161
		c-0.494-0.396-0.931-0.822-1.311-1.279c-0.379-0.449-0.675-0.977-0.887-1.583c-0.238-0.599-0.356-1.302-0.356-2.111
		c0.053-4.09,2.166-6.108,6.341-6.056c4.175,0.069,6.244,1.878,6.21,5.426v1.936h-4.641v-1.268c0-0.581-0.089-1.097-0.265-1.546
		c-0.202-0.467-0.638-0.709-1.306-0.727c-0.572,0-0.994,0.146-1.267,0.436c-0.291,0.308-0.436,0.704-0.436,1.188
		c0,0.325,0.148,0.651,0.445,0.977c0.261,0.334,0.621,0.69,1.08,1.068c0.953,0.757,2.114,1.725,3.482,2.903
		c1.23,1.055,2.092,1.97,2.584,2.744c0.449,0.782,0.674,1.838,0.674,3.166c0,1.565-0.517,2.934-1.55,4.104
		c-1.085,1.214-2.791,1.838-5.118,1.873c-2.293-0.035-3.93-0.658-4.911-1.87c-0.973-1.186-1.45-2.621-1.433-4.307v-1.489H116.753z"
		/>
</g>
</svg>
