<?xml version="1.0" encoding="utf-8"?>
<!-- Generator: Adobe Illustrator 16.0.0, SVG Export Plug-In . SVG Version: 6.00 Build 0)  -->
<!DOCTYPE svg PUBLIC "-//W3C//DTD SVG 1.1//EN" "http://www.w3.org/Graphics/SVG/1.1/DTD/svg11.dtd">
<svg version="1.1" id="Layer_1" xmlns="http://www.w3.org/2000/svg" xmlns:xlink="http://www.w3.org/1999/xlink" x="0px" y="0px"
	 width="333.333px" height="176.423px" viewBox="0 0 333.333 176.423" enable-background="new 0 0 333.333 176.423"
	 xml:space="preserve">
<path fill="#F6CB51" d="M301.758,73.689c-22.137,42.09-136.602,130.391-282.494,64.218"/>
<path fill="#13A89E" d="M211.138,43.531c6.997-0.654,108.577-10.495,115.668,9.675c28.05,57.091-292.708,157.821-322.86,86.372
	c-4.148-21.681,102.532-65.157,102.532-65.157"/>
<path fill="#3F4953" stroke="#F2E7DA" stroke-width="5.2508" stroke-miterlimit="10" d="M53.844,97.417
	c4.691,17.28,55.914,18.421,114.414,2.546c58.5-15.874,102.124-42.754,97.434-60.036c-4.689-17.282-60.003-33.489-118.505-17.612
	C88.688,38.188,49.156,80.132,53.844,97.417z"/>
<path fill="#13A89E" stroke="#F2E7DA" stroke-width="3.9381" stroke-miterlimit="10" d="M93.55,53.274
	c3.082,11.345,30.794,13.702,61.903,5.26c31.105-8.441,53.828-24.483,50.75-35.832c-3.08-11.348-33.479-23.595-64.586-15.154
	C110.509,15.99,90.474,41.924,93.55,53.274z"/>
<path fill="#F2E7DA" d="M201.871,77.154c29.124-2.99-101.327,38.693-138.57,20.184C43.517,80.309,172.367,80.182,201.871,77.154z"/>
<g>
	<g>
		<path fill="none" stroke="#F2E7DA" stroke-width="2.6254" stroke-miterlimit="10" d="M317.6,46.7
			c0.443,0.78,0.804,1.575,1.084,2.384"/>
		<path fill="none" stroke="#F2E7DA" stroke-width="2.6254" stroke-miterlimit="10" stroke-dasharray="5.1968,5.1968" d="
			M319.424,54.195c-1.932,46.224-221.472,126.043-310.741,87.598"/>
		<path fill="none" stroke="#F2E7DA" stroke-width="2.6254" stroke-miterlimit="10" d="M6.306,140.726
			c-0.798-0.373-1.585-0.756-2.36-1.148"/>
	</g>
</g>
<g>
	<path fill="#FFFFFF" d="M65.731,142.635l-4.751,0.096l-0.407-20.246l6.938-0.14c1.962-0.039,3.433,0.358,4.412,1.194
		c0.98,0.835,1.49,2.261,1.531,4.276c0.021,1.08-0.131,2.01-0.457,2.791c-0.326,0.78-0.98,1.406-1.961,1.875l0.001,0.055
		c0.669,0.131,1.224,0.416,1.665,0.857c0.44,0.441,0.687,1.013,0.736,1.714c0.044,0.413,0.086,0.916,0.125,1.51
		c0.039,0.593,0.078,1.195,0.117,1.807c0.04,0.611,0.083,1.196,0.13,1.753c0.047,0.558,0.11,0.997,0.188,1.319
		c0.132,0.304,0.29,0.534,0.474,0.692l0.005,0.271l-5.183,0.104c-0.076-0.196-0.139-0.389-0.188-0.576
		c-0.049-0.188-0.084-0.381-0.105-0.579c-0.055-0.898-0.081-1.749-0.079-2.55s-0.039-1.516-0.124-2.145s-0.243-1.13-0.476-1.503
		s-0.629-0.572-1.187-0.598l-1.566,0.032L65.731,142.635z M65.497,131l1.62-0.032c0.342-0.007,0.624-0.085,0.846-0.233
		c0.223-0.148,0.394-0.341,0.516-0.577c0.121-0.236,0.201-0.508,0.24-0.815c0.038-0.307,0.055-0.613,0.049-0.919
		c-0.012-0.594-0.085-1.061-0.218-1.4c-0.133-0.339-0.336-0.587-0.608-0.743c-0.273-0.157-0.622-0.244-1.045-0.263
		c-0.424-0.019-0.924-0.013-1.499,0.017L65.497,131z"/>
	<path fill="#FFFFFF" d="M75.972,142.394l-0.891-20.23l10.87-0.479l0.178,4.046L80.006,126l0.164,3.723l5.935-0.261l0.178,4.046
		l-5.934,0.261l0.192,4.37l6.446-0.284l0.178,4.047L75.972,142.394z"/>
	<path fill="#FFFFFF" d="M98.673,141.17l-0.34-1.79l-0.054,0.004c-0.426,0.896-0.933,1.525-1.521,1.891
		c-0.589,0.366-1.395,0.584-2.418,0.654c-1.006,0.069-1.856-0.034-2.552-0.312c-0.695-0.276-1.271-0.692-1.724-1.247
		c-0.453-0.556-0.797-1.218-1.03-1.986s-0.381-1.611-0.444-2.526l-0.572-8.297c-0.152-2.209,0.252-3.869,1.213-4.982
		c0.961-1.112,2.527-1.744,4.7-1.894c2.029-0.14,3.641,0.209,4.836,1.047c1.194,0.838,1.862,2.29,2.005,4.354l0.104,1.509
		l-4.74,0.326l-0.076-1.104c-0.06-0.861-0.194-1.502-0.403-1.921c-0.209-0.418-0.629-0.614-1.259-0.59
		c-0.737,0.033-1.214,0.246-1.431,0.641c-0.216,0.394-0.302,0.923-0.256,1.587l0.689,9.993c0.039,0.575,0.205,1.011,0.496,1.306
		c0.291,0.296,0.75,0.422,1.379,0.379c0.395-0.027,0.699-0.12,0.914-0.28c0.215-0.158,0.368-0.363,0.459-0.613
		s0.139-0.532,0.145-0.849c0.005-0.315-0.004-0.636-0.025-0.959l-0.11-1.589l-1.696,0.116l-0.251-3.636l6.438-0.444l0.758,10.99
		L98.673,141.17z"/>
	<path fill="#FFFFFF" d="M104.354,140.687l-1.803-20.169l4.733-0.423l1.803,20.169L104.354,140.687z"/>
	<path fill="#FFFFFF" d="M114.46,132.917l0.155,1.423c0.031,0.286,0.088,0.557,0.17,0.81c0.082,0.254,0.206,0.476,0.372,0.666
		c0.165,0.189,0.375,0.33,0.63,0.42c0.254,0.09,0.569,0.114,0.944,0.073c0.555-0.061,0.935-0.311,1.141-0.749
		c0.206-0.439,0.28-0.918,0.224-1.438c-0.047-0.429-0.168-0.787-0.362-1.073c-0.193-0.287-0.429-0.533-0.705-0.738
		s-0.58-0.38-0.913-0.525c-0.332-0.144-0.661-0.298-0.987-0.462c-0.778-0.331-1.49-0.67-2.135-1.017
		c-0.645-0.346-1.219-0.754-1.722-1.224c-0.486-0.473-0.885-1.013-1.196-1.622c-0.311-0.608-0.515-1.36-0.612-2.255
		c-0.208-1.896,0.164-3.381,1.115-4.454c0.951-1.072,2.349-1.709,4.191-1.911c1.021-0.111,1.937-0.048,2.75,0.188
		c0.814,0.237,1.503,0.62,2.067,1.146s1.007,1.176,1.326,1.946c0.319,0.771,0.505,1.634,0.555,2.588l-4.349,0.475
		c-0.049-0.284-0.101-0.591-0.154-0.92c-0.055-0.329-0.142-0.632-0.263-0.908s-0.294-0.498-0.521-0.663
		c-0.227-0.166-0.538-0.244-0.936-0.237c-0.487,0.017-0.856,0.161-1.107,0.433c-0.251,0.272-0.379,0.635-0.384,1.088
		c-0.005,0.616,0.15,1.089,0.468,1.416c0.316,0.328,0.725,0.627,1.225,0.898c0.957,0.475,1.829,0.873,2.616,1.194
		c0.786,0.321,1.485,0.712,2.097,1.17s1.108,1.033,1.492,1.725c0.383,0.691,0.643,1.654,0.777,2.889
		c0.213,1.951-0.144,3.497-1.068,4.64c-0.926,1.143-2.373,1.82-4.341,2.035c-1.074,0.117-2.015,0.08-2.823-0.112
		s-1.49-0.498-2.043-0.918c-0.553-0.419-0.979-0.92-1.277-1.504c-0.299-0.582-0.485-1.205-0.558-1.867l-0.234-2.147L114.46,132.917z
		"/>
	<path fill="#FFFFFF" d="M121.553,118.583l12.2-1.656l0.544,4.013l-3.799,0.516l2.179,16.054l-4.709,0.639l-2.179-16.053
		l-3.691,0.501L121.553,118.583z"/>
	<path fill="#FFFFFF" d="M138.228,136.722l-3.272-19.983l10.737-1.759l0.654,3.997l-6.048,0.99l0.603,3.678l5.861-0.961l0.654,3.997
		l-5.861,0.96l0.707,4.316l6.368-1.043l0.654,3.997L138.228,136.722z"/>
	<path fill="#FFFFFF" d="M156.497,133.551l-4.663,0.915l-3.899-19.87l6.809-1.337c1.925-0.378,3.442-0.239,4.553,0.413
		c1.109,0.654,1.858,1.97,2.247,3.948c0.208,1.06,0.218,2.003,0.032,2.827c-0.187,0.826-0.723,1.555-1.607,2.187l0.011,0.054
		c0.681,0.013,1.277,0.198,1.787,0.557c0.511,0.358,0.852,0.879,1.022,1.561c0.114,0.399,0.242,0.888,0.384,1.466
		c0.141,0.577,0.283,1.164,0.428,1.759c0.145,0.596,0.288,1.164,0.431,1.704c0.143,0.541,0.28,0.963,0.414,1.268
		c0.182,0.276,0.377,0.476,0.585,0.601l0.053,0.265l-5.087,0.998c-0.109-0.18-0.204-0.358-0.284-0.535
		c-0.081-0.177-0.149-0.36-0.205-0.552c-0.209-0.876-0.381-1.709-0.518-2.499c-0.137-0.789-0.301-1.485-0.493-2.091
		c-0.191-0.604-0.435-1.069-0.729-1.397c-0.294-0.327-0.718-0.455-1.271-0.383l-1.537,0.302L156.497,133.551z M154.256,122.132
		l1.59-0.313c0.335-0.065,0.6-0.19,0.793-0.375s0.329-0.404,0.407-0.658c0.079-0.254,0.11-0.535,0.096-0.844
		c-0.015-0.31-0.051-0.613-0.11-0.914c-0.114-0.583-0.267-1.03-0.456-1.342c-0.189-0.311-0.432-0.521-0.729-0.627
		c-0.296-0.107-0.654-0.133-1.074-0.078c-0.421,0.055-0.911,0.147-1.474,0.275L154.256,122.132z"/>
	<path fill="#FFFFFF" d="M173.909,129.869l-4.885-19.652l10.849-2.695l0.977,3.93l-6.236,1.551l0.866,3.484l5.738-1.426l0.977,3.931
		l-5.738,1.426l2.064,8.307L173.909,129.869z"/>
	<path fill="#FFFFFF" d="M197.789,116.771c0.313,1.09,0.487,2.085,0.521,2.983c0.033,0.898-0.112,1.694-0.438,2.387
		c-0.324,0.693-0.835,1.295-1.531,1.804c-0.696,0.51-1.624,0.932-2.783,1.265c-1.159,0.334-2.173,0.471-3.042,0.412
		s-1.63-0.294-2.282-0.706c-0.652-0.411-1.207-1.005-1.665-1.782c-0.458-0.776-0.844-1.71-1.157-2.8l-2.277-7.914
		c-0.543-1.885-0.421-3.479,0.365-4.783c0.786-1.303,2.183-2.243,4.189-2.82c2.006-0.578,3.676-0.52,5.009,0.174
		s2.271,1.982,2.813,3.868L197.789,116.771z M191.034,110.483c-0.085-0.294-0.185-0.593-0.3-0.896
		c-0.116-0.304-0.262-0.566-0.438-0.787s-0.396-0.382-0.659-0.484s-0.586-0.099-0.967,0.011c-0.363,0.104-0.629,0.271-0.798,0.497
		s-0.273,0.481-0.313,0.765c-0.041,0.283-0.033,0.585,0.021,0.906s0.125,0.629,0.21,0.923l2.3,7.992
		c0.08,0.276,0.184,0.574,0.313,0.893c0.129,0.319,0.289,0.601,0.481,0.845c0.192,0.245,0.427,0.426,0.704,0.542
		c0.277,0.117,0.598,0.123,0.961,0.019s0.626-0.278,0.791-0.522c0.163-0.244,0.258-0.519,0.281-0.825
		c0.024-0.307,0.002-0.628-0.066-0.965c-0.068-0.336-0.143-0.643-0.223-0.919L191.034,110.483z"/>
	<path fill="#FFFFFF" d="M206.658,120.672l-4.508,1.504l-6.407-19.21l6.582-2.195c1.861-0.621,3.384-0.678,4.568-0.172
		c1.184,0.507,2.095,1.716,2.732,3.628c0.342,1.024,0.473,1.959,0.394,2.801c-0.08,0.843-0.518,1.634-1.314,2.374l0.017,0.051
		c0.678-0.073,1.293,0.034,1.845,0.324s0.956,0.763,1.213,1.417c0.165,0.382,0.354,0.85,0.567,1.404
		c0.214,0.556,0.431,1.119,0.649,1.69c0.22,0.572,0.435,1.118,0.646,1.636c0.21,0.518,0.401,0.919,0.572,1.203
		c0.216,0.251,0.435,0.424,0.657,0.521l0.085,0.257l-4.917,1.64c-0.132-0.165-0.248-0.33-0.351-0.495s-0.193-0.338-0.273-0.521
		c-0.319-0.842-0.597-1.646-0.833-2.412c-0.236-0.765-0.488-1.436-0.756-2.011c-0.268-0.574-0.567-1.006-0.9-1.293
		c-0.334-0.287-0.771-0.359-1.311-0.218l-1.486,0.496L206.658,120.672z M202.976,109.633l1.537-0.513
		c0.324-0.108,0.57-0.266,0.738-0.474s0.274-0.442,0.32-0.705c0.045-0.261,0.041-0.544-0.013-0.85
		c-0.055-0.304-0.13-0.602-0.227-0.892c-0.188-0.563-0.396-0.987-0.624-1.272c-0.228-0.284-0.495-0.461-0.803-0.529
		c-0.307-0.068-0.666-0.048-1.075,0.061c-0.41,0.107-0.886,0.262-1.426,0.461L202.976,109.633z"/>
	<path fill="#FFFFFF" d="M223.521,114.696l-7.645-18.752l10.076-4.107l1.528,3.75l-5.676,2.314l1.407,3.45l5.5-2.242l1.529,3.75
		l-5.501,2.242l1.651,4.051l5.976-2.437l1.529,3.751L223.521,114.696z"/>
	<path fill="#FFFFFF" d="M239.699,107.856l-12.566-16.479l4.305-2.013l8.218,11.834l0.049-0.022l-3.815-13.894l4.305-2.013
		l4.568,20.219L239.699,107.856z"/>
	<path fill="#FFFFFF" d="M250.75,102.573l-9.618-17.82l9.575-5.168l1.924,3.564l-5.394,2.911l1.77,3.279l5.228-2.821l1.924,3.564
		l-5.228,2.822l2.078,3.849l5.678-3.064l1.924,3.563L250.75,102.573z"/>
	<path fill="#FFFFFF" d="M260.71,83.948l-0.017,0.075l6.385,9.316l-3.813,2.405l-10.801-17.129l4.134-2.606l9.14,7.611l0.068-0.043
		l-6.422-9.325l3.813-2.405l10.801,17.129l-4.11,2.593L260.71,83.948z"/>
	<path fill="#FFFFFF" d="M264.096,71.244l9.831-7.411l2.438,3.234l-3.062,2.308l9.752,12.936l-3.795,2.86l-9.751-12.936
		l-2.976,2.243L264.096,71.244z"/>
</g>
</svg>
