<?xml version="1.0" encoding="utf-8"?>
<!-- Generator: Adobe Illustrator 16.0.0, SVG Export Plug-In . SVG Version: 6.00 Build 0)  -->
<!DOCTYPE svg PUBLIC "-//W3C//DTD SVG 1.1//EN" "http://www.w3.org/Graphics/SVG/1.1/DTD/svg11.dtd">
<svg version="1.1" id="Layer_1" xmlns="http://www.w3.org/2000/svg" xmlns:xlink="http://www.w3.org/1999/xlink" x="0px" y="0px"
	 width="61.154px" height="56.729px" viewBox="0 0 61.154 56.729" enable-background="new 0 0 61.154 56.729" xml:space="preserve">
<g>
	<circle fill-rule="evenodd" clip-rule="evenodd" fill="#F15A29" cx="30.295" cy="28.858" r="25.277"/>
	<path fill-rule="evenodd" clip-rule="evenodd" fill="#F15A29" d="M55.572,29.054c-0.102,13.828-11.214,25.371-25.696,25.139
		c-13.5-0.217-24.969-11.127-24.755-25.696C5.319,15.007,16.262,3.513,30.883,3.767C44.299,4,55.488,14.823,55.572,29.054z
		 M34.561,31.522c0-0.357,0-0.634,0-0.911c0-5.376,0-10.754-0.001-16.13c0-1.362-0.524-1.896-1.854-1.896
		c-4.987-0.001-9.975-0.001-14.962,0c-1.407,0-1.923,0.51-1.924,1.897c0,4.131,0,8.261,0,12.392c0,5.48-0.003,10.962,0.001,16.443
		c0.001,1.348,0.541,1.886,1.866,1.888c1.844,0.003,3.689-0.016,5.533,0.005c3.551,0.038,7.102,0.102,10.653,0.142
		c0.275,0.002,0.563-0.072,0.824-0.169c1.205-0.446,2.4-0.917,3.6-1.375c1.894-0.725,3.803-1.408,5.675-2.185
		c0.905-0.376,1.018-0.854,0.776-1.809c-0.402-1.592-0.761-3.195-1.149-4.79c-0.359-1.472-0.702-2.947-1.112-4.403
		c-0.328-1.162-0.741-1.445-1.906-1.171c-1.275,0.3-2.526,0.801-3.682,1.356C36.139,31.173,35.392,31.21,34.561,31.522z"/>
	<path fill-rule="evenodd" clip-rule="evenodd" fill="#FFFFFF" d="M35.958,24.32c0.666-0.25,1.265-0.28,1.875-0.573
		c0.927-0.446,1.931-0.848,2.953-1.088c0.934-0.22,1.265,0.006,1.528,0.938c0.33,1.167,0.604,2.352,0.893,3.531
		c0.312,1.28,0.598,2.565,0.921,3.843c0.194,0.765,0.104,1.148-0.623,1.449c-1.501,0.623-3.033,1.172-4.551,1.753
		c-0.963,0.368-1.922,0.744-2.888,1.103c-0.208,0.078-0.44,0.137-0.661,0.135c-2.848-0.031-5.696-0.083-8.544-0.114
		c-1.479-0.016-2.958-0.001-4.438-0.003c-1.063-0.001-1.496-0.434-1.497-1.514c-0.003-4.396-0.001-8.792,0-13.188
		c0-3.313-0.001-6.626,0-9.939c0.001-1.113,0.415-1.521,1.543-1.521c4-0.001,8-0.001,12,0c1.067,0,1.486,0.428,1.487,1.521
		c0.002,4.312,0.001,8.625,0.002,12.938C35.958,23.812,35.958,24.035,35.958,24.32z M22.079,10.326c0,0.837-0.005,1.64,0.001,2.442
		c0.022,3.231,0.055,6.463,0.067,9.695c0.004,1.021-0.06,2.041-0.062,3.062c-0.005,2.654,0.017,5.311,0.005,7.965
		c-0.002,0.5,0.143,0.666,0.668,0.662c3.395-0.024,6.789-0.012,10.183-0.012c0.369,0,0.739,0,1.2,0
		c-0.155-0.336-0.259-0.598-0.394-0.845c-0.625-1.142-1.294-2.261-1.871-3.426c-0.196-0.396-0.255-0.908-0.219-1.355
		c0.063-0.795,0.724-1.082,1.393-1.313c0-0.101,0.022-0.19-0.004-0.264c-0.532-1.471-1.024-2.957-1.619-4.401
		c-0.443-1.076-0.302-1.704,0.708-2.26c1.08-0.594,1.902-0.298,2.369,0.847c0.062,0.153,0.159,0.291,0.217,0.394
		c0-3.718,0-7.451,0-11.19C30.507,10.326,26.384,10.326,22.079,10.326z M32.438,21.455c0.028,0.272,0.008,0.492,0.078,0.677
		c0.707,1.864,1.431,3.72,2.145,5.58c0.184,0.481,0.374,0.962,0.517,1.453c0.107,0.367,0.048,0.74-0.385,0.854
		c-0.375,0.1-0.631-0.083-0.745-0.474c-0.062-0.215-0.17-0.421-0.28-0.618c-0.145-0.26-0.256-0.651-0.669-0.452
		c-0.395,0.19-0.313,0.532-0.137,0.855c0.822,1.503,1.655,3,2.457,4.515c0.163,0.309,0.305,0.302,0.584,0.188
		c0.856-0.353,1.724-0.681,2.589-1.01c1.309-0.5,2.62-0.993,3.93-1.491c0.257-0.097,0.459-0.156,0.363-0.561
		c-0.514-2.16-0.98-4.33-1.461-6.496c-0.144-0.65-0.554-0.798-1.105-0.373c0.154,0.495,0.475,1.132-0.218,1.38
		c-0.711,0.254-0.764-0.54-1.057-1.001c-0.434,0.171-0.915,0.219-0.617,0.921c0.126,0.295,0.103,0.653-0.334,0.81
		c-0.413,0.146-0.609-0.079-0.789-0.376c-0.054-0.089-0.078-0.229-0.153-0.265c-0.173-0.082-0.431-0.211-0.541-0.142
		c-0.15,0.095-0.315,0.403-0.263,0.538c0.176,0.459,0.171,0.844-0.322,1.016c-0.534,0.188-0.699-0.211-0.854-0.64
		c-0.619-1.698-1.266-3.388-1.915-5.115C32.958,21.31,32.723,21.376,32.438,21.455z"/>
	<path fill-rule="evenodd" clip-rule="evenodd" fill="#F15A29" d="M22.079,10.326c4.305,0,8.428,0,12.643,0c0,3.739,0,7.473,0,11.19
		c-0.058-0.103-0.155-0.24-0.217-0.394c-0.467-1.145-1.289-1.44-2.369-0.847c-1.01,0.556-1.151,1.184-0.708,2.26
		c0.594,1.444,1.087,2.931,1.619,4.401c0.026,0.073,0.004,0.163,0.004,0.264c-0.668,0.231-1.329,0.519-1.393,1.313
		c-0.036,0.447,0.023,0.959,0.219,1.355c0.576,1.165,1.245,2.284,1.871,3.426c0.135,0.247,0.239,0.509,0.394,0.845
		c-0.461,0-0.831,0-1.2,0c-3.395,0-6.789-0.013-10.183,0.012c-0.525,0.004-0.67-0.162-0.668-0.662
		c0.012-2.654-0.01-5.311-0.005-7.965c0.002-1.021,0.066-2.041,0.062-3.062c-0.012-3.232-0.045-6.464-0.067-9.695
		C22.074,11.966,22.079,11.163,22.079,10.326z M23.803,16.851c0,0.521,0.015,1.042-0.004,1.562c-0.02,0.565,0.24,0.774,0.792,0.763
		c0.978-0.024,1.959-0.044,2.935,0.007c0.533,0.026,0.76-0.247,0.774-0.665c0.038-1.123,0.033-2.248-0.005-3.37
		c-0.013-0.384-0.279-0.632-0.712-0.629c-1.041,0.006-2.082-0.002-3.124,0.002c-0.464,0.002-0.673,0.241-0.66,0.707
		C23.813,15.768,23.802,16.309,23.803,16.851z M27.199,25.891c-0.935,0-1.87-0.009-2.804,0.007c-0.191,0.003-0.451,0.04-0.551,0.164
		c-0.13,0.161-0.245,0.491-0.163,0.629c0.122,0.209,0.415,0.436,0.644,0.444c1.161,0.048,2.326,0.027,3.489,0.028
		c0.706,0.002,1.413,0.008,2.119-0.003c0.47-0.007,0.659-0.282,0.646-0.73c-0.012-0.42-0.228-0.556-0.638-0.546
		C29.028,25.906,28.113,25.892,27.199,25.891z M23.515,20.948c0.272,0.372,0.011,0.967,0.68,0.966
		c1.934-0.007,3.867-0.007,5.8-0.003c0.406,0.001,0.555-0.24,0.577-0.586c0.032-0.522-0.284-0.687-0.749-0.686
		c-1.809,0.003-3.617-0.01-5.425,0.016C24.119,20.659,23.843,20.835,23.515,20.948z M29.898,24.426
		c0.034,0.07,0.068,0.141,0.103,0.211c0.189-0.206,0.475-0.384,0.544-0.624c0.1-0.348-0.077-0.65-0.515-0.65
		c-0.388,0-0.777,0.029-1.166,0.027c-1.536-0.004-3.073,0.018-4.607-0.045c-0.497-0.02-0.576,0.172-0.577,0.558
		c-0.001,0.408,0.127,0.678,0.611,0.64c0.657-0.052,1.316-0.103,1.975-0.111C27.477,24.412,28.688,24.426,29.898,24.426z
		 M28.383,31.642c-0.374,0-0.75,0.014-1.124-0.003c-0.446-0.021-0.711,0.102-0.715,0.618c-0.002,0.521,0.345,0.575,0.706,0.581
		c0.766,0.014,1.537,0.032,2.296-0.042c0.228-0.022,0.566-0.319,0.605-0.534c0.056-0.315-0.133-0.639-0.583-0.621
		C29.174,31.655,28.778,31.644,28.383,31.642z M28.069,12.163c0.208,0,0.415-0.003,0.622,0c0.401,0.008,0.612-0.179,0.64-0.587
		c0.029-0.417-0.193-0.628-0.569-0.658c-0.454-0.035-0.93-0.094-1.361,0.008c-0.235,0.055-0.519,0.396-0.565,0.649
		c-0.063,0.35,0.185,0.613,0.611,0.59C27.653,12.153,27.862,12.163,28.069,12.163z M29.695,11.498
		c0.324,0.298,0.563,0.656,0.715,0.623c0.251-0.055,0.446-0.364,0.665-0.565c-0.212-0.217-0.393-0.51-0.65-0.613
		C30.308,10.896,30.04,11.225,29.695,11.498z"/>
	<path fill-rule="evenodd" clip-rule="evenodd" fill="#F15A29" d="M32.438,21.455c0.286-0.079,0.521-0.146,0.815-0.227
		c0.649,1.728,1.296,3.417,1.915,5.115c0.156,0.429,0.321,0.827,0.854,0.64c0.494-0.172,0.499-0.557,0.322-1.016
		c-0.052-0.135,0.113-0.443,0.263-0.538c0.11-0.069,0.368,0.06,0.541,0.142c0.076,0.036,0.099,0.176,0.153,0.265
		c0.18,0.297,0.376,0.522,0.789,0.376c0.438-0.156,0.46-0.515,0.334-0.81c-0.298-0.702,0.183-0.75,0.617-0.921
		c0.292,0.461,0.345,1.255,1.057,1.001c0.692-0.248,0.372-0.885,0.218-1.38c0.551-0.425,0.961-0.277,1.105,0.373
		c0.48,2.166,0.947,4.336,1.461,6.496c0.097,0.404-0.106,0.464-0.363,0.561c-1.31,0.498-2.621,0.991-3.93,1.491
		c-0.866,0.329-1.733,0.657-2.589,1.01c-0.279,0.114-0.421,0.121-0.584-0.188c-0.802-1.515-1.635-3.012-2.457-4.515
		c-0.176-0.323-0.257-0.665,0.137-0.855c0.413-0.199,0.524,0.192,0.669,0.452c0.11,0.197,0.218,0.403,0.28,0.618
		c0.114,0.391,0.37,0.573,0.745,0.474c0.434-0.114,0.492-0.487,0.385-0.854c-0.143-0.491-0.333-0.972-0.517-1.453
		c-0.714-1.86-1.438-3.716-2.145-5.58C32.445,21.947,32.466,21.728,32.438,21.455z"/>
	<path fill-rule="evenodd" clip-rule="evenodd" fill="#FFFFFF" d="M23.803,16.851c0-0.542,0.01-1.083-0.004-1.624
		c-0.013-0.466,0.196-0.705,0.66-0.707c1.042-0.004,2.083,0.004,3.124-0.002c0.433-0.003,0.699,0.245,0.712,0.629
		c0.038,1.122,0.043,2.247,0.005,3.37c-0.014,0.418-0.241,0.691-0.774,0.665c-0.976-0.051-1.957-0.031-2.935-0.007
		c-0.552,0.012-0.812-0.197-0.792-0.763C23.817,17.893,23.803,17.371,23.803,16.851z M27.017,17.986c0-0.738,0-1.453,0-2.192
		c-0.702,0-1.364,0-2.018,0c0,0.779,0,1.474,0,2.192C25.697,17.986,26.349,17.986,27.017,17.986z"/>
	<path fill-rule="evenodd" clip-rule="evenodd" fill="#FFFFFF" d="M27.199,25.891c0.914,0.001,1.829,0.016,2.742-0.007
		c0.41-0.01,0.625,0.126,0.638,0.546c0.013,0.448-0.176,0.724-0.646,0.73c-0.707,0.011-1.413,0.005-2.119,0.003
		c-1.163-0.001-2.328,0.02-3.489-0.028c-0.229-0.009-0.522-0.235-0.644-0.444c-0.082-0.138,0.033-0.468,0.163-0.629
		c0.101-0.124,0.36-0.161,0.551-0.164C25.329,25.882,26.265,25.891,27.199,25.891z"/>
	<path fill-rule="evenodd" clip-rule="evenodd" fill="#FFFFFF" d="M23.515,20.948c0.328-0.113,0.604-0.289,0.883-0.293
		c1.808-0.025,3.617-0.013,5.425-0.016c0.464-0.001,0.781,0.163,0.749,0.686c-0.021,0.346-0.171,0.587-0.577,0.586
		c-1.933-0.004-3.867-0.004-5.8,0.003C23.526,21.915,23.787,21.32,23.515,20.948z"/>
	<path fill-rule="evenodd" clip-rule="evenodd" fill="#FFFFFF" d="M29.898,24.426c-1.21,0-2.421-0.014-3.632,0.005
		c-0.659,0.009-1.318,0.06-1.975,0.111c-0.483,0.038-0.612-0.231-0.611-0.64c0.001-0.386,0.08-0.577,0.577-0.558
		c1.534,0.063,3.071,0.041,4.607,0.045c0.389,0.002,0.778-0.027,1.166-0.027c0.438,0,0.615,0.303,0.515,0.65
		c-0.069,0.24-0.355,0.418-0.544,0.624C29.966,24.566,29.932,24.496,29.898,24.426z"/>
	<path fill-rule="evenodd" clip-rule="evenodd" fill="#FFFFFF" d="M28.383,31.643c0.396,0.001,0.792,0.013,1.186-0.002
		c0.45-0.018,0.639,0.306,0.583,0.621c-0.039,0.215-0.378,0.512-0.605,0.534c-0.76,0.074-1.531,0.056-2.296,0.042
		c-0.36-0.006-0.708-0.06-0.706-0.581c0.003-0.517,0.269-0.639,0.715-0.618C27.633,31.655,28.009,31.642,28.383,31.643z"/>
	<path fill-rule="evenodd" clip-rule="evenodd" fill="#FFFFFF" d="M28.069,12.163c-0.208,0-0.416-0.01-0.622,0.002
		c-0.426,0.023-0.675-0.24-0.611-0.59c0.046-0.253,0.33-0.595,0.565-0.649c0.432-0.102,0.907-0.043,1.361-0.008
		c0.376,0.03,0.598,0.241,0.569,0.658c-0.028,0.408-0.239,0.595-0.64,0.587C28.484,12.16,28.277,12.163,28.069,12.163z"/>
	<path fill-rule="evenodd" clip-rule="evenodd" fill="#FFFFFF" d="M29.695,11.498c0.345-0.273,0.613-0.602,0.73-0.556
		c0.257,0.104,0.438,0.396,0.65,0.613c-0.219,0.201-0.414,0.511-0.665,0.565C30.258,12.154,30.019,11.796,29.695,11.498z"/>
	<path fill-rule="evenodd" clip-rule="evenodd" fill="#F15A29" d="M27.017,17.986c-0.668,0-1.32,0-2.018,0c0-0.719,0-1.413,0-2.192
		c0.654,0,1.316,0,2.018,0C27.017,16.533,27.017,17.248,27.017,17.986z"/>
	<text transform="matrix(1 0 0 1 12.5967 42.1748)" fill="#FFFFFF" font-family="'AvenirNextLTPro-Bold'" font-size="6.6939">SCHEDULE</text>
</g>
</svg>
